<svg xmlns="http://www.w3.org/2000/svg" xmlns:xlink="http://www.w3.org/1999/xlink" width="500" zoomAndPan="magnify" viewBox="0 0 375 374.999991" height="500" preserveAspectRatio="xMidYMid meet" version="1.0"><defs><clipPath id="id1"><path d="M 37.5 149 L 337.5 149 L 337.5 337.132812 L 37.5 337.132812 Z M 37.5 149 " clip-rule="nonzero"/></clipPath></defs><g clip-path="url(#id1)"><path fill="#000000" d="M 329.484375 220.039062 L 328.921875 220.601562 C 327.5625 221.960938 325.757812 222.710938 323.835938 222.710938 L 298.992188 222.710938 L 298.992188 217.296875 L 321.773438 208.296875 C 322.617188 207.96875 323.507812 207.78125 324.421875 207.78125 C 327.9375 207.78125 330.164062 210.078125 331.03125 212.210938 C 331.921875 214.367188 331.992188 217.53125 329.484375 220.039062 Z M 293.109375 311.609375 C 293.109375 322.4375 284.296875 331.25 273.46875 331.25 L 101.53125 331.25 C 90.703125 331.25 81.890625 322.4375 81.890625 311.609375 L 81.890625 190.882812 L 293.109375 190.882812 Z M 101.53125 170.75 L 273.46875 170.75 C 282.398438 170.75 289.898438 176.796875 292.265625 185 L 82.757812 185 C 85.125 176.796875 92.601562 170.75 101.53125 170.75 Z M 187.5 155.304688 C 193.382812 155.304688 198.28125 159.40625 199.617188 164.867188 L 175.382812 164.867188 C 176.71875 159.40625 181.617188 155.304688 187.5 155.304688 Z M 76.007812 222.710938 L 51.164062 222.710938 C 49.242188 222.710938 47.4375 221.960938 46.078125 220.625 L 45.515625 220.039062 C 43.007812 217.53125 43.078125 214.367188 43.96875 212.210938 C 44.859375 210.078125 47.0625 207.78125 50.578125 207.78125 C 51.492188 207.78125 52.382812 207.96875 53.226562 208.296875 L 76.007812 217.296875 Z M 336.46875 209.960938 C 334.40625 204.992188 329.789062 201.921875 324.421875 201.921875 C 322.757812 201.921875 321.164062 202.226562 319.617188 202.835938 L 298.992188 210.96875 L 298.992188 190.390625 C 298.992188 189.828125 298.851562 189.3125 298.828125 188.75 C 298.898438 188.492188 298.992188 188.234375 298.992188 187.929688 C 298.992188 187.414062 298.828125 186.96875 298.59375 186.546875 C 296.71875 174.3125 286.21875 164.867188 273.46875 164.867188 L 205.59375 164.867188 C 204.1875 156.148438 196.640625 149.421875 187.5 149.421875 C 178.359375 149.421875 170.8125 156.148438 169.40625 164.867188 L 101.53125 164.867188 C 88.664062 164.867188 78.09375 174.476562 76.382812 186.875 C 76.242188 187.203125 76.148438 187.554688 76.148438 187.929688 C 76.148438 188.046875 76.21875 188.164062 76.21875 188.28125 C 76.171875 188.984375 76.007812 189.664062 76.007812 190.390625 L 76.007812 210.96875 L 55.382812 202.835938 C 53.835938 202.226562 52.21875 201.921875 50.578125 201.921875 C 45.210938 201.921875 40.59375 204.992188 38.53125 209.960938 C 36.46875 214.953125 37.546875 220.390625 41.34375 224.1875 L 41.929688 224.773438 C 44.414062 227.234375 47.671875 228.59375 51.164062 228.59375 L 76.007812 228.59375 L 76.007812 311.609375 C 76.007812 325.695312 87.46875 337.132812 101.53125 337.132812 L 273.46875 337.132812 C 287.53125 337.132812 298.992188 325.695312 298.992188 311.609375 L 298.992188 228.59375 L 323.835938 228.59375 C 327.328125 228.59375 330.585938 227.234375 333.070312 224.773438 L 333.632812 224.1875 C 337.453125 220.390625 338.53125 214.953125 336.46875 209.960938 " fill-opacity="1" fill-rule="nonzero"/></g><path fill="#000000" d="M 112.078125 130.695312 C 111.210938 132.054688 111.609375 133.882812 112.992188 134.75 C 113.484375 135.054688 114.023438 135.195312 114.5625 135.195312 C 115.546875 135.195312 116.484375 134.703125 117.046875 133.8125 L 124.195312 122.445312 C 129.117188 114.59375 129.117188 104.445312 124.195312 96.59375 C 120.445312 90.640625 120.445312 82.953125 124.195312 77 C 129.117188 69.148438 129.117188 59 124.195312 51.148438 L 117.046875 39.78125 C 116.179688 38.398438 114.375 38 112.992188 38.84375 C 111.609375 39.710938 111.210938 41.539062 112.078125 42.898438 L 119.203125 54.265625 C 122.929688 60.21875 122.929688 67.90625 119.203125 73.882812 C 114.28125 81.734375 114.28125 91.882812 119.203125 99.734375 C 122.929688 105.6875 122.929688 113.375 119.203125 119.328125 L 112.078125 130.695312 " fill-opacity="1" fill-rule="nonzero"/><path fill="#000000" d="M 157.21875 130.695312 C 156.375 132.054688 156.773438 133.882812 158.15625 134.75 C 158.648438 135.054688 159.1875 135.195312 159.726562 135.195312 C 160.6875 135.195312 161.648438 134.703125 162.210938 133.8125 L 169.335938 122.445312 C 174.257812 114.59375 174.257812 104.445312 169.335938 96.59375 C 165.609375 90.640625 165.609375 82.953125 169.335938 77 C 174.257812 69.148438 174.257812 59 169.335938 51.148438 L 162.210938 39.78125 C 161.34375 38.398438 159.539062 38 158.15625 38.84375 C 156.773438 39.710938 156.375 41.539062 157.21875 42.898438 L 164.367188 54.265625 C 168.09375 60.21875 168.09375 67.90625 164.367188 73.882812 C 159.445312 81.734375 159.445312 91.882812 164.367188 99.734375 C 168.09375 105.6875 168.09375 113.375 164.367188 119.328125 L 157.21875 130.695312 " fill-opacity="1" fill-rule="nonzero"/><path fill="#000000" d="M 202.382812 130.695312 C 201.539062 132.054688 201.9375 133.882812 203.320312 134.75 C 203.8125 135.054688 204.351562 135.195312 204.890625 135.195312 C 205.851562 135.195312 206.8125 134.703125 207.375 133.8125 L 214.5 122.445312 C 219.421875 114.59375 219.421875 104.445312 214.5 96.59375 C 210.773438 90.640625 210.773438 82.953125 214.5 77 C 219.421875 69.148438 219.421875 59 214.5 51.148438 L 207.375 39.78125 C 206.507812 38.398438 204.679688 38 203.320312 38.84375 C 201.9375 39.710938 201.539062 41.539062 202.382812 42.898438 L 209.507812 54.265625 C 213.257812 60.21875 213.257812 67.90625 209.507812 73.882812 C 204.585938 81.734375 204.585938 91.882812 209.507812 99.734375 C 213.257812 105.6875 213.257812 113.375 209.507812 119.328125 L 202.382812 130.695312 " fill-opacity="1" fill-rule="nonzero"/><path fill="#000000" d="M 247.546875 130.695312 C 246.679688 132.054688 247.101562 133.882812 248.484375 134.75 C 248.953125 135.054688 249.515625 135.195312 250.03125 135.195312 C 251.015625 135.195312 251.976562 134.703125 252.539062 133.8125 L 259.664062 122.445312 C 264.585938 114.59375 264.585938 104.445312 259.664062 96.59375 C 255.914062 90.640625 255.914062 82.953125 259.664062 77 C 264.585938 69.148438 264.585938 59 259.664062 51.148438 L 252.539062 39.78125 C 251.671875 38.398438 249.84375 38 248.484375 38.84375 C 247.101562 39.710938 246.679688 41.539062 247.546875 42.898438 L 254.671875 54.265625 C 258.421875 60.21875 258.421875 67.90625 254.671875 73.882812 C 249.75 81.734375 249.75 91.882812 254.671875 99.734375 C 258.421875 105.6875 258.421875 113.375 254.671875 119.328125 L 247.546875 130.695312 " fill-opacity="1" fill-rule="nonzero"/></svg>