<svg xmlns="http://www.w3.org/2000/svg" xmlns:xlink="http://www.w3.org/1999/xlink" width="500" zoomAndPan="magnify" viewBox="0 0 375 374.999991" height="500" preserveAspectRatio="xMidYMid meet" version="1.0"><defs><clipPath id="id1"><path d="M 204 240 L 263 240 L 263 314.625 L 204 314.625 Z M 204 240 " clip-rule="nonzero"/></clipPath><clipPath id="id2"><path d="M 204 240 L 250 240 L 250 314.625 L 204 314.625 Z M 204 240 " clip-rule="nonzero"/></clipPath><clipPath id="id3"><path d="M 207.15625 298.261719 L 237.539062 298.261719 L 237.539062 314.625 L 207.15625 314.625 Z M 207.15625 298.261719 " clip-rule="nonzero"/></clipPath><clipPath id="id4"><path d="M 270 163.429688 L 337.398438 163.429688 L 337.398438 246 L 270 246 Z M 270 163.429688 " clip-rule="nonzero"/></clipPath></defs><path fill="#ffc900" d="M 213.386719 75.882812 C 208.78125 69.195312 201.867188 64.019531 193.734375 62.742188 C 178.75 60.386719 166.519531 73.425781 158.558594 84.417969 C 154.367188 90.203125 150.402344 96.753906 149.746094 104.027344 C 149.074219 111.484375 152.503906 118.230469 156.988281 123.9375 C 157.445312 124.519531 158 124.773438 158.550781 124.792969 C 160.894531 126.59375 163.667969 127.917969 166.300781 128.730469 C 173.714844 131.027344 180.832031 128.753906 187.308594 124.910156 C 193.484375 121.246094 199.628906 117.144531 205.40625 112.871094 C 210.90625 108.800781 216.769531 103.699219 218.933594 96.964844 C 221.285156 89.640625 217.492188 81.84375 213.386719 75.882812 " fill-opacity="1" fill-rule="nonzero"/><path fill="#ffde3a" d="M 160.765625 116.414062 C 161.421875 109.140625 165.386719 102.585938 169.578125 96.800781 C 177.539062 85.8125 189.769531 72.769531 204.753906 75.125 C 208.734375 75.75 212.417969 77.3125 215.6875 79.527344 C 214.960938 78.253906 214.179688 77.035156 213.386719 75.882812 C 208.78125 69.195312 201.867188 64.019531 193.734375 62.742188 C 178.75 60.386719 166.519531 73.425781 158.558594 84.417969 C 154.367188 90.203125 150.402344 96.753906 149.746094 104.027344 C 149.074219 111.484375 152.503906 118.230469 156.988281 123.9375 C 157.445312 124.519531 158 124.773438 158.550781 124.792969 C 159.789062 125.746094 161.148438 126.558594 162.542969 127.238281 C 161.152344 123.84375 160.421875 120.222656 160.765625 116.414062 " fill-opacity="1" fill-rule="nonzero"/><path fill="#ffe883" d="M 166.542969 118.925781 C 165.460938 116.949219 162.949219 114.730469 161.265625 113.226562 C 159.261719 111.441406 150.714844 112.246094 150.980469 113.242188 C 152.121094 117.484375 154.730469 121.46875 157.597656 124.796875 C 159.035156 126.464844 160.882812 127.820312 162.871094 128.765625 C 164.382812 129.488281 166.070312 129.714844 167.714844 129.949219 C 169.90625 130.257812 171.84375 129.5625 171.84375 129.5625 C 171.90625 129.675781 167.898438 121.402344 166.542969 118.925781 " fill-opacity="1" fill-rule="nonzero"/><path fill="#ffd945" d="M 169.75 125.269531 C 168.578125 122.890625 167.222656 120.171875 166.542969 118.925781 C 166.226562 118.351562 165.796875 117.761719 165.296875 117.171875 C 166.640625 113.230469 168.445312 109.386719 171.21875 106.273438 C 174.035156 103.113281 177.90625 101.222656 182.140625 101.222656 C 182.308594 101.222656 182.480469 101.226562 182.648438 101.230469 C 185.207031 101.320312 187.589844 101.96875 189.550781 103.675781 C 191.375 105.265625 192.496094 107.570312 192.6875 109.972656 C 193.101562 115.1875 188.671875 119.535156 184.269531 121.535156 C 179.679688 123.617188 174.566406 123.929688 169.75 125.269531 " fill-opacity="1" fill-rule="nonzero"/><path fill="#ffe883" d="M 166.277344 126.378906 C 165.199219 126.378906 164.5 124.816406 165.660156 124.339844 C 165.796875 124.285156 165.929688 124.230469 166.066406 124.179688 L 165.703125 121.035156 C 165.683594 121.039062 165.660156 121.039062 165.640625 121.039062 C 164.964844 121.039062 164.265625 120.472656 164.515625 119.632812 C 164.761719 118.8125 165.019531 117.988281 165.296875 117.171875 C 165.796875 117.761719 166.226562 118.351562 166.542969 118.925781 C 167.222656 120.171875 168.578125 122.890625 169.75 125.269531 C 168.730469 125.550781 167.722656 125.882812 166.734375 126.285156 C 166.578125 126.347656 166.425781 126.378906 166.277344 126.378906 " fill-opacity="1" fill-rule="nonzero"/><path fill="#ffe883" d="M 189.425781 64.699219 C 187.152344 64.417969 184.867188 64.816406 182.769531 65.722656 C 178.859375 67.40625 175.363281 70.65625 172.324219 73.566406 C 171.84375 74.023438 171.371094 74.488281 170.902344 74.953125 C 168.667969 77.15625 166.949219 79.492188 165.605469 82.339844 C 164.597656 84.480469 163.347656 87.046875 163.996094 89.457031 C 164.148438 90.027344 164.816406 90.382812 165.378906 90.203125 C 166.429688 89.867188 167.019531 89.101562 167.6875 88.273438 C 168.550781 87.191406 169.503906 86.175781 170.4375 85.152344 C 172.128906 83.292969 174.03125 81.726562 176.089844 80.292969 C 180.53125 77.203125 185.410156 74.898438 189.992188 72.042969 C 191.347656 71.199219 193.160156 70.242188 193.285156 68.445312 C 193.445312 66.257812 191.339844 64.933594 189.425781 64.699219 " fill-opacity="1" fill-rule="nonzero"/><path fill="#fff2bb" d="M 177.191406 73.683594 C 176.300781 73.683594 175.683594 72.269531 176.625 71.574219 C 179.117188 69.730469 181.667969 67.980469 184.738281 67.285156 C 184.835938 67.261719 184.929688 67.25 185.015625 67.25 C 186.210938 67.25 186.671875 69.117188 185.375 69.414062 C 182.484375 70.070312 180.128906 71.734375 177.785156 73.46875 C 177.582031 73.621094 177.378906 73.683594 177.191406 73.683594 " fill-opacity="1" fill-rule="nonzero"/><path fill="#fff2bb" d="M 172.886719 77.449219 C 172.5 77.449219 172.105469 77.226562 171.894531 76.910156 C 171.539062 76.386719 171.792969 75.722656 172.261719 75.382812 L 172.300781 75.355469 C 172.339844 75.320312 172.382812 75.285156 172.417969 75.246094 C 172.511719 75.167969 172.597656 75.082031 172.6875 75 C 172.925781 74.777344 173.175781 74.566406 173.453125 74.402344 C 173.636719 74.292969 173.832031 74.242188 174.023438 74.242188 C 174.394531 74.242188 174.757812 74.433594 174.984375 74.765625 C 175.316406 75.261719 175.113281 75.996094 174.617188 76.296875 C 174.546875 76.339844 174.476562 76.382812 174.410156 76.429688 C 174.375 76.453125 174.359375 76.464844 174.355469 76.464844 C 174.351562 76.464844 174.351562 76.460938 174.351562 76.460938 C 174.289062 76.519531 174.222656 76.597656 174.171875 76.648438 C 173.933594 76.871094 173.6875 77.085938 173.421875 77.277344 C 173.257812 77.398438 173.074219 77.449219 172.886719 77.449219 " fill-opacity="1" fill-rule="nonzero"/><path fill="#ffde3a" d="M 301.929688 134.15625 C 307.054688 127.011719 305.914062 116.179688 304.101562 108.089844 C 302.429688 100.609375 298.9375 92.792969 292.90625 87.816406 C 278.871094 76.222656 259.949219 88.117188 248.671875 98.070312 C 241.425781 104.460938 235.828125 112.816406 234.773438 122.597656 C 234.035156 129.394531 235.136719 138.25 239.609375 143.960938 C 245.746094 151.792969 254.835938 149.144531 263.320312 147.363281 C 268.765625 146.214844 274.0625 144.519531 279.472656 143.246094 C 287.4375 141.367188 296.648438 141.523438 301.929688 134.15625 " fill-opacity="1" fill-rule="nonzero"/><path fill="#ffc900" d="M 286.570312 84.191406 C 290.09375 86.5 293.398438 90.148438 294.214844 93.789062 C 296.023438 101.878906 300.777344 112.683594 295.65625 119.828125 C 290.371094 127.195312 274.742188 130.597656 266.777344 132.476562 C 261.367188 133.753906 255.691406 134.972656 250.246094 136.117188 C 245.636719 137.085938 240.210938 136.445312 235.8125 136.105469 C 236.621094 138.996094 237.855469 141.71875 239.609375 143.960938 C 245.746094 151.792969 254.835938 149.144531 263.320312 147.363281 C 268.765625 146.214844 274.0625 144.519531 279.472656 143.246094 C 287.4375 141.367188 296.648438 141.523438 301.929688 134.15625 C 307.054688 127.011719 305.914062 116.179688 304.101562 108.089844 C 302.429688 100.609375 298.9375 92.792969 292.90625 87.816406 C 290.882812 86.144531 288.757812 84.964844 286.570312 84.191406 " fill-opacity="1" fill-rule="nonzero"/><path fill="#ffe883" d="M 242.070312 133.9375 C 241.203125 131.664062 240.039062 129.484375 239.210938 127.203125 C 238.511719 125.269531 235.101562 121.007812 234.929688 121.996094 C 233.828125 128.410156 234.796875 135.546875 237.671875 141.347656 C 239.238281 144.511719 241.847656 146.761719 244.9375 148.253906 C 245.878906 148.707031 245.859375 145.667969 245.558594 144.5625 C 244.136719 139.40625 243.6875 138.179688 242.070312 133.9375 " fill-opacity="1" fill-rule="nonzero"/><path fill="#ffe361" d="M 244.683594 131.53125 C 243.445312 131.53125 242.210938 131.457031 240.972656 131.347656 C 240.355469 129.972656 239.71875 128.609375 239.210938 127.203125 C 238.863281 126.242188 237.847656 124.707031 236.890625 123.523438 C 238.589844 119.367188 240.433594 115.019531 243.664062 111.835938 C 246.230469 109.3125 249.515625 108.125 252.984375 108.125 C 253.765625 108.125 254.558594 108.1875 255.351562 108.304688 C 257.765625 108.664062 260.066406 109.429688 261.769531 111.261719 C 263.28125 112.886719 264.050781 115.039062 264.089844 117.238281 C 264.175781 122.410156 260.414062 126.414062 256.097656 128.703125 C 253.699219 129.976562 251.050781 130.886719 248.363281 131.28125 C 247.136719 131.460938 245.910156 131.53125 244.683594 131.53125 " fill-opacity="1" fill-rule="nonzero"/><path fill="#ffe883" d="M 240.972656 131.347656 C 240.445312 131.296875 239.914062 131.242188 239.382812 131.183594 C 238.121094 131.042969 238.023438 129.261719 239.027344 128.992188 L 237.90625 125.808594 C 237.785156 125.847656 237.65625 125.863281 237.53125 125.863281 C 236.835938 125.863281 236.160156 125.3125 236.492188 124.5 C 236.625 124.175781 236.757812 123.851562 236.890625 123.523438 C 237.847656 124.707031 238.863281 126.242188 239.210938 127.203125 C 239.71875 128.609375 240.355469 129.972656 240.972656 131.347656 " fill-opacity="1" fill-rule="nonzero"/><path fill="#ffe883" d="M 288 91.785156 C 287.667969 89.78125 286.21875 88.179688 284.527344 87.152344 C 280.132812 84.480469 275.097656 85.800781 270.648438 87.566406 C 266.703125 89.132812 262.945312 91.171875 259.621094 93.789062 C 259.515625 93.820312 259.410156 93.867188 259.304688 93.941406 C 257.75 94.988281 256.175781 96 255.011719 97.496094 C 254.273438 98.441406 253.09375 99.824219 253.550781 101.121094 C 253.804688 101.839844 254.464844 102.128906 255.167969 101.824219 C 257.550781 100.785156 259.898438 99.636719 262.363281 98.804688 C 264.828125 97.96875 267.375 97.351562 269.941406 96.933594 C 272.589844 96.507812 275.285156 96.355469 277.96875 96.296875 C 279.269531 96.269531 280.574219 96.28125 281.875 96.375 C 283.027344 96.457031 284.222656 96.695312 285.367188 96.402344 C 287.453125 95.871094 288.324219 93.757812 288 91.785156 " fill-opacity="1" fill-rule="nonzero"/><path fill="#fff1b5" d="M 266.199219 92.960938 C 265.804688 92.960938 265.421875 92.757812 265.21875 92.394531 C 264.933594 91.875 265.125 91.164062 265.65625 90.882812 C 266.25 90.570312 267.03125 90.433594 267.511719 90.164062 C 267.675781 90.070312 267.855469 90.027344 268.03125 90.027344 C 268.429688 90.027344 268.820312 90.238281 269.019531 90.597656 C 269.3125 91.125 269.109375 91.8125 268.585938 92.109375 C 267.996094 92.441406 267.222656 92.570312 266.730469 92.828125 C 266.5625 92.917969 266.378906 92.960938 266.199219 92.960938 " fill-opacity="1" fill-rule="nonzero"/><path fill="#fff1b5" d="M 273.75 90.484375 C 272.523438 90.484375 272.121094 88.554688 273.445312 88.304688 C 274.65625 88.078125 275.839844 87.683594 277.0625 87.515625 C 277.457031 87.460938 277.855469 87.441406 278.25 87.441406 C 279.046875 87.441406 279.839844 87.519531 280.644531 87.554688 C 282.054688 87.609375 282.019531 89.773438 280.644531 89.773438 C 280.625 89.773438 280.605469 89.773438 280.589844 89.773438 C 279.835938 89.742188 279.070312 89.644531 278.3125 89.644531 C 277.945312 89.644531 277.582031 89.667969 277.21875 89.734375 C 276.128906 89.925781 275.070312 90.257812 273.984375 90.460938 C 273.902344 90.476562 273.824219 90.484375 273.75 90.484375 " fill-opacity="1" fill-rule="nonzero"/><path fill="#ffc900" d="M 74.648438 166.78125 C 66.867188 166.910156 60.902344 173.980469 56.507812 179.609375 C 51.546875 185.964844 46.902344 192.703125 43.566406 200.070312 C 39.363281 209.363281 37.609375 221.417969 45.859375 229.0625 C 53.691406 236.320312 68.398438 237.457031 78.070312 233.527344 C 84.332031 230.984375 90.488281 228.261719 95.871094 224.183594 C 101.289062 220.078125 106.242188 215.070312 108.722656 208.621094 C 114.15625 194.507812 102.617188 182.160156 92.015625 174.492188 C 87.070312 170.914062 81.019531 166.675781 74.648438 166.78125 " fill-opacity="1" fill-rule="nonzero"/><path fill="#ffde3a" d="M 48.625 231.222656 C 48.132812 225.5625 49.714844 219.515625 52.058594 214.328125 C 55.394531 206.960938 60.042969 200.226562 65.003906 193.867188 C 69.398438 188.238281 75.359375 181.171875 83.140625 181.039062 C 89.511719 180.933594 95.566406 185.171875 100.507812 188.75 C 103.582031 190.972656 106.730469 193.589844 109.527344 196.527344 C 107.347656 187.550781 99.453125 179.871094 92.015625 174.492188 C 87.070312 170.914062 81.019531 166.675781 74.648438 166.78125 C 66.867188 166.910156 60.902344 173.980469 56.507812 179.609375 C 51.546875 185.964844 46.902344 192.703125 43.566406 200.070312 C 39.363281 209.359375 37.609375 221.417969 45.859375 229.0625 C 46.703125 229.847656 47.632812 230.566406 48.625 231.222656 " fill-opacity="1" fill-rule="nonzero"/><path fill="#ffe883" d="M 41.59375 223.011719 C 43.078125 226.214844 44.746094 228.316406 47.234375 230.648438 C 50.246094 233.464844 54.503906 234.757812 58.570312 235.0625 C 58.570312 235.0625 58.246094 233.046875 57.972656 232.476562 C 57.039062 230.535156 54.488281 227.542969 53.140625 225.867188 C 51.542969 223.878906 50.179688 221.722656 48.109375 220.171875 C 46.988281 219.332031 45.796875 218.53125 44.636719 217.75 C 43.496094 216.984375 42.28125 216.367188 40.890625 216.289062 C 40.160156 216.246094 40.191406 216.566406 40.191406 216.566406 C 40.039062 218.421875 40.914062 221.554688 41.59375 223.011719 " fill-opacity="1" fill-rule="nonzero"/><path fill="#ffd945" d="M 59.726562 233.046875 C 59.207031 233.046875 58.671875 233.019531 58.136719 232.953125 C 58.082031 232.753906 58.027344 232.585938 57.972656 232.476562 C 57.050781 230.558594 54.542969 227.609375 53.1875 225.921875 C 53.195312 225.886719 53.210938 225.847656 53.222656 225.808594 C 52.816406 225.582031 52.523438 225.132812 52.65625 224.554688 C 54.339844 217.296875 59.460938 209.398438 67.128906 207.597656 C 68.417969 207.292969 69.785156 207.113281 71.148438 207.113281 C 73.023438 207.113281 74.894531 207.453125 76.542969 208.300781 C 79.039062 209.585938 81.285156 212.390625 82.023438 215.097656 C 83.476562 220.417969 78.953125 224.824219 74.957031 227.511719 C 72.65625 229.054688 70.160156 230.296875 67.582031 231.304688 C 65.289062 232.203125 62.953125 232.910156 60.476562 233.027344 C 60.230469 233.039062 59.980469 233.046875 59.726562 233.046875 " fill-opacity="1" fill-rule="nonzero"/><path fill="#ffe883" d="M 58.136719 232.953125 C 56.570312 232.761719 55.023438 232.242188 53.957031 231.117188 C 52.550781 229.636719 52.609375 227.710938 53.1875 225.921875 C 54.542969 227.609375 57.050781 230.558594 57.972656 232.476562 C 58.027344 232.585938 58.082031 232.753906 58.136719 232.953125 " fill-opacity="1" fill-rule="nonzero"/><path fill="#ffe883" d="M 75.09375 170.371094 C 69.464844 170.269531 64.601562 173.210938 60.890625 177.25 C 58.097656 180.296875 55.878906 183.765625 53.773438 187.304688 C 53.71875 187.351562 53.660156 187.40625 53.609375 187.46875 C 52.402344 188.921875 51.359375 190.488281 50.519531 192.179688 C 49.980469 193.257812 48.882812 195.050781 49.621094 196.253906 C 51.289062 198.992188 55.324219 193.667969 56.171875 192.535156 C 57.261719 191.074219 58.230469 189.527344 59.371094 188.109375 C 60.578125 186.605469 61.941406 185.21875 63.378906 183.9375 C 66.167969 181.445312 69.332031 179.238281 72.75 177.699219 C 74.109375 177.089844 75.527344 176.667969 76.910156 176.113281 C 78.003906 175.675781 79.429688 175.082031 79.914062 173.910156 C 81.109375 171.007812 76.984375 170.40625 75.09375 170.371094 " fill-opacity="1" fill-rule="nonzero"/><path fill="#fff1b5" d="M 61.363281 180.855469 C 61.085938 180.855469 60.808594 180.75 60.574219 180.523438 C 60.167969 180.132812 60.160156 179.316406 60.613281 178.953125 C 61.222656 178.464844 61.726562 177.867188 62.261719 177.304688 C 62.460938 177.097656 62.722656 177.003906 62.988281 177.003906 C 63.296875 177.003906 63.609375 177.128906 63.832031 177.34375 C 64.277344 177.773438 64.195312 178.496094 63.792969 178.914062 C 63.257812 179.476562 62.753906 180.074219 62.144531 180.5625 C 61.90625 180.757812 61.632812 180.855469 61.363281 180.855469 " fill-opacity="1" fill-rule="nonzero"/><path fill="#fff1b5" d="M 67.1875 176.179688 C 66.148438 176.179688 65.488281 174.644531 66.609375 174.117188 C 68.835938 173.0625 71.019531 172.054688 73.527344 172.054688 C 73.5625 172.054688 73.597656 172.054688 73.632812 172.054688 C 75.058594 172.070312 75.007812 174.277344 73.589844 174.277344 C 73.585938 174.277344 73.582031 174.277344 73.578125 174.277344 C 73.550781 174.277344 73.523438 174.277344 73.496094 174.277344 C 71.386719 174.277344 69.554688 175.179688 67.6875 176.0625 C 67.515625 176.140625 67.347656 176.179688 67.1875 176.179688 " fill-opacity="1" fill-rule="nonzero"/><g clip-path="url(#id1)"><path fill="#ffc900" d="M 245.230469 242.78125 C 237.679688 239.789062 229.054688 239.332031 221.589844 242.792969 C 207.828125 249.171875 204.917969 266.8125 204.417969 280.371094 C 204.152344 287.511719 204.503906 295.164062 208.003906 301.574219 C 211.59375 308.140625 218.195312 311.839844 225.097656 314.089844 C 225.800781 314.316406 226.402344 314.21875 226.875 313.929688 C 229.824219 314.121094 232.863281 313.675781 235.503906 312.890625 C 242.941406 310.671875 247.589844 304.824219 250.835938 298.027344 C 253.925781 291.546875 256.753906 284.71875 259.175781 277.957031 C 261.480469 271.515625 263.515625 264.011719 261.566406 257.210938 C 259.445312 249.816406 251.957031 245.445312 245.230469 242.78125 " fill-opacity="1" fill-rule="nonzero"/></g><g clip-path="url(#id2)"><path fill="#ffde3a" d="M 224.050781 305.734375 C 220.550781 299.324219 220.199219 291.671875 220.464844 284.53125 C 220.964844 270.972656 223.875 253.332031 237.636719 246.953125 C 241.289062 245.257812 245.222656 244.503906 249.167969 244.527344 C 247.855469 243.875 246.527344 243.292969 245.230469 242.78125 C 237.679688 239.789062 229.054688 239.332031 221.589844 242.792969 C 207.828125 249.171875 204.917969 266.8125 204.417969 280.371094 C 204.152344 287.511719 204.503906 295.164062 208.003906 301.574219 C 211.59375 308.140625 218.195312 311.839844 225.097656 314.089844 C 225.800781 314.316406 226.402344 314.21875 226.875 313.929688 C 228.433594 314.03125 230.015625 313.949219 231.550781 313.742188 C 228.507812 311.691406 225.882812 309.089844 224.050781 305.734375 " fill-opacity="1" fill-rule="nonzero"/></g><path fill="#ffd945" d="M 233.082031 308.941406 C 231.53125 308.941406 230.015625 308.492188 228.808594 307.429688 C 226.875 305.722656 226.410156 302.992188 226.46875 300.535156 C 226.472656 300.457031 226.480469 300.386719 226.496094 300.320312 C 225.371094 293.292969 226.652344 285.71875 232.785156 281.296875 C 234.414062 280.125 236.226562 279.429688 238.078125 279.429688 C 239.183594 279.429688 240.300781 279.675781 241.40625 280.21875 C 243.484375 281.234375 244.902344 283.097656 245.675781 285.242188 C 247.316406 289.777344 246.292969 295.308594 244.507812 299.648438 C 242.757812 303.914062 239.417969 307.910156 234.65625 308.792969 C 234.136719 308.886719 233.605469 308.941406 233.082031 308.941406 " fill-opacity="1" fill-rule="nonzero"/><g clip-path="url(#id3)"><path fill="#ffe883" d="M 229.949219 306.59375 C 227.636719 305.039062 225.304688 302.089844 223.082031 300.390625 C 221.117188 298.886719 219.472656 298.40625 217.132812 298.574219 C 214.152344 298.785156 211.179688 299.402344 208.242188 299.917969 C 207.242188 300.09375 207.242188 300.09375 207.242188 300.09375 C 209.828125 305.472656 213.460938 309.757812 217.503906 312.109375 C 220.261719 313.710938 223.476562 314.453125 226.636719 314.644531 C 228.375 314.75 237.273438 312.550781 237.371094 312.191406 C 237.882812 311.289062 233.347656 308.878906 229.949219 306.59375 " fill-opacity="1" fill-rule="nonzero"/></g><path fill="#ffe883" d="M 225.429688 249.394531 C 225.253906 247.3125 223.503906 246.269531 221.527344 246.542969 C 216.695312 247.210938 213.953125 252.59375 212.367188 256.628906 C 211.082031 259.902344 210.539062 263.292969 210.113281 266.761719 C 209.753906 269.675781 209.453125 272.578125 209.605469 275.496094 C 209.589844 276.894531 209.707031 279.726562 211.632812 279.371094 C 212.601562 279.195312 213.054688 278.113281 213.40625 277.316406 C 214.046875 275.867188 214.542969 274.34375 214.960938 272.820312 C 216.535156 267.105469 218.683594 261.570312 222.222656 256.761719 C 223.769531 254.660156 225.664062 252.167969 225.429688 249.394531 " fill-opacity="1" fill-rule="nonzero"/><path fill="#fff1b5" d="M 215.464844 258.351562 C 214.792969 258.351562 214.089844 257.785156 214.328125 256.941406 C 215.054688 254.34375 216.671875 252.15625 218.152344 249.949219 C 218.386719 249.597656 218.71875 249.453125 219.046875 249.453125 C 219.832031 249.453125 220.605469 250.277344 220.042969 251.117188 C 218.675781 253.164062 217.128906 255.179688 216.453125 257.585938 C 216.304688 258.121094 215.890625 258.351562 215.464844 258.351562 " fill-opacity="1" fill-rule="nonzero"/><path fill="#fff1b5" d="M 213.566406 263.441406 C 213.46875 263.441406 213.371094 263.429688 213.285156 263.410156 C 213.019531 263.34375 212.761719 263.117188 212.632812 262.882812 C 212.476562 262.597656 212.488281 262.332031 212.542969 262.023438 C 212.625 261.542969 212.824219 261.078125 213.074219 260.664062 C 213.277344 260.316406 213.640625 260.144531 214.007812 260.144531 C 214.210938 260.144531 214.417969 260.199219 214.601562 260.300781 C 215.128906 260.597656 215.261719 261.332031 214.960938 261.832031 C 214.953125 261.847656 214.910156 261.90625 214.875 261.964844 C 214.871094 261.972656 214.863281 261.992188 214.847656 262.03125 C 214.832031 262.066406 214.820312 262.101562 214.808594 262.136719 C 214.746094 262.308594 214.699219 262.488281 214.667969 262.667969 C 214.582031 263.175781 214.046875 263.441406 213.566406 263.441406 M 214.875 261.96875 C 214.839844 262.023438 214.8125 262.074219 214.820312 262.089844 C 214.851562 262.019531 214.867188 261.980469 214.875 261.96875 " fill-opacity="1" fill-rule="nonzero"/><g clip-path="url(#id4)"><path fill="#ffc900" d="M 303.394531 165.699219 C 301.230469 164.136719 298.730469 163.5625 296.183594 163.550781 C 292.636719 163.527344 288.992188 164.597656 286.03125 165.589844 C 284.226562 166.191406 278.792969 168.085938 274.8125 171.535156 C 273.15625 172.972656 271.753906 174.679688 270.964844 176.671875 C 268.277344 183.464844 271.785156 223.9375 278.816406 239.269531 C 282.871094 248.113281 298.472656 247.246094 315.765625 240.777344 C 329.84375 235.511719 339.179688 225.011719 337.109375 216.988281 C 330.9375 193.0625 308.578125 169.441406 303.394531 165.699219 " fill-opacity="1" fill-rule="nonzero"/></g><path fill="#ffde3a" d="M 301.492188 166.46875 C 300.449219 165.730469 299.550781 164.421875 296.890625 164.046875 C 294.449219 163.703125 290.527344 164.140625 283.652344 166.503906 C 279.503906 167.933594 276.636719 170.210938 274.808594 172.234375 C 273.46875 173.71875 272.6875 175.066406 272.371094 175.839844 C 269.847656 182.066406 275.941406 217.3125 278.097656 223.449219 C 280.523438 230.34375 293.617188 230.59375 310.375 224.683594 C 323.539062 220.046875 331.019531 216.539062 328.503906 205.320312 C 326.550781 196.605469 306.28125 169.867188 301.492188 166.46875 " fill-opacity="1" fill-rule="nonzero"/><path fill="#fff3bd" d="M 277.78125 169.367188 C 278.601562 168.777344 279.753906 168.175781 280.984375 167.613281 C 279.949219 168.113281 278.859375 168.695312 277.78125 169.367188 M 287.761719 165.03125 C 287.765625 165.03125 287.769531 165.03125 287.769531 165.03125 C 287.765625 165.03125 287.765625 165.03125 287.761719 165.03125 " fill-opacity="1" fill-rule="nonzero"/><path fill="#ffd945" d="M 277.464844 169.796875 C 277.550781 169.605469 277.652344 169.457031 277.773438 169.371094 C 277.773438 169.371094 277.777344 169.367188 277.78125 169.367188 C 278.859375 168.695312 279.949219 168.113281 280.984375 167.613281 C 280.988281 167.613281 280.992188 167.609375 280.996094 167.609375 C 279.648438 168.273438 278.476562 169.019531 277.464844 169.796875 M 283.433594 166.582031 C 285.671875 165.699219 287.625 165.074219 287.761719 165.03125 C 287.765625 165.03125 287.765625 165.03125 287.769531 165.03125 C 287.929688 165.042969 288.09375 165.0625 288.253906 165.082031 C 286.886719 165.449219 285.359375 165.917969 283.652344 166.503906 C 283.578125 166.53125 283.503906 166.554688 283.433594 166.582031 " fill-opacity="1" fill-rule="nonzero"/><path fill="#ffe361" d="M 293.933594 197.832031 C 293.816406 197.832031 293.695312 197.828125 293.574219 197.828125 C 289.945312 197.734375 286.574219 196.183594 283.871094 193.8125 C 280.980469 191.277344 278.835938 187.761719 277.8125 184.066406 C 277.027344 181.328125 277.03125 178.386719 276.992188 175.597656 C 276.972656 174.1875 276.90625 171.03125 277.464844 169.796875 C 278.476562 169.019531 279.648438 168.273438 280.996094 167.609375 C 281.796875 167.242188 282.632812 166.894531 283.433594 166.582031 C 283.503906 166.554688 283.578125 166.53125 283.652344 166.503906 C 285.359375 165.917969 286.886719 165.449219 288.253906 165.082031 C 293.980469 165.792969 298.679688 169.5 301.875 174.347656 C 303.835938 177.324219 304.769531 180.792969 305.058594 184.316406 C 305.335938 187.667969 304.816406 191.175781 302.691406 193.890625 C 300.566406 196.605469 297.3125 197.832031 293.933594 197.832031 " fill-opacity="1" fill-rule="nonzero"/><path fill="#ffe883" d="M 314.238281 211.433594 C 312.980469 209.933594 310.15625 211.242188 308.71875 211.753906 C 307.570312 212.164062 306.4375 212.433594 305.257812 212.746094 C 303.269531 213.269531 301.332031 213.945312 299.371094 214.554688 C 297.410156 215.164062 295.339844 215.605469 293.332031 214.957031 C 291.558594 214.386719 289.96875 213.191406 288.570312 211.996094 C 287.3125 210.917969 286.261719 209.628906 285.007812 208.5625 C 283.914062 207.632812 282.328125 207.027344 281.160156 208.214844 C 279.605469 209.792969 280.277344 212.890625 280.574219 214.8125 C 280.984375 217.46875 281.433594 219.851562 283.292969 221.945312 C 285.53125 224.464844 289.089844 224.945312 292.28125 224.859375 C 298.796875 224.679688 305.664062 221.910156 310.835938 217.996094 C 312.070312 217.0625 313.277344 215.933594 314.019531 214.554688 C 314.519531 213.625 315.015625 212.363281 314.238281 211.433594 " fill-opacity="1" fill-rule="nonzero"/><path fill="#fff1b5" d="M 292.203125 222.714844 C 291.566406 222.714844 290.9375 222.566406 290.355469 222.265625 C 289.820312 221.988281 289.699219 221.21875 289.996094 220.734375 C 290.207031 220.390625 290.558594 220.226562 290.925781 220.226562 C 291.128906 220.226562 291.335938 220.277344 291.523438 220.375 C 291.695312 220.460938 291.898438 220.5 292.117188 220.5 C 292.359375 220.5 292.621094 220.453125 292.867188 220.378906 C 292.957031 220.351562 293.050781 220.339844 293.136719 220.339844 C 293.628906 220.339844 294.097656 220.710938 294.214844 221.191406 C 294.367188 221.789062 293.980469 222.363281 293.40625 222.535156 C 293.011719 222.65625 292.605469 222.714844 292.203125 222.714844 " fill-opacity="1" fill-rule="nonzero"/><path fill="#fff1b5" d="M 297.476562 221.691406 C 296.347656 221.691406 296.003906 219.84375 297.265625 219.488281 C 300.042969 218.695312 302.691406 217.65625 305.167969 216.160156 C 305.359375 216.042969 305.546875 215.992188 305.722656 215.992188 C 306.671875 215.992188 307.273438 217.480469 306.242188 218.105469 C 303.605469 219.695312 300.757812 220.804688 297.800781 221.644531 C 297.6875 221.675781 297.578125 221.691406 297.476562 221.691406 " fill-opacity="1" fill-rule="nonzero"/><path fill="#ffde3a" d="M 167.746094 249.816406 C 163.539062 242.304688 156 237.21875 147.5625 235.8125 C 139 234.386719 130.144531 235.835938 121.945312 238.445312 C 114.332031 240.871094 107.277344 244.363281 103.234375 251.597656 C 99.441406 258.386719 98.835938 266.476562 98.894531 274.097656 C 98.925781 278.503906 99.003906 282.988281 99.492188 287.371094 C 99.957031 291.527344 100.929688 295.714844 103.675781 299 C 108.457031 304.710938 115.945312 305.074219 123.210938 304.21875 C 128.21875 306.015625 133.625 305.675781 138.980469 303.410156 C 146.503906 300.226562 152.808594 294.582031 158.617188 288.964844 C 161.339844 286.328125 164.125 283.699219 166.679688 280.894531 C 168.800781 278.570312 170.625 275.996094 171.246094 272.855469 C 171.980469 269.144531 171.632812 265.195312 171.1875 261.46875 C 170.699219 257.394531 169.769531 253.425781 167.746094 249.816406 " fill-opacity="1" fill-rule="nonzero"/><path fill="#ffc900" d="M 171.1875 261.46875 C 170.699219 257.394531 169.769531 253.425781 167.746094 249.816406 C 164.085938 243.28125 157.90625 238.585938 150.804688 236.550781 C 150.804688 236.550781 153.507812 238.722656 154.363281 239.667969 C 158.171875 243.894531 159.433594 246.410156 159.925781 250.484375 C 160.371094 254.210938 159.9375 256.867188 159.203125 260.578125 C 158.582031 263.71875 153.941406 268.46875 151.824219 270.792969 C 149.269531 273.59375 146.480469 276.222656 143.757812 278.859375 C 137.953125 284.480469 131.644531 290.125 124.121094 293.304688 C 118.765625 295.574219 113.359375 295.914062 108.355469 294.117188 C 105.90625 294.402344 103.433594 294.550781 101.046875 294.40625 C 101.671875 296.050781 102.511719 297.609375 103.679688 299 C 110.621094 307.296875 129.785156 307.300781 138.980469 303.410156 C 146.503906 300.226562 152.808594 294.582031 158.617188 288.964844 C 161.339844 286.328125 164.125 283.699219 166.679688 280.894531 C 168.800781 278.570312 170.625 275.996094 171.246094 272.855469 C 171.980469 269.144531 171.632812 265.195312 171.1875 261.46875 " fill-opacity="1" fill-rule="nonzero"/><path fill="#ffe361" d="M 119.660156 293.3125 C 119.003906 293.3125 118.507812 292.664062 118.542969 292.058594 L 109.027344 290.808594 C 108.980469 291.378906 108.4375 291.726562 107.898438 291.726562 C 107.441406 291.726562 106.988281 291.484375 106.824219 290.929688 C 104.996094 284.757812 107.117188 277.613281 110.289062 272.242188 C 113.300781 267.136719 118.371094 263.246094 124.234375 262.042969 C 125.273438 261.828125 126.355469 261.699219 127.429688 261.699219 C 129.066406 261.699219 130.695312 262 132.15625 262.777344 C 134.058594 263.785156 135.335938 265.582031 136.023438 267.582031 C 137.589844 272.148438 136.238281 277.46875 133.820312 281.46875 C 130.667969 286.6875 125.515625 290.410156 120.183594 293.175781 C 120.003906 293.273438 119.828125 293.3125 119.660156 293.3125 " fill-opacity="1" fill-rule="nonzero"/><path fill="#ffe883" d="M 115.011719 290.917969 C 112.617188 290.664062 109.230469 289.871094 106.820312 289.835938 C 103.679688 289.789062 101.128906 294.617188 101.128906 294.617188 C 104.089844 302.558594 110.46875 303.90625 113.980469 305.03125 C 119.285156 306.730469 128.964844 305.707031 128.964844 305.707031 C 130.597656 303.980469 130.074219 301.015625 128.878906 299.164062 C 125.808594 294.402344 120.394531 291.488281 115.011719 290.917969 " fill-opacity="1" fill-rule="nonzero"/><path fill="#ffe883" d="M 140.167969 240.640625 C 135.53125 238.664062 130.140625 239.496094 125.40625 240.648438 C 121.535156 241.589844 117.640625 242.972656 114.328125 245.234375 C 112.652344 246.378906 111.394531 247.730469 110.128906 249.292969 C 108.992188 250.695312 107.261719 251.953125 107.050781 253.875 C 106.960938 254.683594 108.023438 255.324219 108.699219 254.875 C 113.265625 251.851562 118.710938 250.496094 124.09375 249.875 C 127.148438 249.519531 130.226562 249.484375 133.292969 249.355469 C 135.550781 249.257812 137.992188 249.292969 140.160156 248.539062 C 141.953125 247.914062 143.558594 246.671875 143.53125 244.601562 C 143.503906 242.601562 141.847656 241.351562 140.167969 240.640625 " fill-opacity="1" fill-rule="nonzero"/><path fill="#fff1b5" d="M 125.675781 244.78125 C 124.589844 244.78125 123.878906 243.214844 125.050781 242.746094 C 128.25 241.472656 131.539062 241.242188 134.953125 241.234375 C 134.953125 241.234375 134.953125 241.234375 134.957031 241.234375 C 136.386719 241.234375 136.328125 243.457031 134.898438 243.457031 C 131.917969 243.460938 128.929688 243.574219 126.125 244.695312 C 125.96875 244.753906 125.820312 244.78125 125.675781 244.78125 " fill-opacity="1" fill-rule="nonzero"/><path fill="#fff1b5" d="M 120.089844 246.46875 C 119.707031 246.46875 119.34375 246.273438 119.121094 245.90625 C 118.820312 245.417969 119.027344 244.644531 119.554688 244.394531 C 120.054688 244.160156 120.570312 243.953125 121.066406 243.710938 C 121.242188 243.625 121.425781 243.582031 121.601562 243.582031 C 121.988281 243.582031 122.351562 243.777344 122.578125 244.144531 C 122.878906 244.640625 122.664062 245.398438 122.140625 245.65625 C 121.644531 245.898438 121.128906 246.105469 120.628906 246.34375 C 120.453125 246.425781 120.269531 246.46875 120.089844 246.46875 " fill-opacity="1" fill-rule="nonzero"/><path fill="#ffc900" d="M 84.628906 153.941406 C 86.945312 155.273438 89.078125 156.496094 91.613281 156.738281 C 95.144531 157.085938 98.871094 156.351562 101.910156 155.636719 C 103.761719 155.199219 109.347656 153.808594 113.625 150.734375 C 115.402344 149.457031 116.914062 147.863281 117.925781 145.96875 C 125.078125 132.5625 121.414062 98.824219 115.808594 82.914062 C 112.574219 73.738281 96.957031 73.183594 79.148438 78.050781 C 64.652344 82.011719 54.394531 91.617188 55.726562 99.792969 C 59.695312 124.183594 75.597656 148.742188 84.628906 153.941406 " fill-opacity="1" fill-rule="nonzero"/><path fill="#ffde3a" d="M 82.527344 142.890625 C 83.496094 143.726562 84.273438 145.105469 86.890625 145.722656 C 89.289062 146.289062 93.230469 146.210938 100.296875 144.484375 C 104.558594 143.4375 107.621094 141.429688 109.625 139.582031 C 111.09375 138.226562 111.996094 136.957031 112.378906 136.214844 C 115.457031 130.242188 108.941406 92.675781 107.351562 86.367188 C 105.5625 79.28125 97.230469 75.878906 80.695312 80.394531 C 67.230469 84.074219 59.414062 88.332031 60.894531 99.734375 C 62.046875 108.59375 78.070312 139.074219 82.527344 142.890625 " fill-opacity="1" fill-rule="nonzero"/><path fill="#ffd945" d="M 104.941406 143.53125 C 104.617188 143.53125 104.292969 143.410156 104.074219 143.199219 C 104.914062 142.828125 105.6875 142.417969 106.398438 141.992188 C 106.269531 142.289062 106.140625 142.578125 106 142.867188 C 105.777344 143.335938 105.355469 143.53125 104.941406 143.53125 " fill-opacity="1" fill-rule="nonzero"/><path fill="#ffe361" d="M 93.992188 145.601562 C 93.792969 145.601562 93.578125 145.535156 93.371094 145.378906 C 89.046875 142.15625 85.417969 137.585938 84.136719 132.269531 C 82.941406 127.296875 84.402344 122.238281 87.898438 118.535156 C 89.800781 116.515625 92.175781 115.472656 94.628906 115.472656 C 96.214844 115.472656 97.832031 115.90625 99.382812 116.792969 C 103.207031 118.976562 105.941406 123.105469 107.246094 127.230469 C 108.785156 132.097656 108.382812 137.347656 106.398438 141.992188 C 105.6875 142.417969 104.914062 142.828125 104.074219 143.199219 C 103.933594 143.0625 103.835938 142.894531 103.808594 142.699219 L 95.074219 144.273438 C 95.160156 144.917969 94.636719 145.601562 93.992188 145.601562 " fill-opacity="1" fill-rule="nonzero"/><path fill="#ffe883" d="M 109.445312 139.140625 C 107.386719 139.964844 88.003906 144.609375 86.417969 145.429688 C 84.597656 146.363281 85.1875 148.441406 84.992188 150.671875 C 84.753906 153.367188 87.152344 155.167969 89.253906 156.320312 C 89.769531 156.605469 94.941406 157.382812 101.339844 156.078125 C 104.773438 155.382812 109.3125 153.9375 111.984375 152.035156 C 115.601562 149.460938 117.96875 146.710938 114.785156 141.71875 C 113.070312 139.035156 111.765625 138.214844 109.445312 139.140625 " fill-opacity="1" fill-rule="nonzero"/><path fill="#ffe883" d="M 78.847656 85.707031 C 76.695312 84.695312 74.074219 85.953125 72.171875 86.992188 C 68.285156 89.121094 65.621094 92.542969 65.285156 97.042969 C 65.046875 100.222656 65.75 103.371094 66.71875 106.425781 C 66.691406 106.5625 66.691406 106.714844 66.726562 106.882812 C 67.160156 108.921875 67.929688 113.042969 70.589844 113.371094 C 73.488281 113.726562 73.027344 108.691406 73.230469 107.011719 C 73.417969 105.4375 73.917969 103.886719 74.414062 102.382812 C 74.890625 100.925781 75.4375 99.445312 76.230469 98.128906 C 77.589844 95.871094 79.632812 93.992188 80.480469 91.441406 C 81.160156 89.382812 81.070312 86.753906 78.847656 85.707031 " fill-opacity="1" fill-rule="nonzero"/><path fill="#fff1b5" d="M 69.703125 95.582031 C 69.003906 95.582031 68.289062 94.972656 68.621094 94.128906 C 69.523438 91.847656 70.929688 89.683594 73.207031 88.597656 C 73.378906 88.515625 73.539062 88.480469 73.695312 88.480469 C 74.714844 88.480469 75.296875 90.0625 74.175781 90.597656 C 72.425781 91.429688 71.398438 93.140625 70.710938 94.886719 C 70.519531 95.375 70.113281 95.582031 69.703125 95.582031 " fill-opacity="1" fill-rule="nonzero"/><path fill="#fff1b5" d="M 69.03125 101.492188 C 69.011719 101.492188 68.992188 101.492188 68.972656 101.492188 C 68.402344 101.46875 67.875 100.863281 67.964844 100.289062 C 68.0625 99.660156 68.15625 99.027344 68.273438 98.398438 C 68.382812 97.804688 68.800781 97.386719 69.417969 97.386719 C 69.4375 97.386719 69.457031 97.386719 69.476562 97.390625 C 70.035156 97.414062 70.589844 98.023438 70.484375 98.59375 C 70.371094 99.222656 70.277344 99.851562 70.179688 100.480469 C 70.085938 101.078125 69.640625 101.492188 69.03125 101.492188 " fill-opacity="1" fill-rule="nonzero"/><path fill="#ffde3a" d="M 217.324219 190.136719 C 214.597656 186.613281 211.195312 183.714844 207.734375 180.941406 C 205.199219 178.910156 202.703125 176.824219 199.882812 175.195312 C 193.0625 171.253906 185.242188 168.535156 177.414062 167.617188 C 172.253906 167.011719 166.496094 167.554688 162.324219 170.5 C 158.246094 172.203125 154.691406 175 152.65625 179.085938 C 150.050781 184.304688 150.054688 190.328125 151.304688 195.917969 C 153.910156 207.601562 162.171875 219.785156 173.191406 224.988281 C 179.976562 228.191406 188.117188 228.1875 195.390625 227.003906 C 204.097656 225.585938 212.257812 221.332031 217.46875 214.089844 C 220.160156 210.34375 222.121094 205.691406 221.8125 201.003906 C 221.542969 196.941406 219.789062 193.3125 217.324219 190.136719 " fill-opacity="1" fill-rule="nonzero"/><path fill="#ffc900" d="M 221.808594 201.003906 C 221.554688 197.191406 219.996094 193.761719 217.769531 190.726562 C 216.980469 192.921875 215.828125 195 214.492188 196.851562 C 209.28125 204.097656 198.113281 210.96875 189.410156 212.386719 C 182.136719 213.570312 177.6875 214.632812 170.90625 211.429688 C 162.175781 207.304688 154.488281 195.125 150.660156 185.957031 C 150.273438 189.261719 150.570312 192.660156 151.300781 195.917969 C 153.90625 207.601562 162.949219 222.910156 173.96875 228.113281 C 180.75 231.316406 186.160156 230.921875 193.433594 229.738281 C 202.140625 228.320312 214.988281 222.894531 220.199219 215.652344 C 222.894531 211.910156 222.117188 205.691406 221.808594 201.003906 " fill-opacity="1" fill-rule="nonzero"/><path fill="#fff3bd" d="M 156.359375 174.226562 C 156.308594 174.023438 156.273438 173.828125 156.242188 173.652344 C 156.242188 173.652344 165.253906 167.609375 169.015625 167.609375 C 169.042969 167.609375 169.070312 167.609375 169.097656 167.609375 C 169.394531 167.617188 169.6875 167.632812 169.976562 167.652344 C 167.195312 168.050781 164.539062 168.9375 162.324219 170.5 C 160.132812 171.417969 158.09375 172.648438 156.359375 174.226562 " fill-opacity="1" fill-rule="nonzero"/><path fill="#ffe361" d="M 175.265625 193.332031 C 175.25 193.332031 175.230469 193.332031 175.214844 193.332031 C 165.261719 193.234375 157.621094 179.628906 156.359375 174.226562 C 158.09375 172.648438 160.132812 171.417969 162.324219 170.5 C 164.539062 168.9375 167.195312 168.050781 169.976562 167.652344 C 172.980469 167.890625 175.394531 168.925781 178.21875 170.148438 C 182.351562 171.9375 187.796875 176.109375 188.394531 180.109375 C 189.011719 184.234375 188.550781 186.882812 185.386719 189.585938 C 183.355469 191.320312 177.953125 193.332031 175.265625 193.332031 " fill-opacity="1" fill-rule="nonzero"/><path fill="#ffe883" d="M 187.328125 205.164062 C 184.613281 201.554688 177.289062 202.269531 173.445312 201.207031 C 171.726562 200.734375 170.035156 200.050781 168.542969 199.058594 C 167.21875 198.175781 165.882812 196.378906 164.1875 196.238281 C 163.351562 196.167969 162.550781 196.769531 162.3125 197.5625 C 161.375 200.65625 167.09375 205.792969 169.136719 207.515625 C 173.222656 210.957031 180.464844 212.558594 185.460938 210.160156 C 187.257812 209.300781 188.703125 206.988281 187.328125 205.164062 " fill-opacity="1" fill-rule="nonzero"/><path fill="#fff1b5" d="M 178.621094 209.554688 C 176.710938 209.554688 174.804688 209.167969 173.273438 208.113281 C 172.300781 207.441406 172.933594 206.023438 173.851562 206.023438 C 174.039062 206.023438 174.242188 206.082031 174.441406 206.222656 C 175.640625 207.046875 177.125 207.339844 178.628906 207.339844 C 179.800781 207.339844 180.980469 207.160156 182.035156 206.914062 C 182.136719 206.890625 182.230469 206.878906 182.316406 206.878906 C 183.496094 206.878906 183.867188 208.765625 182.574219 209.070312 C 181.34375 209.359375 179.980469 209.554688 178.621094 209.554688 " fill-opacity="1" fill-rule="nonzero"/><path fill="#fff1b5" d="M 170.285156 206.082031 C 170.277344 206.082031 170.265625 206.078125 170.261719 206.078125 C 170.007812 206.074219 169.644531 205.945312 169.480469 205.734375 C 169.3125 205.515625 169.136719 205.300781 168.933594 205.117188 C 168.71875 204.921875 168.632812 204.605469 168.628906 204.324219 C 168.621094 204.027344 168.773438 203.753906 168.972656 203.546875 C 169.160156 203.351562 169.476562 203.238281 169.742188 203.238281 C 169.75 203.238281 169.757812 203.238281 169.765625 203.238281 C 170.074219 203.246094 170.320312 203.382812 170.542969 203.585938 C 170.75 203.769531 170.921875 203.984375 171.09375 204.203125 C 171.226562 204.34375 171.316406 204.511719 171.367188 204.699219 C 171.375 204.796875 171.386719 204.898438 171.398438 204.996094 C 171.40625 205.292969 171.253906 205.566406 171.054688 205.773438 C 170.867188 205.96875 170.550781 206.082031 170.285156 206.082031 " fill-opacity="1" fill-rule="nonzero"/></svg>