<svg xmlns="http://www.w3.org/2000/svg" xmlns:xlink="http://www.w3.org/1999/xlink" width="500" zoomAndPan="magnify" viewBox="0 0 375 374.999991" height="500" preserveAspectRatio="xMidYMid meet" version="1.0"><defs><clipPath id="id1"><path d="M 78 43 L 297 43 L 297 337.5 L 78 337.5 Z M 78 43 " clip-rule="nonzero"/></clipPath></defs><path fill="#ed7a48" d="M 293.867188 100.632812 C 292.5 102.808594 287.21875 108.371094 281.9375 113.699219 C 286.246094 118.824219 288.375 124.339844 287.867188 130.085938 C 287.355469 136.109375 283.972656 141.835938 278.320312 146.980469 C 278.03125 147.246094 277.730469 147.511719 277.425781 147.773438 C 277.730469 147.511719 278.027344 147.246094 278.320312 146.980469 C 257.167969 189.875 247.300781 301.734375 237.265625 316.800781 C 227.257812 331.886719 205.875 336.101562 183.84375 336.101562 C 161.808594 336.101562 140.449219 331.886719 130.417969 316.800781 C 122.699219 305.191406 115.21875 236.316406 102.5 185.679688 C 98.699219 170.546875 94.460938 157.058594 89.59375 147.1875 C 83.800781 141.972656 80.351562 136.203125 79.816406 130.085938 C 78.773438 117.757812 89.757812 106.402344 108.40625 98.105469 C 108.285156 98.421875 108.179688 98.742188 108.089844 99.070312 C 108.179688 98.742188 108.285156 98.421875 108.40625 98.105469 C 110.332031 93.054688 115.960938 89.207031 120.941406 88.789062 C 125.273438 88.488281 129.628906 89.648438 133.105469 91.964844 C 133.304688 92.082031 133.511719 92.222656 133.722656 92.375 C 133.511719 92.222656 133.304688 92.082031 133.105469 91.964844 C 130 79.007812 139.753906 74.304688 144.6875 73.144531 C 145.265625 73.03125 145.871094 72.984375 146.472656 72.984375 L 146.425781 72.035156 C 144.109375 68.558594 146.125 63.921875 149.019531 61.605469 C 153.910156 57.945312 159.722656 58.152344 164.078125 62.394531 C 164.078125 62.394531 164.078125 62.394531 164.078125 62.390625 C 166.605469 55.925781 171.910156 49.738281 176.542969 46.773438 C 190.628906 37.757812 206.382812 57.457031 204.671875 68.742188 C 204.636719 68.964844 204.597656 69.179688 204.554688 69.394531 C 204.601562 69.179688 204.640625 68.964844 204.671875 68.742188 L 204.949219 68.789062 C 212.175781 68.789062 217.667969 74.582031 219.105469 80.097656 C 219.195312 80.503906 219.25 80.945312 219.273438 81.402344 C 219.25 80.945312 219.195312 80.507812 219.105469 80.097656 C 225.730469 79.078125 229.34375 84.035156 230.15625 89.019531 C 247.507812 92.660156 262.011719 98.265625 272.160156 105.125 C 279.15625 98.289062 286.039062 91.660156 289.234375 89.042969 C 295.835938 83.597656 296.761719 95.996094 293.867188 100.632812 Z M 293.867188 100.632812 " fill-opacity="1" fill-rule="nonzero"/><path fill="#f7d73b" d="M 275.214844 130.804688 C 272.089844 135.949219 265.601562 140.652344 256.589844 144.59375 L 256.589844 144.617188 C 248.710938 148.070312 238.890625 150.964844 227.722656 153.050781 C 219.171875 154.695312 209.859375 155.832031 199.988281 156.457031 C 194.753906 156.78125 189.355469 156.945312 183.839844 156.945312 C 177.609375 156.945312 171.492188 156.734375 165.609375 156.320312 C 165.476562 156.070312 165.335938 155.824219 165.195312 155.582031 C 165.335938 155.824219 165.476562 156.070312 165.609375 156.320312 C 156.550781 155.671875 147.953125 154.582031 140.054688 153.074219 C 130.53125 151.289062 121.984375 148.925781 114.753906 146.121094 C 106.460938 142.902344 99.925781 139.078125 95.734375 134.882812 L 95.734375 134.859375 C 95.78125 127.558594 103.609375 127.003906 107.664062 126.703125 C 110.515625 128.023438 113.316406 128.789062 115.425781 128.71875 L 115.472656 128.742188 C 115.441406 128.851562 115.417969 128.96875 115.390625 129.078125 C 115.417969 128.96875 115.441406 128.851562 115.472656 128.742188 L 115.425781 128.71875 C 113.316406 128.789062 110.515625 128.023438 107.664062 126.703125 C 101.410156 123.757812 95.039062 118.082031 95.828125 112.636719 C 95.988281 111.429688 96.496094 110.226562 97.472656 109.066406 C 99.765625 106.191406 104.003906 104.824219 108.105469 104.664062 L 108.105469 104.476562 C 107.457031 102.253906 107.640625 100.074219 108.40625 98.105469 C 110.328125 93.054688 115.960938 89.207031 120.941406 88.789062 C 125.273438 88.488281 129.628906 89.648438 133.101562 91.964844 C 133.828125 92.390625 134.628906 93.058594 135.445312 93.84375 C 134.628906 93.058594 133.828125 92.390625 133.101562 91.964844 C 130 79.007812 139.753906 74.304688 144.6875 73.148438 C 145.265625 73.03125 145.867188 72.984375 146.472656 72.984375 L 146.425781 72.035156 C 144.109375 68.558594 146.125 63.921875 149.019531 61.605469 C 153.910156 57.945312 159.722656 58.152344 164.078125 62.394531 C 166.605469 55.929688 171.910156 49.742188 176.542969 46.773438 C 190.628906 37.757812 206.382812 57.457031 204.667969 68.742188 C 204.605469 69.183594 204.511719 69.613281 204.394531 70.023438 C 204.515625 69.609375 204.605469 69.183594 204.671875 68.742188 L 204.949219 68.789062 C 212.175781 68.789062 217.667969 74.582031 219.105469 80.097656 C 219.253906 80.777344 219.308594 81.539062 219.28125 82.351562 C 219.308594 81.539062 219.257812 80.78125 219.105469 80.097656 C 225.730469 79.078125 229.34375 84.039062 230.15625 89.019531 C 230.410156 90.527344 230.386719 92.011719 230.132812 93.355469 C 229.972656 94.230469 229.6875 95.03125 229.316406 95.726562 C 229.6875 95.03125 229.972656 94.230469 230.132812 93.355469 C 234.023438 92.125 239.167969 94.375 243.382812 98.242188 C 245.375 100.097656 247.160156 102.277344 248.503906 104.640625 C 255.453125 103.480469 261.105469 107.652344 262.265625 114.90625 C 258.582031 118.566406 255.453125 121.695312 253.648438 123.503906 C 255.175781 124.335938 256.449219 125.425781 257.285156 126.699219 C 257.539062 127.070312 257.746094 127.464844 257.910156 127.882812 C 258 128.117188 258.082031 128.363281 258.160156 128.617188 C 258.082031 128.363281 258 128.117188 257.910156 127.882812 C 257.746094 127.464844 257.539062 127.070312 257.285156 126.699219 C 259.695312 122.527344 265.601562 122.992188 270.050781 125.496094 C 272.414062 126.816406 274.382812 128.71875 275.171875 130.78125 Z M 228.789062 256.710938 C 222.902344 256.640625 210.367188 263.175781 208.027344 270.148438 C 207.265625 272.421875 207.589844 274.738281 209.558594 276.871094 C 214.703125 282.503906 227.304688 280.324219 232.820312 274.484375 C 239.28125 267.671875 238.007812 257.082031 228.789062 256.710938 Z M 219.542969 227.996094 C 229.203125 226.839844 235.367188 216.410156 228.417969 209.085938 C 223.875 204.519531 209.652344 200.8125 203.09375 205.261719 C 200.960938 206.699219 199.640625 209.015625 199.734375 212.421875 C 199.941406 221.34375 211.273438 228.992188 219.542969 227.996094 Z M 196.886719 254.714844 C 191.347656 260.972656 177.75 262.78125 171.632812 256.269531 C 169.269531 253.789062 168.734375 251.195312 169.363281 248.714844 C 171.308594 241.042969 184.445312 234.347656 190.90625 234.71875 C 201.007812 235.574219 203.347656 247.441406 196.886719 254.714844 Z M 191.101562 248.609375 C 188.503906 249.332031 186.28125 250.699219 183.550781 251.039062 C 180.945312 251.367188 178.34375 250.699219 175.734375 250.808594 C 175.175781 250.832031 175.0625 251.480469 175.46875 251.785156 C 179.898438 255.117188 188.359375 254.527344 192.09375 250.320312 C 192.753906 249.574219 192.128906 248.320312 191.101562 248.609375 Z M 162.988281 289.386719 C 160.742188 290.519531 159.167969 292.628906 158.773438 296.011719 C 157.730469 304.910156 167.507812 314.089844 175.546875 314.273438 C 184.929688 314.484375 192.273438 305.027344 186.667969 296.753906 C 182.9375 291.609375 169.871094 285.910156 162.988281 289.386719 Z M 160.625 234.300781 C 152.566406 236.363281 140.261719 230.269531 138.800781 221.4375 C 138.246094 218.078125 139.242188 215.621094 141.164062 213.90625 C 147.050781 208.625 161.691406 210.429688 166.835938 214.347656 C 174.761719 220.71875 170.054688 231.867188 160.625 234.300781 Z M 152.410156 221.554688 C 151.25 220.941406 150.660156 220.429688 150.328125 219.125 C 150.03125 217.957031 148.0625 217.835938 147.851562 219.125 C 147.453125 221.554688 149.003906 223.507812 151.273438 224.25 C 152.867188 224.769531 153.886719 222.335938 152.410156 221.554688 Z M 154.8125 258.980469 C 160.441406 267.230469 153.074219 276.707031 143.691406 276.5 C 135.652344 276.316406 125.898438 267.113281 126.941406 258.238281 C 127.335938 254.832031 128.910156 252.746094 131.132812 251.609375 C 138.015625 248.136719 151.105469 253.8125 154.8125 258.980469 Z M 145.71875 268.609375 C 144.878906 267.90625 144.046875 267.9375 143.023438 267.707031 C 141.691406 267.410156 140.753906 266.191406 140.0625 265.109375 C 139.285156 263.894531 138.863281 262.503906 138.550781 261.109375 C 138.285156 259.902344 138.402344 258.578125 137.964844 257.417969 C 137.636719 256.558594 136.523438 256.328125 135.996094 257.160156 C 134.265625 259.90625 136.148438 264.644531 137.636719 267.113281 C 138.957031 269.292969 143.792969 273.074219 145.871094 269.78125 C 146.085938 269.441406 146.042969 268.878906 145.71875 268.609375 Z M 248.945312 182.992188 C 248.859375 182.675781 248.757812 182.367188 248.640625 182.0625 C 248.757812 182.367188 248.859375 182.675781 248.945312 182.992188 C 250.289062 187.71875 248.273438 193.582031 243.453125 197.035156 C 236.6875 201.878906 223.089844 200.652344 218.59375 192.933594 C 218.476562 192.726562 218.363281 192.539062 218.269531 192.332031 C 218.191406 192.179688 218.121094 192.03125 218.054688 191.882812 C 218.121094 192.03125 218.191406 192.183594 218.269531 192.332031 L 215.722656 192.261719 C 208.863281 192.261719 199.828125 189.109375 199.109375 181.808594 L 198.96875 181.71875 C 198.785156 182.019531 198.578125 182.296875 198.320312 182.574219 C 194.847656 186.445312 188.753906 187.417969 184.515625 187.023438 L 184.515625 187.046875 C 185.394531 187.582031 186.136719 188.160156 186.738281 188.761719 C 193.6875 196.085938 187.523438 206.515625 177.863281 207.671875 C 169.59375 208.667969 158.265625 201.023438 158.054688 192.101562 C 158.03125 191.382812 158.078125 190.710938 158.195312 190.082031 C 158.511719 188.089844 159.402344 186.585938 160.703125 185.480469 C 159.402344 186.585938 158.511719 188.089844 158.195312 190.082031 C 153.980469 190.082031 149.253906 187.464844 149.207031 183.804688 C 148.996094 184.199219 148.765625 184.546875 148.511719 184.894531 C 147.257812 186.632812 145.636719 187.558594 143.878906 187.929688 C 143.878906 187.929688 143.875 187.929688 143.875 187.929688 C 143.875 187.929688 143.875 187.976562 143.875 187.976562 C 148.140625 190.292969 145.824219 201.113281 143.113281 204.195312 C 137.714844 210.382812 128.445312 210.382812 121.867188 206.144531 C 115.636719 202.320312 113.78125 191.660156 117.257812 184.707031 C 117.28125 184.660156 117.304688 184.613281 117.328125 184.566406 C 117.304688 184.613281 117.28125 184.660156 117.257812 184.707031 L 116.863281 184.5 C 114.523438 184.707031 112.160156 183.339844 110.097656 181.136719 L 109.125 181.808594 C 108.359375 184.894531 105.648438 186.050781 102.566406 185.65625 L 102.5 185.679688 C 98.699219 170.546875 94.460938 157.058594 89.59375 147.1875 C 94.226562 151.359375 100.367188 155.160156 107.6875 158.496094 C 112.183594 160.511719 117.117188 162.367188 122.46875 164.011719 C 122.46875 164.011719 122.050781 164.339844 121.554688 164.875 C 122.050781 164.339844 122.46875 164.011719 122.46875 164.011719 C 130.070312 166.398438 138.433594 168.324219 147.375 169.738281 C 152.980469 170.640625 158.796875 171.3125 164.773438 171.777344 L 164.726562 172.53125 L 164.730469 172.53125 L 164.773438 171.777344 C 170.960938 172.285156 177.355469 172.539062 183.84375 172.539062 C 188.21875 172.539062 192.53125 172.425781 196.769531 172.191406 C 196.839844 172.167969 196.929688 172.167969 197 172.167969 C 206.753906 171.660156 216.113281 170.570312 224.871094 168.949219 L 224.964844 169.4375 C 227.675781 169.828125 229.226562 174.464844 229.226562 176.78125 L 229.367188 177.222656 C 234.09375 175.714844 239.097656 175.296875 242.132812 176.179688 C 242.574219 176.316406 242.988281 176.480469 243.382812 176.664062 L 243.5 176.386719 C 241.183594 174.464844 241.183594 167.90625 243.128906 165.195312 L 242.988281 164.707031 C 249.382812 162.832031 255.269531 160.675781 260.527344 158.265625 C 272.4375 163.664062 261.664062 190.640625 248.945312 182.992188 Z M 131.054688 198.910156 C 129.226562 198.261719 127.835938 197.929688 126.679688 196.210938 C 125.710938 194.765625 125.457031 193.066406 125.144531 191.394531 C 124.992188 190.589844 123.664062 190.375 123.324219 191.15625 C 121.449219 195.492188 125.527344 202.484375 130.660156 201.808594 C 132.285156 201.59375 132.703125 199.496094 131.054688 198.910156 Z M 131.054688 198.910156 " fill-opacity="1" fill-rule="nonzero"/><path fill="#ffefe0" d="M 107.6875 158.496094 C 100.367188 155.160156 94.226562 151.359375 89.59375 147.1875 C 83.800781 141.972656 80.351562 136.203125 79.816406 130.085938 C 78.773438 117.757812 89.757812 106.402344 108.40625 98.105469 C 107.640625 100.074219 107.457031 102.253906 108.105469 104.476562 L 108.105469 104.664062 C 104.003906 104.824219 99.765625 106.191406 97.472656 109.066406 C 96.496094 110.226562 95.988281 111.429688 95.828125 112.636719 C 92.304688 116.132812 90.40625 119.886719 90.40625 123.804688 C 90.40625 127.675781 92.28125 131.40625 95.734375 134.859375 L 95.734375 134.882812 C 99.925781 139.078125 106.460938 142.898438 114.753906 146.121094 C 121.984375 148.925781 130.53125 151.289062 140.054688 153.074219 C 147.953125 154.578125 156.550781 155.667969 165.609375 156.316406 C 171.492188 156.734375 177.609375 156.945312 183.84375 156.945312 C 189.355469 156.945312 194.753906 156.78125 199.992188 156.457031 C 209.859375 155.832031 219.171875 154.695312 227.722656 153.050781 C 238.890625 150.964844 248.710938 148.066406 256.589844 144.613281 L 256.589844 144.589844 C 265.601562 140.652344 272.089844 135.949219 275.21875 130.804688 C 276.585938 128.554688 277.300781 126.214844 277.300781 123.804688 C 277.300781 122.25 277 120.722656 276.421875 119.238281 C 278.136719 117.546875 280.035156 115.648438 281.9375 113.699219 C 286.246094 118.820312 288.375 124.335938 287.867188 130.085938 C 287.355469 136.109375 283.972656 141.835938 278.320312 146.980469 C 273.78125 151.125 267.734375 154.925781 260.527344 158.265625 C 255.269531 160.675781 249.382812 162.832031 242.988281 164.707031 C 237.3125 166.375 231.265625 167.789062 224.871094 168.949219 C 216.113281 170.570312 206.753906 171.660156 197 172.167969 C 196.933594 172.167969 196.839844 172.167969 196.769531 172.191406 C 192.53125 172.421875 188.222656 172.539062 183.84375 172.539062 C 177.355469 172.539062 170.960938 172.285156 164.773438 171.773438 C 158.796875 171.3125 152.980469 170.640625 147.375 169.734375 C 138.433594 168.320312 130.070312 166.398438 122.472656 164.011719 C 117.117188 162.367188 112.183594 160.511719 107.6875 158.496094 Z M 272.15625 105.128906 C 270.746094 106.519531 269.308594 107.929688 267.917969 109.320312 C 262.058594 105.035156 253.625 101.257812 243.382812 98.246094 C 239.167969 94.375 234.023438 92.125 230.132812 93.355469 C 230.386719 92.011719 230.410156 90.527344 230.152344 89.019531 C 247.507812 92.660156 262.011719 98.265625 272.15625 105.128906 Z M 151.296875 105.367188 C 154.257812 100.695312 158.679688 98.859375 164.148438 99.34375 C 166.117188 99.515625 166.125 96.398438 164.148438 96.265625 C 158.109375 95.863281 151.257812 98.28125 149.078125 104.433594 C 148.601562 105.777344 150.585938 106.488281 151.296875 105.367188 Z M 179.289062 105.914062 C 179.464844 103.863281 180.261719 103.113281 181.945312 102.054688 C 183.328125 101.183594 185.550781 99.882812 184.59375 97.945312 C 184.453125 97.667969 184.132812 97.527344 183.84375 97.515625 C 182.761719 97.46875 182.199219 98.179688 181.417969 98.777344 C 180.605469 99.398438 179.710938 99.894531 178.910156 100.53125 C 177.148438 101.929688 176.226562 104.019531 176.855469 106.246094 C 177.25 107.65625 179.171875 107.265625 179.289062 105.914062 Z M 177.695312 77.328125 C 180.285156 75.582031 182.957031 74.4375 185.523438 76.8125 C 187.574219 78.710938 188.242188 81.777344 188.050781 84.457031 C 187.894531 86.597656 191.242188 86.59375 191.378906 84.457031 C 191.640625 80.328125 189.859375 76.226562 186.480469 73.804688 C 183 71.3125 178.894531 73.339844 177.085938 76.722656 C 176.890625 77.09375 177.304688 77.59375 177.695312 77.328125 Z M 196.71875 108.878906 C 197.976562 108.617188 198.988281 107.664062 199.96875 106.871094 C 201.707031 105.464844 203.472656 104.390625 205.699219 103.992188 C 205.039062 103.332031 204.378906 102.671875 203.71875 102.011719 C 203.304688 103.613281 203.507812 105.351562 202.710938 106.832031 C 202.136719 107.90625 202.847656 109.28125 204.113281 109.277344 C 206.007812 109.277344 208.289062 109.496094 209.675781 108.003906 C 210.488281 107.125 209.882812 105.847656 208.746094 105.761719 C 207.230469 105.644531 205.65625 106.023438 204.113281 106.027344 C 204.582031 106.84375 205.050781 107.660156 205.515625 108.472656 C 206.5 106.632812 206.355469 104.839844 206.824219 102.867188 C 207.121094 101.621094 206.054688 100.644531 204.84375 100.886719 C 201.441406 101.570312 196.84375 104.269531 195.453125 107.613281 C 195.128906 108.398438 196.042969 109.023438 196.71875 108.878906 Z M 219.171875 126.363281 C 219.394531 126.363281 219.394531 126.019531 219.171875 126.019531 C 218.953125 126.019531 218.953125 126.363281 219.171875 126.363281 Z M 228.820312 128.875 C 228.085938 134.230469 224.082031 142.613281 218.773438 144.753906 C 218.074219 145.035156 217.636719 145.515625 217.597656 146.296875 C 217.582031 146.605469 217.636719 146.847656 217.816406 147.101562 C 218.371094 147.882812 219.144531 148.042969 220.003906 147.675781 C 226.460938 144.921875 230.835938 135.824219 230.40625 129.089844 C 230.351562 128.238281 228.953125 127.925781 228.820312 128.875 Z M 189.890625 124.304688 C 188.773438 122.550781 186.363281 124.398438 185.355469 125.363281 C 183.601562 127.039062 182.527344 129.589844 182.375 131.984375 C 182.257812 133.863281 185.300781 133.886719 185.308594 131.984375 C 185.316406 130.347656 185.984375 128.863281 186.875 127.515625 C 187.296875 126.882812 187.753906 126.3125 188.316406 125.800781 C 188.792969 125.363281 189.394531 125.140625 189.84375 124.664062 C 189.933594 124.570312 189.964844 124.417969 189.890625 124.304688 Z M 156.019531 129.605469 C 154.945312 131.976562 154.203125 135.113281 155.976562 137.34375 C 156.898438 138.503906 158.796875 137.253906 158.390625 135.9375 C 157.78125 133.949219 158.074219 132.253906 158.304688 130.222656 C 158.4375 129.03125 156.511719 128.519531 156.019531 129.605469 Z M 141.753906 124.375 C 140.222656 125.441406 139.277344 127.871094 138.578125 129.542969 C 137.855469 131.277344 137.007812 133.425781 137.921875 135.230469 C 138.558594 136.488281 140.460938 135.84375 140.476562 134.535156 C 140.5 132.785156 140.824219 131.40625 141.488281 129.765625 C 142.09375 128.277344 143.160156 126.472656 142.871094 124.832031 C 142.789062 124.367188 142.136719 124.113281 141.753906 124.375 Z M 128.042969 120.269531 C 125.304688 121.113281 123.257812 123.414062 122.429688 126.109375 C 121.929688 127.730469 124.429688 128.398438 124.953125 126.804688 C 125.660156 124.644531 126.996094 122.898438 128.757812 121.496094 C 129.34375 121.027344 128.710938 120.066406 128.042969 120.269531 Z M 104.492188 113.273438 C 105.558594 113.214844 106.601562 113.046875 107.675781 113.066406 C 108.65625 113.082031 109.566406 113.335938 110.511719 113.5625 C 112.191406 113.964844 112.789062 111.601562 111.214844 111.011719 C 109.046875 110.207031 106.078125 110.546875 103.992188 111.4375 C 103.078125 111.824219 103.554688 113.324219 104.492188 113.273438 Z M 118.390625 99.097656 C 121.101562 98.933594 123.515625 98.878906 126.078125 99.910156 C 127.757812 100.585938 128.875 97.828125 127.300781 97.015625 C 124.644531 95.644531 120.828125 95.417969 118.046875 96.554688 C 116.800781 97.066406 116.8125 99.195312 118.390625 99.097656 Z M 140.214844 82.261719 C 142.605469 82.953125 145.007812 81.867188 147.339844 83.109375 C 148.980469 83.980469 150.421875 81.53125 148.796875 80.617188 C 146.222656 79.164062 142.277344 79.203125 139.902344 81.082031 C 139.46875 81.425781 139.75 82.128906 140.214844 82.261719 Z M 172.554688 61.816406 C 174.960938 58.613281 176.691406 55.351562 181.304688 56.3125 C 181.9375 56.445312 182.722656 55.730469 182.242188 55.089844 C 178.503906 50.082031 170.910156 56.546875 170.664062 61.304688 C 170.609375 62.414062 172.003906 62.546875 172.554688 61.816406 Z M 206.613281 78.996094 C 206.054688 80.402344 206.257812 81.988281 206.195312 83.476562 C 206.125 85.246094 205.457031 86.34375 204.671875 87.84375 C 204.074219 88.988281 205.332031 90.515625 206.542969 89.714844 C 209.496094 87.753906 209.816406 82.011719 208.566406 78.996094 C 208.171875 78.046875 206.996094 78.023438 206.613281 78.996094 Z M 222.546875 87.765625 C 222.121094 88.921875 222.003906 90.226562 221.6875 91.417969 C 221.367188 92.636719 223.167969 93.464844 223.761719 92.292969 C 224.449219 90.929688 224.429688 89.1875 223.910156 87.765625 C 223.660156 87.097656 222.792969 87.097656 222.546875 87.765625 Z M 236.589844 104.136719 C 237.671875 105.300781 238.347656 106.5625 238.765625 108.09375 C 239.125 109.414062 238.867188 110.527344 238.824219 111.847656 C 238.777344 113.195312 240.707031 113.710938 241.351562 112.535156 C 243.34375 108.90625 240.472656 104.882812 237.511719 102.941406 C 236.765625 102.449219 236.019531 103.519531 236.589844 104.136719 Z M 248.46875 131.984375 C 248.542969 133.207031 248.40625 134.3125 248.003906 135.46875 C 247.703125 136.335938 247.054688 137.011719 246.773438 137.890625 C 246.5 138.746094 247.339844 139.320312 248.089844 139.207031 C 251.382812 138.707031 250.75 133.933594 250.085938 131.765625 C 249.820312 130.90625 248.40625 131.027344 248.46875 131.984375 Z M 263.183594 128.851562 C 263.601562 129.589844 263.882812 130.410156 264.109375 131.222656 C 264.332031 132.027344 264.363281 132.714844 265.148438 133.183594 C 265.359375 133.308594 265.664062 133.320312 265.871094 133.183594 C 266.898438 132.492188 266.753906 131.320312 266.351562 130.285156 C 265.925781 129.179688 265.082031 128.523438 264.113281 127.921875 C 263.523438 127.558594 262.855469 128.273438 263.183594 128.851562 Z M 263.183594 128.851562 " fill-opacity="1" fill-rule="nonzero"/><path fill="#5cb860" d="M 289.234375 89.042969 C 295.835938 83.597656 296.761719 95.996094 293.867188 100.632812 C 292.5 102.808594 287.21875 108.371094 281.933594 113.703125 C 280.035156 115.648438 278.136719 117.546875 276.421875 119.238281 C 272.785156 122.855469 270.050781 125.496094 270.050781 125.496094 C 265.601562 122.996094 259.695312 122.53125 257.285156 126.703125 C 256.453125 125.425781 255.175781 124.339844 253.648438 123.503906 C 255.453125 121.695312 258.582031 118.566406 262.265625 114.90625 C 264.050781 113.144531 265.949219 111.246094 267.917969 109.320312 C 269.308594 107.929688 270.746094 106.515625 272.160156 105.125 C 279.15625 98.289062 286.035156 91.664062 289.234375 89.042969 Z M 289.234375 89.042969 " fill-opacity="1" fill-rule="nonzero"/><g clip-path="url(#id1)"><path fill="#39382c" d="M 294.453125 87.394531 C 293.539062 86.59375 291.546875 85.632812 288.5 88.148438 C 285.234375 90.824219 278.085938 97.71875 272.011719 103.648438 C 261.851562 96.988281 247.769531 91.609375 231.148438 88.054688 C 230.035156 82.910156 226.257812 78.359375 219.933594 78.839844 C 218.125 73.492188 212.882812 68.136719 205.933594 67.667969 C 206.273438 60.554688 200.917969 51.109375 193.671875 46.402344 C 187.691406 42.515625 181.386719 42.300781 175.917969 45.796875 C 171.144531 48.855469 166.269531 54.734375 163.636719 60.492188 C 159.085938 56.984375 153.234375 57 148.296875 60.699219 C 145.042969 63.304688 143.074219 68.078125 145.023438 71.929688 C 144.824219 71.957031 144.617188 71.980469 144.421875 72.019531 C 142.667969 72.429688 136.691406 74.183594 133.449219 79.441406 C 131.65625 82.351562 131.011719 85.796875 131.511719 89.714844 C 128.257812 88.109375 124.558594 87.375 120.84375 87.636719 C 115.300781 88.097656 109.671875 92.195312 107.519531 97.238281 C 87.859375 106.082031 77.613281 117.769531 78.664062 130.1875 C 79.203125 136.40625 82.566406 142.359375 88.644531 147.886719 C 93.019531 156.820312 97.183594 169.273438 101.375 185.964844 C 107.089844 208.71875 111.746094 235.152344 115.851562 258.472656 C 121.003906 287.742188 125.074219 310.855469 129.449219 317.441406 C 138.195312 330.59375 156.496094 337.261719 183.839844 337.261719 C 211.207031 337.261719 229.507812 330.59375 238.230469 317.445312 C 242.621094 310.847656 246.746094 287.613281 251.964844 258.199219 C 258.761719 219.90625 267.214844 172.28125 279.265625 147.679688 C 285.214844 142.210938 288.5 136.328125 289.019531 130.1875 C 289.519531 124.558594 287.652344 119.042969 283.488281 113.78125 C 289.855469 107.324219 293.679688 103.105469 294.847656 101.246094 C 297.128906 97.597656 297.355469 89.9375 294.453125 87.394531 Z M 289.96875 89.9375 C 291.289062 88.847656 292.289062 88.574219 292.925781 89.140625 C 293.679688 89.800781 294.109375 91.316406 294.222656 93.0625 C 293.699219 95.777344 279.039062 109.953125 264.730469 122.511719 C 261.855469 122.171875 259.105469 122.8125 257.257812 124.8125 C 256.746094 124.269531 256.15625 123.757812 255.496094 123.292969 C 257.34375 121.441406 260.003906 118.789062 263.054688 115.753906 C 263.058594 115.753906 263.058594 115.75 263.0625 115.746094 C 263.066406 115.742188 263.074219 115.734375 263.078125 115.730469 L 264.816406 114.011719 C 266.078125 112.757812 267.386719 111.460938 268.738281 110.140625 C 270.023438 108.851562 271.351562 107.542969 272.664062 106.253906 L 272.964844 105.953125 C 279.140625 99.925781 286.652344 92.65625 289.96875 89.9375 Z M 265.402344 125.003906 C 265.410156 124.996094 265.417969 124.992188 265.421875 124.984375 C 266.8125 125.265625 268.21875 125.792969 269.484375 126.507812 C 271.550781 127.664062 273.117188 129.183594 273.878906 130.734375 C 271.195312 134.800781 266.15625 138.695312 259.160156 142.125 C 260.820312 137.542969 260.53125 131.574219 258.988281 127.464844 C 258.890625 127.214844 258.78125 126.972656 258.65625 126.738281 C 260.113281 124.863281 262.714844 124.453125 265.382812 124.980469 Z M 275.871094 121.417969 C 276.046875 122.210938 276.144531 123.007812 276.144531 123.804688 C 276.144531 125.34375 275.808594 126.882812 275.15625 128.398438 C 274.34375 127.273438 273.238281 126.214844 271.914062 125.304688 C 272.804688 124.4375 274.195312 123.074219 275.871094 121.417969 Z M 200.398438 155.265625 C 199.828125 154.742188 199.339844 154.117188 198.941406 153.398438 C 198.941406 153.398438 198.941406 153.398438 198.941406 153.394531 C 198.941406 153.394531 198.941406 153.390625 198.9375 153.390625 C 198.933594 153.378906 198.925781 153.371094 198.921875 153.359375 C 198.917969 153.347656 198.914062 153.335938 198.910156 153.328125 C 198.101562 151.773438 197.792969 149.867188 197.992188 147.65625 C 198.183594 145.445312 198.847656 143 199.964844 140.390625 C 203.015625 133.265625 208.535156 126.707031 212.429688 123.898438 C 212.96875 123.492188 213.523438 123.152344 214.128906 122.847656 C 217.9375 120.953125 225.140625 117.917969 230.632812 118.878906 C 232.042969 119.085938 233.289062 119.601562 234.328125 120.40625 C 235.898438 121.644531 237.324219 123.421875 238.445312 125.550781 C 240.488281 129.417969 241.757812 135.414062 238.613281 139.582031 C 235.964844 143.09375 231.941406 148.148438 227.230469 151.960938 C 219.015625 153.53125 209.992188 154.640625 200.398438 155.265625 Z M 94.839844 115.460938 C 95.792969 119.453125 99.5625 123.25 103.867188 125.941406 C 100.273438 126.523438 96.144531 127.984375 94.929688 132.246094 C 92.695312 129.492188 91.5625 126.660156 91.5625 123.804688 C 91.5625 120.984375 92.664062 118.1875 94.839844 115.460938 Z M 108.15625 105.820312 C 110.066406 105.742188 111.984375 105.9375 113.679688 106.40625 C 118.132812 107.652344 123.890625 111.4375 126.253906 114.492188 C 121.992188 116.070312 119.003906 119.910156 116.503906 123.484375 C 115.75 124.605469 115.105469 126.003906 114.617188 127.550781 C 112.835938 127.441406 110.539062 126.757812 108.160156 125.652344 C 102.089844 122.800781 96.296875 117.46875 96.976562 112.789062 C 97.117188 111.738281 97.582031 110.738281 98.375 109.789062 C 100.226562 107.472656 103.878906 105.992188 108.15625 105.820312 Z M 142.941406 101.851562 C 143.65625 98.863281 145.222656 96.253906 147.4375 94.320312 C 151.570312 90.921875 158 90.023438 164.667969 91.925781 C 166.078125 92.289062 167.726562 93.089844 169.070312 94.058594 C 170.367188 95.003906 172.480469 96.941406 172.492188 99.445312 C 169.175781 104.308594 168.558594 111.261719 170.914062 117.082031 C 169.414062 119.25 165.746094 121.984375 163.46875 122.894531 C 162.140625 122.566406 160.800781 122.292969 159.664062 122.125 C 156.070312 121.589844 153.230469 121.839844 150.988281 122.886719 C 148.820312 121.398438 146.914062 119.351562 145.449219 116.929688 C 142.683594 112.308594 141.742188 106.675781 142.941406 101.851562 Z M 198.554688 78.363281 C 198.554688 80.671875 197.792969 89.746094 195.589844 94.230469 C 193.371094 92.207031 190.769531 91.105469 188.128906 91.105469 C 182.996094 91.105469 177.851562 93.394531 174.378906 97.066406 C 173.78125 95.417969 172.578125 93.855469 170.824219 92.480469 C 170.128906 88.476562 170.097656 84.269531 170.757812 80.585938 C 171.75 75.113281 175.21875 66.007812 186.925781 66.195312 C 193.101562 66.429688 197.367188 69.839844 198.339844 75.324219 C 198.523438 76.324219 198.59375 77.332031 198.554688 78.363281 Z M 210.507812 97.792969 C 211.453125 97.65625 212.421875 97.542969 213.371094 97.476562 L 214.5 97.417969 C 218.890625 97.183594 223.863281 96.917969 227.597656 98.746094 C 229.082031 99.488281 230.257812 100.515625 231.15625 101.835938 C 234.476562 107.292969 232.378906 112.519531 230.03125 115.941406 C 229.925781 116.097656 229.867188 116.269531 229.84375 116.441406 C 223.945312 115.921875 216.910156 118.878906 213.097656 120.777344 C 212.851562 120.898438 212.621094 121.035156 212.386719 121.171875 C 210.292969 116.695312 202.753906 114.457031 198.675781 114.558594 C 195.761719 114.597656 192.742188 115.273438 189.484375 116.601562 C 188.652344 111.707031 188.40625 107.742188 192.269531 105.078125 C 194.351562 103.609375 196.480469 102.367188 198.773438 101.28125 C 198.824219 101.261719 198.875 101.238281 198.921875 101.210938 C 202.628906 99.46875 206.414062 98.347656 210.507812 97.792969 Z M 263.183594 112.367188 L 262.917969 112.628906 C 262.039062 109.683594 260.378906 107.222656 258.097656 105.578125 C 255.59375 103.777344 252.425781 103.027344 249.113281 103.398438 C 248.539062 102.464844 247.894531 101.542969 247.183594 100.648438 C 254.863281 103.195312 261.328125 106.203125 266.117188 109.46875 C 265.117188 110.449219 264.132812 111.421875 263.183594 112.367188 Z M 253.417969 122.09375 C 252.191406 121.527344 250.851562 121.121094 249.484375 120.894531 C 252.707031 116.710938 253.011719 111.316406 250.3125 105.625 C 252.71875 105.53125 254.917969 106.148438 256.742188 107.460938 C 258.945312 109.042969 260.402344 111.480469 261.007812 114.523438 C 257.882812 117.632812 255.191406 120.320312 253.417969 122.09375 Z M 267.792969 107.8125 C 261.992188 103.773438 253.785156 100.121094 243.960938 97.207031 C 239.8125 93.476562 235.203125 91.558594 231.457031 91.917969 C 231.484375 91.445312 231.488281 90.972656 231.464844 90.492188 C 247.226562 93.9375 260.597656 99.039062 270.316406 105.3125 C 269.46875 106.148438 268.625 106.984375 267.792969 107.8125 Z M 231.105469 94.300781 C 234.226562 93.683594 238.4375 95.386719 242.328125 98.859375 C 242.433594 99.015625 242.578125 99.148438 242.742188 99.238281 C 244.652344 101.042969 246.296875 103.105469 247.496094 105.210938 C 249.097656 108.042969 252.164062 115.164062 246.566406 120.703125 C 243.890625 120.804688 241.53125 121.660156 239.738281 123.160156 C 238.601562 121.320312 237.242188 119.753906 235.75 118.578125 C 234.703125 117.765625 233.511719 117.1875 232.210938 116.839844 C 235.8125 111.328125 236.152344 105.585938 233.105469 100.582031 C 232.195312 99.246094 231.058594 98.148438 229.710938 97.292969 C 230.335938 96.472656 230.8125 95.453125 231.105469 94.300781 Z M 164.601562 152.480469 C 163.519531 150.9375 162.34375 149.574219 161.101562 148.386719 C 163.464844 149.058594 165.992188 149.660156 167.753906 150.058594 C 166.707031 150.730469 165.609375 151.539062 164.601562 152.480469 Z M 170.75 148.378906 C 170.664062 148.335938 170.574219 148.300781 170.476562 148.28125 C 170.375 148.257812 160.367188 146.183594 157.019531 144.507812 C 150.601562 141.65625 147.863281 138.507812 147.863281 133.980469 C 147.863281 129.601562 148.996094 126.769531 151.316406 125.328125 C 151.433594 125.285156 151.539062 125.226562 151.636719 125.148438 C 153.480469 124.164062 155.992188 123.921875 159.328125 124.417969 C 160.417969 124.578125 161.707031 124.84375 162.984375 125.160156 C 163.128906 125.234375 163.292969 125.28125 163.46875 125.285156 C 166.050781 125.976562 170.4375 127.429688 173.332031 129.871094 C 172.203125 133.234375 172.332031 136.964844 173.71875 140.449219 C 174.503906 142.597656 176.726562 144.304688 179.554688 145.601562 C 179.039062 145.664062 178.519531 145.742188 177.980469 145.839844 C 175.855469 146.226562 173.210938 147.164062 170.75 148.378906 Z M 172.050781 119.371094 C 173.261719 121.414062 174.839844 123.097656 176.71875 124.332031 C 175.730469 125.335938 174.914062 126.449219 174.277344 127.660156 C 171.976562 125.898438 169.085938 124.65625 166.660156 123.832031 C 168.574219 122.65625 170.644531 120.988281 172.050781 119.371094 Z M 195.644531 149.710938 C 195.273438 149.40625 194.863281 149.09375 194.425781 148.789062 C 194.613281 148.792969 194.796875 148.796875 194.976562 148.796875 C 195.203125 148.796875 195.410156 148.789062 195.625 148.785156 C 195.621094 149.097656 195.628906 149.40625 195.644531 149.710938 Z M 197.835938 139.476562 C 196.78125 141.9375 196.097656 144.285156 195.796875 146.464844 C 189.636719 146.726562 177.488281 144.015625 175.882812 139.625 C 174.601562 136.398438 174.558594 132.96875 175.769531 129.953125 C 175.769531 129.949219 175.773438 129.945312 175.773438 129.941406 C 176.5 128.074219 177.691406 126.445312 179.300781 125.101562 C 179.316406 125.09375 179.328125 125.082031 179.34375 125.074219 C 179.363281 125.058594 179.386719 125.046875 179.410156 125.027344 C 179.875 124.644531 180.363281 124.285156 180.9375 123.9375 C 184.148438 121.808594 186.808594 120.296875 189.316406 119.1875 C 192.714844 117.671875 195.785156 116.917969 198.710938 116.878906 C 202.324219 116.832031 209.21875 118.949219 210.433594 122.507812 C 205.703125 126.183594 200.597656 133.027344 197.835938 139.476562 Z M 190.945312 103.175781 C 185.457031 106.964844 186.5 112.984375 187.265625 117.375 C 187.277344 117.4375 187.292969 117.5 187.3125 117.558594 C 185 118.664062 182.539062 120.09375 179.703125 121.976562 C 179.328125 122.199219 178.949219 122.457031 178.5625 122.75 C 176.339844 121.457031 174.546875 119.453125 173.355469 116.898438 C 173.320312 116.761719 173.265625 116.632812 173.183594 116.515625 C 170.953125 111.300781 171.515625 104.738281 174.605469 100.453125 C 177.484375 96.246094 182.917969 93.421875 188.128906 93.421875 C 191.386719 93.421875 193.792969 95.578125 194.953125 96.882812 C 194.960938 96.890625 194.96875 96.894531 194.972656 96.902344 C 195.726562 97.730469 196.386719 98.691406 196.867188 99.644531 C 194.800781 100.675781 192.847656 101.835938 190.945312 103.175781 Z M 143.882812 118.777344 C 145.277344 120.925781 146.992188 122.785156 148.917969 124.25 C 146.683594 126.269531 145.546875 129.53125 145.546875 133.980469 C 145.546875 137.605469 147.035156 140.261719 149.140625 142.289062 C 147.070312 142.003906 145.121094 142.125 143.445312 142.632812 C 140.421875 143.550781 138.402344 145.636719 137.730469 148.410156 C 136.703125 147.605469 135.507812 146.824219 134.222656 146.109375 C 130.492188 140.539062 130.761719 135.179688 131.660156 131.648438 C 132.960938 126.539062 136.386719 122.039062 140.621094 119.890625 C 141.679688 119.328125 142.777344 118.960938 143.882812 118.777344 Z M 129.414062 131.078125 C 128.257812 135.617188 128.707031 140.265625 130.652344 144.476562 C 127.667969 143.355469 123.722656 142.464844 119.582031 143.179688 C 119.558594 143.15625 119.535156 143.128906 119.503906 143.105469 C 115.683594 140.09375 115.316406 133.707031 116.59375 129.039062 C 117.035156 127.375 117.671875 125.902344 118.414062 124.792969 C 120.945312 121.175781 124.003906 117.238281 128.308594 116.292969 C 131.253906 115.628906 134.421875 116.4375 137.960938 118.765625 C 133.914062 121.429688 130.710938 125.992188 129.414062 131.078125 Z M 107.46875 127.878906 C 109.851562 128.957031 112.117188 129.621094 114.035156 129.816406 C 113.0625 134.632812 113.644531 140.320312 116.945312 143.867188 C 116.175781 144.136719 115.421875 144.464844 114.691406 144.847656 C 106.988281 141.808594 100.867188 138.214844 96.921875 134.417969 C 97.246094 129.191406 102.46875 128.265625 107.46875 127.878906 Z M 119.140625 145.628906 C 124.71875 144.332031 130.132812 146.558594 132.851562 147.996094 C 134.761719 149.03125 136.5 150.273438 137.664062 151.421875 C 130.398438 149.953125 123.738281 148.144531 117.804688 146.019531 C 118.246094 145.871094 118.691406 145.734375 119.140625 145.628906 Z M 140.988281 152.066406 C 140.769531 151.539062 140.375 150.960938 139.800781 150.3125 C 139.875 147.609375 141.390625 145.675781 144.113281 144.851562 C 149.417969 143.246094 157.984375 146.230469 163.453125 154.929688 C 163.464844 154.949219 163.476562 154.972656 163.488281 154.992188 C 155.539062 154.351562 147.984375 153.371094 140.988281 152.066406 Z M 166.308594 155.203125 C 166.167969 154.953125 166.027344 154.703125 165.882812 154.460938 C 167.183594 153.179688 168.960938 151.921875 170.996094 150.855469 C 173.484375 149.535156 176.25 148.511719 178.398438 148.121094 C 190.894531 145.839844 196.195312 153.371094 196.875 154.4375 C 196.878906 154.445312 196.886719 154.457031 196.894531 154.46875 C 196.902344 154.484375 196.90625 154.5 196.914062 154.511719 C 197.089844 154.835938 197.285156 155.136719 197.484375 155.429688 C 187.28125 155.957031 176.339844 155.882812 166.308594 155.203125 Z M 240.464844 140.980469 C 244.054688 136.214844 243.089844 129.875 240.878906 125.242188 C 242.402344 123.789062 244.582031 122.996094 247.101562 122.996094 C 249.1875 123.015625 251.316406 123.558594 253.09375 124.523438 C 254.5 125.289062 255.613281 126.261719 256.328125 127.359375 C 256.53125 127.652344 256.699219 127.972656 256.824219 128.292969 C 258.46875 132.671875 258.515625 139.730469 255.792969 143.695312 C 249.046875 146.617188 240.808594 149.140625 231.738281 151.066406 C 235.285156 147.664062 238.316406 143.824219 240.464844 140.980469 Z M 229.011719 89.214844 C 229.238281 90.535156 229.230469 91.890625 228.992188 93.144531 C 228.773438 94.34375 228.316406 95.390625 227.703125 96.09375 C 227.667969 96.136719 227.640625 96.183594 227.609375 96.230469 C 223.691406 94.6875 219.082031 94.859375 214.90625 95.078125 C 218.386719 91.558594 220.726562 85.527344 220.410156 81.132812 C 225.726562 80.902344 228.363281 85.226562 229.011719 89.214844 Z M 217.972656 80.351562 C 219.015625 85.046875 214.761719 94.269531 210.050781 95.5 C 210.023438 95.507812 210 95.519531 209.972656 95.53125 C 206.105469 96.074219 202.492188 97.101562 198.964844 98.652344 C 198.511719 97.742188 197.929688 96.839844 197.257812 96.011719 C 200.1875 90.957031 200.871094 80.242188 200.867188 78.410156 C 200.902344 77.582031 200.867188 76.738281 200.765625 75.898438 C 203.277344 74.710938 204.929688 72.6875 205.601562 69.980469 C 211.972656 70.320312 216.707031 75.496094 217.972656 80.351562 Z M 177.167969 47.75 C 183.132812 43.933594 188.746094 45.964844 192.410156 48.34375 C 199.410156 52.894531 204.5 62.15625 203.523438 68.578125 C 203.195312 70.832031 202.105469 72.488281 200.296875 73.523438 C 198.679688 67.792969 193.714844 64.136719 186.992188 63.878906 C 177.675781 63.722656 171.089844 69.042969 168.808594 78.609375 C 162.316406 74.535156 163.179688 67.851562 165.160156 62.816406 C 167.421875 57.023438 172.359375 50.828125 177.167969 47.75 Z M 149.714844 62.535156 C 153.988281 59.328125 158.910156 59.433594 162.730469 62.738281 C 159.84375 70.789062 161.871094 77.375 168.347656 81.011719 C 167.882812 84.117188 167.851562 87.511719 168.246094 90.851562 C 167.480469 90.457031 166.699219 90.128906 165.945312 89.886719 C 163.511719 78.808594 154.972656 72.226562 147.566406 71.839844 C 147.539062 71.683594 147.484375 71.53125 147.390625 71.390625 C 145.511719 68.574219 147.148438 64.585938 149.714844 62.535156 Z M 135.421875 80.65625 C 138.195312 76.160156 143.417969 74.636719 144.917969 74.28125 C 145.378906 74.191406 145.902344 74.140625 146.507812 74.140625 C 152.835938 73.992188 160.78125 79.621094 163.402344 89.230469 C 156.699219 87.800781 150.285156 88.980469 145.941406 92.550781 C 143.921875 94.3125 142.386719 96.53125 141.40625 99.042969 C 139.667969 96.722656 136.59375 92.886719 134.128906 91.242188 C 133.222656 87.089844 133.652344 83.527344 135.421875 80.65625 Z M 121.019531 89.945312 C 125.097656 89.660156 129.152344 90.722656 132.519531 92.964844 C 135.023438 94.433594 138.933594 99.523438 140.574219 101.832031 C 139.539062 106.601562 140.308594 112 142.667969 116.664062 C 141.835938 116.863281 141.023438 117.148438 140.226562 117.515625 C 136.074219 114.53125 132.273438 113.328125 128.652344 113.871094 C 126.132812 109.921875 119.15625 105.53125 114.300781 104.171875 C 112.667969 103.722656 110.875 103.5 109.054688 103.5 C 108.703125 101.84375 108.847656 100.171875 109.488281 98.515625 C 111.167969 94.109375 116.238281 90.34375 121.019531 89.945312 Z M 92.71875 151.222656 C 96.253906 153.835938 100.414062 156.300781 105.160156 158.589844 C 104.074219 159.5 103.300781 160.777344 102.882812 162.390625 C 101.570312 167.464844 104.058594 175.65625 108.378906 180.929688 C 108.199219 181.082031 108.0625 181.285156 108 181.53125 C 107.324219 184.257812 104.921875 184.621094 103.410156 184.5625 C 99.886719 170.65625 96.371094 159.679688 92.71875 151.222656 Z M 260.496094 159.546875 C 263.527344 161.171875 264.355469 164.34375 264.5 166.773438 C 264.84375 172.589844 261.617188 179.445312 257.308594 182.054688 C 254.886719 183.523438 252.398438 183.566406 249.902344 182.203125 C 249.035156 179.492188 247.167969 177.3125 244.574219 175.96875 C 244.503906 175.789062 244.394531 175.625 244.238281 175.496094 C 242.496094 174.050781 242.394531 168.203125 244.070312 165.871094 C 244.140625 165.769531 244.191406 165.65625 244.226562 165.546875 C 250.144531 163.769531 255.609375 161.757812 260.496094 159.546875 Z M 242.777344 196.09375 C 240.421875 197.78125 236.953125 198.75 233.261719 198.75 C 227.222656 198.75 221.859375 196.238281 219.503906 192.191406 C 219.441406 192.082031 219.378906 191.976562 219.300781 191.800781 C 218.179688 189.613281 218.117188 187.511719 219.117188 185.558594 C 220.621094 182.605469 224.480469 179.972656 229.71875 178.328125 C 232.640625 177.394531 235.699219 176.878906 238.328125 176.878906 C 239.679688 176.878906 240.882812 177.023438 241.78125 177.28125 C 242.171875 177.40625 242.539062 177.550781 242.917969 177.726562 C 245.402344 178.816406 247.074219 180.691406 247.78125 183.164062 C 247.785156 183.179688 247.78125 183.191406 247.785156 183.203125 L 247.785156 183.648438 L 247.929688 183.734375 C 248.960938 188.121094 246.894531 193.144531 242.777344 196.09375 Z M 241.167969 174.78125 C 238.246094 174.304688 234.210938 174.664062 230.3125 175.734375 C 230.066406 173.75 229.160156 171.171875 227.597656 169.613281 C 232.347656 168.691406 236.921875 167.617188 241.25 166.410156 C 240.382812 168.90625 240.296875 172.296875 241.167969 174.78125 Z M 224.148438 170.253906 C 224.320312 170.421875 224.542969 170.542969 224.796875 170.582031 C 226.484375 170.828125 227.917969 174.207031 228.054688 176.4375 C 222.71875 178.292969 218.734375 181.199219 217.050781 184.503906 C 215.988281 186.589844 215.824219 188.847656 216.523438 191.089844 C 216.261719 191.097656 215.996094 191.101562 215.722656 191.101562 C 210.121094 191.101562 201 188.566406 200.269531 181.765625 C 201.675781 178.980469 201.191406 175.5625 200.074219 173.4375 C 200.019531 173.339844 199.964844 173.25 199.910156 173.15625 C 208.308594 172.617188 216.445312 171.640625 224.148438 170.253906 Z M 196.441406 173.367188 C 196.59375 173.394531 196.753906 173.386719 196.917969 173.335938 C 196.929688 173.332031 196.945312 173.332031 196.957031 173.328125 C 197.105469 173.34375 197.566406 173.652344 198.023438 174.519531 C 198.949219 176.273438 199.234375 179.101562 197.984375 181.113281 C 197.839844 181.351562 197.671875 181.570312 197.460938 181.800781 C 194.296875 185.324219 188.726562 186.210938 184.828125 185.886719 C 181.09375 183.640625 175.640625 182.050781 170.761719 181.796875 L 170.722656 181.789062 C 168.992188 181.25 166.597656 178.339844 165.71875 175.671875 C 165.285156 174.34375 165.394531 173.554688 165.621094 173.28125 C 165.691406 173.199219 165.738281 173.105469 165.78125 173.011719 C 171.640625 173.460938 177.707031 173.699219 183.839844 173.699219 C 188.082031 173.699219 192.316406 173.585938 196.441406 173.367188 Z M 159.339844 190.265625 C 159.640625 188.355469 160.53125 186.929688 162.0625 185.898438 C 163.828125 184.710938 166.414062 184.085938 169.546875 184.085938 C 169.835938 184.085938 170.132812 184.089844 170.421875 184.101562 L 170.433594 184.105469 C 170.511719 184.121094 170.59375 184.128906 170.660156 184.128906 C 170.691406 184.128906 170.71875 184.121094 170.75 184.117188 C 175.359375 184.375 180.496094 185.898438 183.914062 188.039062 C 184.691406 188.511719 185.367188 189.03125 185.898438 189.5625 C 188.445312 192.246094 189.199219 195.535156 188.011719 198.824219 C 186.554688 202.867188 182.421875 205.960938 177.726562 206.523438 C 177.28125 206.578125 176.828125 206.601562 176.367188 206.601562 C 168.957031 206.601562 159.394531 199.761719 159.214844 192.0625 C 159.195312 191.429688 159.234375 190.835938 159.339844 190.265625 Z M 163.519531 176.398438 C 164.132812 178.261719 165.402344 180.371094 166.933594 181.921875 C 164.488281 182.210938 162.367188 182.902344 160.769531 183.976562 C 158.984375 185.175781 157.8125 186.824219 157.269531 188.871094 C 154.015625 188.542969 150.609375 186.554688 150.386719 184.027344 C 152.402344 180.121094 152.65625 174.863281 150.5 171.378906 C 154.601562 171.96875 158.886719 172.449219 163.292969 172.816406 C 162.988281 173.773438 163.054688 174.984375 163.519531 176.398438 Z M 146.734375 170.804688 C 146.746094 170.8125 146.753906 170.820312 146.765625 170.828125 C 150.289062 172.898438 150.425781 179.199219 148.179688 183.261719 C 148 183.605469 147.796875 183.90625 147.570312 184.214844 C 146.582031 185.585938 145.261719 186.453125 143.625 186.796875 C 139.257812 187.769531 133.863281 184.824219 131.757812 183.519531 C 129.511719 182.085938 127.367188 180.246094 125.664062 178.3125 C 125.566406 178.042969 125.371094 177.824219 125.125 177.6875 C 123.234375 175.429688 121.101562 172.050781 121.101562 168.273438 C 121.101562 167.136719 122.066406 165.960938 122.746094 165.304688 C 130.105469 167.582031 138.171875 169.429688 146.734375 170.804688 Z M 118.292969 185.226562 C 119.621094 182.566406 121.582031 180.835938 124.105469 180.046875 C 125.917969 182.0625 128.164062 183.972656 130.523438 185.484375 C 133.003906 187.015625 137.4375 189.308594 141.765625 189.308594 C 142.375 189.308594 142.984375 189.261719 143.582031 189.164062 C 144.238281 189.652344 144.6875 190.542969 144.914062 191.820312 C 145.585938 195.59375 143.976562 201.457031 142.238281 203.4375 C 136.992188 209.445312 128.148438 208.816406 122.472656 205.15625 C 117.011719 201.804688 114.941406 191.933594 118.292969 185.226562 Z M 122.523438 178.144531 C 120.097656 179.125 118.109375 180.894531 116.679688 183.347656 C 114.402344 183.507812 112.3125 181.808594 110.941406 180.347656 C 106.636719 175.746094 103.921875 167.628906 105.125 162.972656 C 105.539062 161.371094 106.394531 160.292969 107.660156 159.75 C 111.617188 161.503906 115.859375 163.113281 120.300781 164.542969 C 119.546875 165.472656 118.785156 166.777344 118.785156 168.277344 C 118.785156 171.507812 120.074219 174.894531 122.523438 178.144531 Z M 249.683594 257.792969 C 244.714844 285.789062 240.425781 309.96875 236.300781 316.160156 C 228.03125 328.625 210.382812 334.945312 183.839844 334.945312 C 157.320312 334.945312 139.667969 328.625 131.378906 316.160156 C 127.273438 309.976562 123.039062 285.925781 118.132812 258.070312 C 114.109375 235.214844 109.554688 209.378906 103.988281 186.882812 C 106.9375 186.796875 109.160156 185.292969 110.054688 182.730469 C 111.863281 184.425781 113.742188 185.40625 115.589844 185.625 C 112.628906 193.304688 115.15625 203.382812 121.238281 207.117188 C 124.257812 209.0625 128.078125 210.246094 131.914062 210.242188 C 136.308594 210.242188 140.726562 208.691406 143.980469 204.960938 C 146.097656 202.554688 148.003906 195.972656 147.195312 191.414062 C 146.984375 190.21875 146.582031 189.214844 146.027344 188.421875 C 147.058594 187.945312 147.972656 187.277344 148.757812 186.414062 C 150.179688 189.015625 153.554688 190.792969 156.914062 191.164062 C 156.898438 191.480469 156.886719 191.800781 156.898438 192.128906 C 157.109375 201.167969 167.777344 208.917969 176.367188 208.917969 C 176.921875 208.917969 177.46875 208.886719 178 208.824219 C 183.632812 208.148438 188.417969 204.53125 190.191406 199.609375 C 191.628906 195.621094 190.753906 191.492188 187.792969 188.210938 C 191.421875 187.964844 195.523438 186.804688 198.417969 184.121094 C 200.648438 190.894531 209.652344 193.421875 215.722656 193.421875 C 216.140625 193.421875 216.53125 193.417969 216.925781 193.394531 C 217.113281 193.382812 217.285156 193.324219 217.433594 193.238281 C 217.480469 193.316406 217.53125 193.40625 217.59375 193.515625 C 220.835938 199.082031 227.8125 201.066406 233.261719 201.066406 C 237.488281 201.066406 241.34375 199.96875 244.128906 197.976562 C 248.457031 194.875 250.859375 189.78125 250.46875 184.984375 C 251.476562 185.335938 252.492188 185.515625 253.503906 185.515625 C 255.199219 185.515625 256.878906 185.023438 258.507812 184.039062 C 263.5625 180.976562 267.210938 173.332031 266.8125 166.636719 C 266.597656 163.050781 265.246094 160.203125 262.953125 158.390625 C 267.605469 156.117188 271.691406 153.667969 275.164062 151.078125 C 264.039062 176.90625 256.121094 221.523438 249.683594 257.792969 Z M 286.710938 129.988281 C 286.238281 135.589844 283.152344 141.015625 277.539062 146.125 C 273.160156 150.128906 267.304688 153.84375 260.140625 157.167969 C 260.078125 157.191406 260.019531 157.21875 259.960938 157.25 C 254.820312 159.601562 249 161.734375 242.664062 163.597656 C 237.066406 165.242188 231.011719 166.660156 224.660156 167.808594 C 215.917969 169.429688 206.601562 170.507812 196.964844 171.011719 C 196.878906 171.011719 196.761719 171.015625 196.625 171.039062 C 186.175781 171.605469 175.097656 171.464844 164.863281 170.621094 C 158.824219 170.152344 153 169.46875 147.558594 168.59375 C 138.691406 167.191406 130.367188 165.277344 122.8125 162.90625 C 117.660156 161.320312 112.773438 159.5 108.285156 157.492188 C 108.230469 157.460938 108.179688 157.441406 108.121094 157.421875 C 100.8125 154.085938 94.839844 150.351562 90.367188 146.328125 C 90.363281 146.324219 90.359375 146.320312 90.355469 146.316406 C 90.355469 146.3125 90.351562 146.3125 90.351562 146.308594 C 84.621094 141.144531 81.464844 135.652344 80.972656 129.988281 C 80.042969 119 89.152344 108.46875 106.675781 100.179688 C 106.511719 101.320312 106.527344 102.46875 106.726562 103.601562 C 102.3125 104.035156 98.65625 105.726562 96.585938 108.320312 C 95.613281 109.476562 95 110.742188 94.75 112.082031 C 91.101562 115.804688 89.246094 119.746094 89.246094 123.804688 C 89.246094 127.875 91.113281 131.824219 94.789062 135.550781 C 94.828125 135.601562 94.867188 135.65625 94.914062 135.703125 C 99.210938 139.996094 105.742188 143.867188 114.335938 147.203125 C 121.714844 150.066406 130.289062 152.421875 139.820312 154.207031 C 139.820312 154.207031 139.820312 154.210938 139.824219 154.210938 C 139.828125 154.210938 139.832031 154.210938 139.835938 154.210938 C 147.753906 155.722656 156.398438 156.820312 165.527344 157.472656 C 171.421875 157.890625 177.582031 158.105469 183.84375 158.105469 C 189.363281 158.105469 194.820312 157.9375 200.0625 157.613281 C 209.871094 156.992188 219.09375 155.863281 227.492188 154.269531 C 227.734375 154.308594 227.980469 154.265625 228.199219 154.140625 C 239.152344 152.074219 249.125 149.152344 257.054688 145.675781 C 257.128906 145.644531 257.199219 145.605469 257.261719 145.558594 C 266.496094 141.492188 273.046875 136.601562 276.203125 131.40625 C 277.703125 128.945312 278.460938 126.386719 278.460938 123.804688 C 278.460938 122.375 278.210938 120.953125 277.75 119.554688 C 279.054688 118.265625 280.441406 116.875 281.851562 115.441406 C 285.515625 120.160156 287.148438 125.046875 286.710938 129.988281 Z M 281.105469 112.890625 C 279.214844 114.828125 277.320312 116.722656 275.613281 118.410156 C 275.609375 118.414062 275.609375 118.414062 275.605469 118.417969 C 272.984375 121.023438 270.835938 123.117188 269.84375 124.082031 C 269.09375 123.710938 268.316406 123.390625 267.527344 123.132812 C 273.726562 117.65625 287.84375 104.957031 293.808594 97.695312 C 293.585938 98.578125 293.28125 99.382812 292.882812 100.015625 C 291.796875 101.75 287.613281 106.324219 281.105469 112.890625 Z M 218.046875 229.242188 C 218.601562 229.242188 219.148438 229.210938 219.679688 229.148438 C 225.3125 228.472656 230.097656 224.855469 231.871094 219.933594 C 233.347656 215.839844 232.394531 211.59375 229.238281 208.269531 C 225.796875 204.808594 217.835938 202.097656 211.117188 202.097656 C 207.570312 202.097656 204.570312 202.863281 202.445312 204.300781 C 199.816406 206.074219 198.480469 208.894531 198.574219 212.453125 C 198.789062 221.492188 209.460938 229.242188 218.046875 229.242188 Z M 200.894531 212.394531 C 200.816406 209.625 201.773438 207.550781 203.746094 206.222656 C 205.484375 205.042969 208.035156 204.417969 211.117188 204.417969 C 217.195312 204.417969 224.585938 206.878906 227.578125 209.886719 C 230.125 212.570312 230.878906 215.859375 229.691406 219.148438 C 228.234375 223.191406 224.101562 226.28125 219.40625 226.84375 C 218.960938 226.898438 218.507812 226.925781 218.046875 226.925781 C 210.636719 226.925781 201.074219 220.082031 200.894531 212.394531 Z M 157.242188 235.863281 C 158.539062 235.863281 159.773438 235.714844 160.917969 235.421875 C 166.398438 234.007812 170.652344 229.796875 171.75 224.699219 C 172.671875 220.429688 171.144531 216.324219 167.539062 213.425781 C 164.429688 211.058594 158.382812 209.46875 152.488281 209.46875 C 147.257812 209.46875 142.960938 210.738281 140.394531 213.042969 C 138.027344 215.15625 137.082031 218.125 137.660156 221.628906 C 139.046875 230.015625 149.09375 235.863281 157.242188 235.863281 Z M 141.941406 214.769531 C 144.082031 212.84375 147.832031 211.785156 152.488281 211.785156 C 157.828125 211.785156 163.441406 213.21875 166.109375 215.25 C 169.027344 217.59375 170.226562 220.777344 169.488281 224.210938 C 168.585938 228.394531 164.90625 232 160.339844 233.179688 C 159.390625 233.421875 158.347656 233.542969 157.242188 233.542969 C 150.035156 233.542969 141.109375 228.285156 139.945312 221.25 C 139.496094 218.53125 140.164062 216.351562 141.941406 214.769531 Z M 190.972656 233.558594 C 184.078125 233.152344 170.34375 240.125 168.238281 248.429688 C 167.460938 251.511719 168.34375 254.496094 170.789062 257.0625 C 173.488281 259.9375 177.683594 261.523438 182.597656 261.523438 C 188.558594 261.523438 194.507812 259.152344 197.75 255.484375 C 201.507812 251.257812 202.683594 245.398438 200.75 240.558594 C 199.132812 236.5 195.578125 233.949219 190.972656 233.558594 Z M 196.019531 253.949219 C 193.191406 257.140625 187.925781 259.203125 182.597656 259.203125 C 178.328125 259.203125 174.734375 257.878906 172.472656 255.472656 C 170.546875 253.449219 169.894531 251.332031 170.484375 249 C 172.203125 242.226562 184.148438 235.859375 190.378906 235.859375 C 190.539062 235.859375 190.691406 235.867188 190.808594 235.871094 C 194.53125 236.1875 197.296875 238.160156 198.601562 241.417969 C 200.183594 245.390625 199.148438 250.425781 196.019531 253.949219 Z M 155.753906 258.304688 C 152.734375 254.09375 143.75 249.382812 136.253906 249.382812 C 134.078125 249.382812 132.179688 249.785156 130.605469 250.578125 C 127.824219 252 126.203125 254.535156 125.789062 258.105469 C 125.304688 262.246094 126.898438 266.667969 130.277344 270.558594 C 133.988281 274.832031 139.121094 277.554688 143.664062 277.660156 L 143.996094 277.664062 C 149.289062 277.664062 154.230469 274.785156 156.582031 270.335938 C 158.628906 266.460938 158.332031 262.082031 155.753906 258.304688 Z M 154.535156 269.253906 C 152.582031 272.953125 148.445312 275.34375 143.996094 275.34375 L 143.71875 275.339844 C 139.863281 275.253906 135.273438 272.777344 132.023438 269.039062 C 129.121094 265.695312 127.6875 261.808594 128.089844 258.371094 C 128.414062 255.578125 129.582031 253.707031 131.65625 252.644531 C 132.898438 252.019531 134.441406 251.703125 136.253906 251.703125 C 142.960938 251.703125 151.230469 255.976562 153.855469 259.632812 C 155.949219 262.699219 156.191406 266.117188 154.535156 269.253906 Z M 168.09375 287.160156 C 165.925781 287.160156 164.03125 287.5625 162.46875 288.351562 C 159.710938 289.746094 158.035156 292.347656 157.625 295.878906 C 157.136719 300.019531 158.730469 304.441406 162.101562 308.324219 C 165.820312 312.601562 170.964844 315.328125 175.519531 315.433594 L 175.851562 315.4375 C 175.855469 315.4375 175.855469 315.4375 175.855469 315.4375 C 181.136719 315.4375 186.066406 312.570312 188.417969 308.140625 C 190.472656 304.265625 190.183594 299.878906 187.605469 296.074219 C 184.554688 291.867188 175.5625 287.160156 168.09375 287.160156 Z M 186.371094 307.054688 C 184.417969 310.738281 180.289062 313.117188 175.855469 313.117188 L 175.574219 313.113281 C 171.707031 313.027344 167.105469 310.546875 163.851562 306.800781 C 160.953125 303.464844 159.523438 299.585938 159.925781 296.144531 C 160.246094 293.386719 161.453125 291.460938 163.511719 290.417969 C 164.75 289.796875 166.292969 289.476562 168.09375 289.476562 C 174.777344 289.476562 183.0625 293.753906 185.710938 297.402344 C 187.800781 300.488281 188.035156 303.914062 186.371094 307.054688 Z M 228.691406 255.550781 C 222.304688 255.550781 209.394531 262.445312 206.933594 269.78125 C 205.96875 272.632812 206.585938 275.359375 208.703125 277.652344 C 210.855469 280.007812 214.328125 281.304688 218.480469 281.304688 C 224.15625 281.304688 230.257812 278.882812 233.660156 275.28125 C 237.589844 271.140625 239.039062 265.425781 237.269531 261.0625 C 235.914062 257.722656 232.839844 255.714844 228.691406 255.550781 Z M 231.976562 273.6875 C 228.984375 276.859375 223.5625 278.988281 218.480469 278.988281 C 214.984375 278.984375 212.121094 277.957031 210.410156 276.085938 C 208.851562 274.398438 208.433594 272.578125 209.128906 270.519531 C 211.273438 264.117188 223.066406 257.867188 228.742188 257.867188 C 231.84375 257.992188 234.109375 259.4375 235.121094 261.933594 C 236.558594 265.46875 235.292969 270.191406 231.976562 273.6875 Z M 231.976562 273.6875 " fill-opacity="1" fill-rule="nonzero"/></g></svg>