<svg xmlns="http://www.w3.org/2000/svg" xmlns:xlink="http://www.w3.org/1999/xlink" width="500" zoomAndPan="magnify" viewBox="0 0 375 374.999991" height="500" preserveAspectRatio="xMidYMid meet" version="1.0"><defs><clipPath id="id1"><path d="M 113 37.5 L 261 37.5 L 261 312 L 113 312 Z M 113 37.5 " clip-rule="nonzero"/></clipPath><clipPath id="id2"><path d="M 146 299 L 230 299 L 230 337.5 L 146 337.5 Z M 146 299 " clip-rule="nonzero"/></clipPath></defs><path fill="#bcbcbb" d="M 148.835938 297.636719 C 151.523438 296.761719 154.335938 296.324219 157.085938 296.011719 C 163.585938 295.324219 170.148438 295.386719 176.648438 295.449219 C 189.210938 295.636719 201.835938 295.761719 214.398438 295.949219 C 218.398438 296.011719 222.523438 296.074219 226.398438 297.199219 C 227.082031 297.386719 229.082031 298.515625 229.082031 299.265625 C 229.082031 301.453125 228.957031 300.265625 228.394531 301.203125 C 227.894531 302.144531 227.019531 302.832031 226.144531 303.394531 C 217.898438 309.089844 207.335938 310.027344 197.398438 311.09375 C 188.585938 312.03125 179.773438 313.09375 170.960938 312.15625 C 162.085938 311.21875 153.710938 308.027344 147.085938 301.894531 C 146.210938 301.078125 146.210938 300.703125 146.210938 299.515625 C 146.273438 298.828125 147.773438 298.011719 148.835938 297.636719 Z M 148.835938 297.636719 " fill-opacity="1" fill-rule="nonzero"/><g clip-path="url(#id1)"><path fill="#e03822" d="M 259.457031 204.457031 C 253.894531 187.75 239.582031 186.3125 239.269531 174.359375 C 238.832031 157.210938 250.769531 159.027344 258.144531 134.621094 C 264.019531 114.972656 251.144531 46.199219 244.957031 43.195312 C 233.957031 37.9375 187.023438 37.5 187.023438 37.5 C 187.023438 37.5 140.085938 37.9375 129.085938 43.195312 C 122.898438 46.199219 110.023438 114.972656 115.898438 134.621094 C 123.210938 159.027344 135.210938 157.210938 134.773438 174.359375 C 134.460938 186.3125 120.210938 187.75 114.585938 204.457031 C 112.585938 210.402344 113.273438 253.207031 118.523438 265.097656 C 123.773438 276.988281 144.085938 288.25 146.273438 291.753906 C 148.460938 295.257812 147.898438 305.523438 147.898438 305.523438 L 186.960938 311.21875 L 226.023438 305.523438 C 226.023438 305.523438 225.460938 295.324219 227.644531 291.753906 C 229.832031 288.25 250.144531 276.925781 255.394531 265.097656 C 260.769531 253.207031 261.394531 210.402344 259.457031 204.457031 Z M 259.457031 204.457031 " fill-opacity="1" fill-rule="nonzero"/></g><path fill="#b7281d" d="M 260.207031 204.457031 C 254.644531 187.75 240.332031 186.3125 240.019531 174.359375 C 239.582031 157.210938 251.519531 159.027344 258.894531 134.621094 C 264.769531 114.972656 251.894531 46.199219 245.707031 43.195312 C 242.832031 41.816406 237.519531 40.753906 231.207031 40.003906 C 237.644531 49.140625 248.894531 111.78125 243.332031 130.367188 C 236.019531 154.773438 227.207031 152.894531 227.644531 170.039062 C 227.957031 181.992188 239.082031 183.496094 244.644531 200.203125 C 246.644531 206.148438 245.957031 248.953125 240.707031 260.839844 C 235.457031 272.730469 215.148438 283.996094 212.960938 287.5 C 210.773438 291.003906 211.335938 301.265625 211.335938 301.265625 L 172.273438 306.960938 L 148.773438 303.519531 C 148.773438 304.710938 148.710938 305.460938 148.710938 305.460938 L 187.773438 311.15625 L 226.832031 305.460938 C 226.832031 305.460938 226.273438 295.257812 228.457031 291.691406 C 230.644531 288.1875 250.957031 276.863281 256.207031 265.035156 C 261.519531 253.207031 262.207031 210.402344 260.207031 204.457031 Z M 260.207031 204.457031 " fill-opacity="1" fill-rule="nonzero"/><g clip-path="url(#id2)"><path fill="#e6d8d4" d="M 208.398438 304.898438 C 196.585938 305.710938 179.398438 305.773438 167.585938 304.898438 C 145.023438 303.207031 146.273438 299.578125 146.273438 299.578125 C 146.273438 299.578125 145.710938 323.859375 148.335938 328.175781 C 150.960938 332.492188 162.523438 335.496094 170.023438 336.5 C 177.523438 337.5 198.460938 337.5 205.898438 336.5 C 213.398438 335.496094 224.960938 332.492188 227.582031 328.175781 C 230.207031 323.859375 229.082031 299.265625 229.082031 299.265625 C 229.082031 299.265625 229.457031 303.457031 208.398438 304.898438 Z M 208.398438 304.898438 " fill-opacity="1" fill-rule="nonzero"/></g><path fill="#e6d8d4" d="M 220.273438 173.484375 C 219.335938 146.324219 241.457031 128.175781 236.707031 115.972656 C 232.894531 106.148438 208.835938 105.835938 208.835938 105.835938 C 208.835938 105.835938 210.085938 95.574219 200.710938 89.753906 C 191.335938 83.996094 179.460938 84.058594 170.148438 90.066406 C 160.835938 96.074219 162.273438 106.335938 162.273438 106.335938 C 162.273438 106.335938 137.523438 107.460938 133.835938 117.351562 C 129.273438 129.675781 152.335938 147.074219 151.835938 174.296875 C 151.335938 201.140625 139.210938 224.296875 139.210938 224.296875 C 139.210938 224.296875 152.648438 233.308594 166.148438 236.875 C 176.523438 239.566406 197.773438 239.191406 208.085938 236.1875 C 221.585938 232.304688 234.019531 222.292969 234.019531 222.292969 C 234.019531 222.292969 221.148438 200.265625 220.273438 173.484375 Z M 220.273438 173.484375 " fill-opacity="1" fill-rule="nonzero"/><path fill="#64995f" d="M 184.523438 234.496094 C 178.210938 234.496094 172.460938 233.996094 168.898438 233.121094 C 156.148438 230.054688 146.335938 223.355469 145.898438 223.105469 C 145.398438 222.792969 145.210938 222.105469 145.460938 221.542969 C 145.585938 221.292969 155.835938 197.886719 156.210938 174.359375 C 156.398438 161.40625 150.023438 149.828125 144.898438 140.566406 C 140.210938 132.179688 136.585938 125.546875 138.335938 119.976562 C 139.648438 115.847656 145.023438 112.78125 154.273438 110.902344 C 159.210938 109.902344 163.835938 109.527344 166.023438 109.402344 C 166.023438 106.460938 166.648438 99.578125 172.773438 95.007812 C 176.585938 92.128906 181.023438 90.628906 185.585938 90.628906 C 189.960938 90.628906 194.273438 92.003906 198.023438 94.695312 C 204.210938 99.078125 204.960938 105.960938 204.960938 108.902344 C 210.585938 109.027344 230.207031 110.027344 233.019531 118.476562 C 234.894531 123.984375 231.457031 130.992188 227.082031 139.816406 C 222.335938 149.453125 216.398438 161.46875 216.773438 174.359375 C 217.460938 197.886719 227.644531 219.164062 227.769531 219.414062 C 228.019531 219.976562 227.894531 220.605469 227.394531 220.980469 C 226.957031 221.292969 216.335938 229.425781 203.648438 232.742188 C 199.210938 233.808594 192.085938 234.496094 184.523438 234.496094 Z M 148.210938 221.605469 C 150.835938 223.292969 159.335938 228.238281 169.523438 230.679688 C 172.960938 231.492188 178.460938 231.992188 184.585938 231.992188 C 191.835938 231.992188 198.835938 231.304688 202.960938 230.242188 C 213.210938 227.550781 222.273438 221.417969 225.023438 219.476562 C 223.023438 215.035156 214.835938 195.574219 214.210938 174.359375 C 213.835938 160.839844 219.898438 148.515625 224.773438 138.625 C 228.707031 130.617188 232.144531 123.734375 230.582031 119.226562 C 228.394531 112.78125 210.398438 111.40625 203.648438 111.40625 C 203.273438 111.40625 202.960938 111.28125 202.710938 110.96875 C 202.460938 110.714844 202.335938 110.339844 202.398438 109.964844 C 202.398438 109.902344 203.210938 101.390625 196.585938 96.699219 C 193.273438 94.320312 189.460938 93.132812 185.648438 93.132812 C 181.648438 93.132812 177.710938 94.445312 174.335938 97.011719 C 167.773438 101.894531 168.648438 110.339844 168.710938 110.402344 C 168.773438 110.777344 168.648438 111.09375 168.398438 111.34375 C 168.148438 111.59375 167.835938 111.78125 167.460938 111.78125 C 160.773438 112.03125 142.960938 114.097656 140.835938 120.667969 C 139.398438 125.171875 143.023438 131.679688 147.210938 139.253906 C 152.523438 148.765625 159.085938 160.652344 158.898438 174.296875 C 158.335938 195.636719 150.148438 216.785156 148.210938 221.605469 Z M 148.210938 221.605469 " fill-opacity="1" fill-rule="nonzero"/><path fill="#b7281d" d="M 162.273438 125.671875 L 162.773438 128.550781 L 160.585938 128.988281 L 162.710938 140.503906 L 158.960938 141.191406 L 156.835938 129.675781 L 154.648438 130.117188 L 154.148438 127.238281 Z M 162.273438 125.671875 " fill-opacity="1" fill-rule="nonzero"/><path fill="#b7281d" d="M 173.460938 132.804688 C 173.648438 134.246094 173.773438 135.308594 173.773438 135.933594 C 173.773438 136.5625 173.648438 137.125 173.335938 137.6875 C 173.023438 138.25 172.585938 138.6875 172.023438 139 C 171.460938 139.378906 170.773438 139.566406 169.898438 139.691406 C 169.148438 139.816406 168.398438 139.753906 167.773438 139.566406 C 167.148438 139.378906 166.585938 139.066406 166.148438 138.625 C 165.710938 138.1875 165.398438 137.625 165.273438 137.0625 C 165.148438 136.5 164.960938 135.433594 164.773438 133.933594 L 164.460938 131.429688 C 164.273438 129.992188 164.210938 128.925781 164.148438 128.300781 C 164.148438 127.675781 164.273438 127.113281 164.585938 126.546875 C 164.898438 125.984375 165.335938 125.546875 165.898438 125.234375 C 166.460938 124.859375 167.148438 124.671875 168.023438 124.546875 C 168.773438 124.421875 169.523438 124.484375 170.148438 124.671875 C 170.773438 124.859375 171.335938 125.171875 171.773438 125.609375 C 172.210938 126.046875 172.523438 126.613281 172.648438 127.175781 C 172.773438 127.738281 172.960938 128.800781 173.148438 130.304688 Z M 169.085938 128.550781 C 169.023438 127.863281 168.898438 127.425781 168.835938 127.300781 C 168.710938 127.113281 168.585938 127.050781 168.335938 127.050781 C 168.148438 127.050781 168.023438 127.175781 167.898438 127.363281 C 167.835938 127.550781 167.835938 127.988281 167.898438 128.738281 L 168.773438 135.496094 C 168.898438 136.3125 168.960938 136.875 169.085938 137.0625 C 169.148438 137.25 169.335938 137.3125 169.585938 137.3125 C 169.835938 137.25 169.960938 137.125 170.023438 136.9375 C 170.085938 136.6875 170.023438 136.1875 169.898438 135.308594 Z M 169.085938 128.550781 " fill-opacity="1" fill-rule="nonzero"/><path fill="#b7281d" d="M 186.398438 123.609375 L 187.023438 138.1875 L 183.710938 138.3125 L 183.273438 128.488281 L 182.335938 138.375 L 179.960938 138.5 L 178.148438 128.925781 L 178.523438 138.5625 L 175.210938 138.6875 L 174.585938 124.109375 L 179.460938 123.921875 C 179.648438 124.796875 179.835938 125.796875 180.023438 126.988281 L 180.710938 130.679688 L 181.273438 123.859375 Z M 186.398438 123.609375 " fill-opacity="1" fill-rule="nonzero"/><path fill="#b7281d" d="M 195.648438 124.109375 L 196.960938 138.8125 L 193.085938 138.5625 L 193.023438 135.933594 L 191.648438 135.871094 L 191.273438 138.5 L 187.335938 138.25 L 190.148438 123.796875 Z M 193.085938 133.371094 C 192.960938 131.679688 192.898438 129.675781 192.898438 127.238281 C 192.335938 129.992188 191.960938 132.054688 191.835938 133.308594 Z M 193.085938 133.371094 " fill-opacity="1" fill-rule="nonzero"/><path fill="#b7281d" d="M 205.773438 125.234375 L 205.398438 128.113281 L 203.148438 127.800781 L 201.648438 139.378906 L 197.898438 138.875 L 199.398438 127.300781 L 197.148438 126.988281 L 197.523438 124.109375 Z M 205.773438 125.234375 " fill-opacity="1" fill-rule="nonzero"/><path fill="#b7281d" d="M 214.273438 135.746094 C 213.960938 137.1875 213.710938 138.1875 213.523438 138.75 C 213.335938 139.316406 213.023438 139.816406 212.523438 140.253906 C 212.085938 140.691406 211.523438 140.941406 210.835938 141.066406 C 210.148438 141.191406 209.460938 141.191406 208.648438 141.003906 C 207.898438 140.816406 207.210938 140.566406 206.648438 140.191406 C 206.085938 139.816406 205.710938 139.316406 205.398438 138.75 C 205.148438 138.1875 205.023438 137.5625 205.085938 137 C 205.148438 136.375 205.335938 135.371094 205.648438 133.871094 L 206.148438 131.429688 C 206.460938 129.992188 206.710938 128.988281 206.898438 128.425781 C 207.085938 127.863281 207.398438 127.363281 207.898438 126.925781 C 208.335938 126.484375 208.898438 126.234375 209.585938 126.109375 C 210.273438 125.984375 210.960938 125.984375 211.773438 126.171875 C 212.523438 126.359375 213.210938 126.613281 213.773438 126.988281 C 214.335938 127.363281 214.710938 127.863281 215.023438 128.425781 C 215.273438 128.988281 215.398438 129.613281 215.335938 130.179688 C 215.273438 130.804688 215.085938 131.804688 214.773438 133.308594 Z M 211.523438 130.242188 C 211.648438 129.550781 211.710938 129.113281 211.710938 128.925781 C 211.648438 128.738281 211.523438 128.613281 211.335938 128.550781 C 211.148438 128.488281 210.960938 128.550781 210.835938 128.675781 C 210.710938 128.800781 210.585938 129.238281 210.398438 129.992188 L 208.960938 136.6875 C 208.773438 137.5 208.710938 138.0625 208.710938 138.25 C 208.710938 138.4375 208.898438 138.5625 209.148438 138.625 C 209.398438 138.6875 209.585938 138.625 209.710938 138.375 C 209.835938 138.1875 209.960938 137.625 210.148438 136.8125 Z M 211.523438 130.242188 " fill-opacity="1" fill-rule="nonzero"/><path fill="#000000" d="M 173.460938 146.949219 L 172.335938 150.390625 L 173.585938 154.582031 L 171.523438 154.582031 L 170.710938 151.265625 L 170.710938 154.582031 L 168.710938 154.582031 L 168.710938 146.886719 L 170.710938 146.886719 L 170.710938 149.890625 L 171.585938 146.886719 L 173.460938 146.886719 Z M 173.460938 146.949219 " fill-opacity="1" fill-rule="nonzero"/><path fill="#000000" d="M 173.898438 146.949219 L 177.210938 146.949219 L 177.210938 148.515625 L 175.898438 148.515625 L 175.898438 149.953125 L 177.148438 149.953125 L 177.148438 151.390625 L 175.898438 151.390625 L 175.898438 153.082031 L 177.335938 153.082031 L 177.335938 154.644531 L 173.898438 154.644531 Z M 173.898438 146.949219 " fill-opacity="1" fill-rule="nonzero"/><path fill="#000000" d="M 181.835938 146.949219 L 181.835938 148.515625 L 180.648438 148.515625 L 180.648438 154.644531 L 178.648438 154.644531 L 178.648438 148.515625 L 177.460938 148.515625 L 177.460938 146.949219 Z M 181.835938 146.949219 " fill-opacity="1" fill-rule="nonzero"/><path fill="#000000" d="M 186.898438 150.265625 L 184.898438 150.265625 L 184.898438 148.953125 C 184.898438 148.578125 184.898438 148.324219 184.835938 148.199219 C 184.773438 148.074219 184.710938 148.074219 184.523438 148.074219 C 184.335938 148.074219 184.273438 148.136719 184.210938 148.261719 C 184.148438 148.386719 184.148438 148.640625 184.148438 149.015625 L 184.148438 152.582031 C 184.148438 152.957031 184.148438 153.207031 184.210938 153.332031 C 184.273438 153.457031 184.335938 153.519531 184.523438 153.519531 C 184.648438 153.519531 184.773438 153.457031 184.835938 153.332031 C 184.898438 153.207031 184.898438 152.957031 184.898438 152.519531 L 184.898438 151.582031 L 186.898438 151.582031 L 186.898438 151.894531 C 186.898438 152.707031 186.835938 153.269531 186.710938 153.582031 C 186.585938 153.894531 186.335938 154.207031 185.960938 154.457031 C 185.585938 154.710938 185.085938 154.835938 184.523438 154.835938 C 183.960938 154.835938 183.460938 154.710938 183.085938 154.519531 C 182.710938 154.332031 182.460938 154.019531 182.335938 153.644531 C 182.210938 153.269531 182.148438 152.707031 182.148438 151.957031 L 182.148438 149.703125 C 182.148438 149.140625 182.148438 148.765625 182.210938 148.453125 C 182.273438 148.199219 182.335938 147.886719 182.523438 147.636719 C 182.710938 147.386719 182.960938 147.199219 183.335938 147.011719 C 183.648438 146.886719 184.023438 146.761719 184.460938 146.761719 C 185.023438 146.761719 185.523438 146.886719 185.898438 147.074219 C 186.273438 147.324219 186.523438 147.574219 186.648438 147.949219 C 186.773438 148.261719 186.835938 148.828125 186.835938 149.515625 L 186.835938 150.265625 Z M 186.898438 150.265625 " fill-opacity="1" fill-rule="nonzero"/><path fill="#000000" d="M 192.210938 146.949219 L 192.210938 154.644531 L 190.210938 154.644531 L 190.210938 151.390625 L 189.585938 151.390625 L 189.585938 154.644531 L 187.585938 154.644531 L 187.585938 146.949219 L 189.585938 146.949219 L 189.585938 149.703125 L 190.210938 149.703125 L 190.210938 146.949219 Z M 192.210938 146.949219 " fill-opacity="1" fill-rule="nonzero"/><path fill="#000000" d="M 197.523438 146.949219 L 197.523438 152.082031 C 197.523438 152.644531 197.523438 153.082031 197.460938 153.332031 C 197.398438 153.582031 197.335938 153.832031 197.148438 154.082031 C 196.960938 154.332031 196.710938 154.519531 196.398438 154.644531 C 196.085938 154.773438 195.710938 154.835938 195.335938 154.835938 C 194.898438 154.835938 194.460938 154.773438 194.148438 154.582031 C 193.773438 154.457031 193.523438 154.207031 193.335938 154.019531 C 193.148438 153.769531 193.085938 153.519531 193.023438 153.269531 C 192.960938 153.019531 192.960938 152.457031 192.960938 151.582031 L 192.960938 147.011719 L 194.960938 147.011719 L 194.960938 152.769531 C 194.960938 153.082031 194.960938 153.332031 195.023438 153.394531 C 195.085938 153.457031 195.148438 153.519531 195.273438 153.519531 C 195.398438 153.519531 195.460938 153.457031 195.523438 153.394531 C 195.585938 153.269531 195.585938 153.019531 195.585938 152.644531 L 195.585938 147.011719 L 197.523438 147.011719 Z M 197.523438 146.949219 " fill-opacity="1" fill-rule="nonzero"/><path fill="#000000" d="M 198.335938 146.949219 L 200.335938 146.949219 C 200.898438 146.949219 201.273438 147.011719 201.585938 147.074219 C 201.898438 147.136719 202.085938 147.261719 202.273438 147.449219 C 202.398438 147.636719 202.523438 147.824219 202.585938 148.011719 C 202.648438 148.261719 202.648438 148.578125 202.648438 149.078125 L 202.648438 149.765625 C 202.648438 150.265625 202.585938 150.640625 202.523438 150.828125 C 202.398438 151.078125 202.210938 151.203125 201.960938 151.328125 C 201.710938 151.453125 201.335938 151.515625 200.898438 151.515625 L 200.335938 151.515625 L 200.335938 154.582031 L 198.335938 154.582031 Z M 200.335938 148.261719 L 200.335938 150.203125 C 200.398438 150.203125 200.460938 150.203125 200.460938 150.203125 C 200.648438 150.203125 200.773438 150.140625 200.835938 150.078125 C 200.898438 150.015625 200.960938 149.828125 200.960938 149.515625 L 200.960938 148.890625 C 200.960938 148.640625 200.898438 148.453125 200.835938 148.386719 C 200.710938 148.261719 200.585938 148.261719 200.335938 148.261719 Z M 200.335938 148.261719 " fill-opacity="1" fill-rule="nonzero"/><path fill="#e03822" d="M 167.648438 186.5625 C 164.898438 190.503906 165.085938 196.011719 167.398438 200.203125 C 169.773438 204.394531 174.023438 207.273438 178.585938 208.714844 C 183.148438 210.152344 188.085938 210.214844 192.835938 209.714844 C 194.460938 209.589844 196.085938 209.339844 197.648438 208.902344 C 202.085938 207.585938 205.898438 204.207031 207.648438 199.953125 C 209.710938 195.007812 208.898438 188.6875 204.773438 185.246094 C 201.523438 182.492188 196.898438 181.992188 192.648438 182.242188 C 187.960938 182.492188 184.085938 182.808594 179.460938 182.054688 C 175.148438 181.367188 170.273438 182.742188 167.648438 186.5625 Z M 167.648438 186.5625 " fill-opacity="1" fill-rule="nonzero"/><path fill="#63995f" d="M 176.710938 180.179688 C 175.835938 178.988281 175.460938 177.363281 175.835938 175.921875 C 175.960938 176.738281 176.773438 177.238281 177.585938 177.550781 C 179.335938 178.300781 181.210938 178.988281 182.523438 180.429688 C 181.648438 178.363281 182.148438 175.796875 183.648438 174.171875 C 183.585938 174.734375 184.023438 175.234375 184.398438 175.609375 C 185.710938 176.988281 186.960938 178.550781 187.148438 180.492188 C 187.148438 179.425781 187.898438 178.488281 188.773438 177.800781 C 189.648438 177.175781 190.648438 176.738281 191.585938 176.171875 C 192.523438 175.609375 193.398438 174.859375 193.773438 173.859375 C 194.898438 175.796875 195.085938 178.175781 194.273438 180.242188 C 194.523438 179.300781 195.398438 178.613281 196.335938 178.238281 C 197.273438 177.863281 198.273438 177.738281 199.210938 177.488281 C 200.148438 177.238281 201.085938 176.738281 201.648438 175.859375 C 201.398438 176.925781 201.148438 177.925781 200.523438 178.800781 C 199.835938 179.742188 198.835938 180.367188 197.835938 180.929688 C 196.710938 181.554688 195.523438 182.054688 194.335938 182.429688 C 191.085938 183.308594 187.710938 182.617188 184.398438 182.679688 C 181.523438 182.679688 178.523438 182.617188 176.710938 180.179688 Z M 176.710938 180.179688 " fill-opacity="1" fill-rule="nonzero"/><path fill="#ffffff" d="M 171.960938 185.746094 C 170.335938 187.125 169.398438 189.128906 169.023438 191.191406 C 168.773438 192.507812 168.773438 193.945312 169.523438 195.070312 C 170.210938 196.199219 171.835938 196.824219 172.960938 196.136719 C 173.335938 195.886719 173.648438 195.511719 173.898438 195.132812 C 175.210938 193.195312 175.710938 190.628906 177.710938 189.503906 C 178.835938 188.875 180.210938 188.875 181.398438 188.5 C 181.898438 188.3125 182.460938 188 182.523438 187.4375 C 182.585938 187.0625 182.335938 186.6875 182.085938 186.4375 C 179.648438 183.496094 174.773438 183.371094 171.960938 185.746094 Z M 171.960938 185.746094 " fill-opacity="0.2275" fill-rule="nonzero"/><path fill="#ffffff" d="M 133.710938 67.226562 C 131.835938 75.796875 129.960938 84.496094 129.835938 93.257812 C 129.773438 95.449219 129.898438 97.699219 130.898438 99.703125 C 131.898438 101.707031 134.085938 103.394531 136.585938 103.394531 C 138.835938 103.394531 140.835938 102.082031 142.023438 100.390625 C 143.210938 98.703125 143.710938 96.761719 144.148438 94.820312 C 146.148438 85.933594 147.273438 76.800781 146.648438 67.726562 C 146.460938 65.347656 146.085938 62.78125 144.335938 60.902344 C 138.898438 55.460938 134.523438 63.34375 133.710938 67.226562 Z M 133.710938 67.226562 " fill-opacity="0.2275" fill-rule="nonzero"/><path fill="#ffffff" d="M 138.460938 47.886719 C 136.648438 48.324219 135.148438 49.703125 134.835938 51.328125 C 134.710938 51.769531 134.710938 52.269531 134.835938 52.707031 C 135.273438 54.019531 136.960938 54.710938 138.523438 54.960938 C 140.085938 55.210938 141.773438 55.273438 143.273438 54.773438 C 144.773438 54.269531 146.085938 53.269531 146.523438 51.894531 C 146.960938 50.515625 146.273438 48.890625 144.835938 48.261719 C 143.460938 47.699219 141.898438 48.136719 140.398438 48.074219 Z M 138.460938 47.886719 " fill-opacity="0.2275" fill-rule="nonzero"/><path fill="#ffffff" d="M 122.835938 237.0625 C 123.210938 239.191406 123.648438 241.316406 124.710938 243.195312 C 125.773438 245.070312 127.523438 246.636719 129.648438 247.011719 C 130.773438 247.199219 131.960938 247.011719 132.835938 246.386719 C 134.835938 244.882812 134.585938 241.941406 134.273438 239.441406 C 133.210938 231.054688 133.523438 222.480469 135.148438 214.222656 C 136.023438 209.714844 136.398438 205.210938 131.773438 202.707031 C 128.148438 200.703125 124.585938 202.457031 122.960938 206.148438 C 121.023438 210.527344 121.335938 216.785156 121.335938 221.480469 C 121.460938 226.613281 121.898438 231.867188 122.835938 237.0625 Z M 122.835938 237.0625 " fill-opacity="0.2275" fill-rule="nonzero"/><path fill="#ffffff" d="M 153.835938 308.652344 C 152.898438 309.714844 152.898438 311.34375 152.960938 312.78125 C 153.085938 316.535156 153.460938 320.226562 153.960938 323.921875 C 154.085938 324.609375 154.148438 325.296875 154.460938 325.984375 C 155.148438 327.488281 156.835938 328.363281 158.398438 328.925781 C 159.773438 329.425781 161.148438 329.867188 162.585938 330.242188 C 163.210938 330.367188 163.835938 330.492188 164.460938 330.304688 C 165.710938 329.929688 166.148438 328.300781 166.335938 326.988281 C 166.898438 322.605469 167.023438 318.226562 166.648438 313.84375 C 166.523438 312.65625 166.398438 311.46875 165.898438 310.402344 C 164.210938 307.210938 156.335938 305.835938 153.835938 308.652344 Z M 153.835938 308.652344 " fill-opacity="0.8078" fill-rule="nonzero"/><path fill="#b7281d" d="M 231.144531 272.730469 C 231.144531 272.730469 227.269531 278.613281 210.710938 282.617188 C 199.398438 285.371094 162.460938 289.0625 162.460938 289.0625 L 222.585938 290.941406 L 229.332031 282.429688 Z M 231.144531 272.730469 " fill-opacity="1" fill-rule="nonzero"/></svg>