<svg xmlns="http://www.w3.org/2000/svg" xmlns:xlink="http://www.w3.org/1999/xlink" width="500" zoomAndPan="magnify" viewBox="0 0 375 374.999991" height="500" preserveAspectRatio="xMidYMid meet" version="1.0"><path fill="#f4c242" d="M 186.808594 132.332031 C 159.515625 116.710938 132.152344 101.203125 104.699219 85.890625 C 88.710938 76.980469 72.75 67.972656 56.457031 59.632812 C 50.972656 56.820312 43.726562 51.019531 40.996094 59.359375 C 38.957031 65.582031 39.652344 73.445312 39.652344 79.859375 C 39.664062 90.964844 40.152344 102.082031 40.757812 113.183594 C 42.085938 137.625 44.03125 162.074219 46.671875 186.410156 C 47.777344 196.511719 45.570312 208.085938 58.230469 204.625 C 73.558594 200.4375 88.394531 192.632812 102.648438 185.820312 C 123.84375 175.691406 144.882812 165.007812 165.121094 153.074219 C 169.320312 150.605469 190.984375 140.671875 187.660156 133.199219 C 186.410156 130.375 182.269531 132.824219 183.519531 135.621094 C 182.78125 133.972656 182.859375 135.40625 181.382812 136.566406 C 179.402344 138.125 177.421875 139.648438 175.328125 141.070312 C 169.777344 144.835938 163.960938 148.238281 158.136719 151.574219 C 142.324219 160.652344 126.097656 169.035156 109.726562 177.070312 C 94.902344 184.351562 79.929688 191.632812 64.457031 197.421875 C 61.644531 198.480469 55.707031 201.679688 52.519531 200.917969 C 52.757812 200.972656 53.976562 202.964844 53.191406 200.699219 C 52.644531 199.140625 52.714844 197.035156 52.507812 195.375 C 51.972656 191.0625 51.507812 186.738281 51.054688 182.417969 C 48.824219 161.050781 47.105469 139.613281 45.84375 118.167969 C 44.816406 100.714844 43.042969 82.433594 44.964844 64.980469 C 45.136719 63.441406 45.035156 60.519531 46.070312 59.210938 C 45.695312 59.675781 45.339844 59.675781 45.328125 59.664062 C 45.320312 59.664062 45.75 59.664062 47.117188 60.359375 C 51.371094 62.554688 55.683594 64.613281 59.925781 66.84375 C 74.796875 74.707031 89.484375 82.910156 104.175781 91.101562 C 130.992188 106.074219 157.726562 121.21875 184.375 136.484375 C 187.070312 138.023438 189.492188 133.878906 186.808594 132.332031 " fill-opacity="1" fill-rule="nonzero"/><path fill="#e8ab10" d="M 185.613281 134.222656 C 185.613281 134.222656 49.300781 56.171875 45 56.867188 C 37.410156 58.09375 46.457031 170.039062 51.074219 202.453125 C 52.246094 210.691406 190.449219 141.503906 185.613281 134.222656 " fill-opacity="1" fill-rule="nonzero"/><path fill="#db9715" d="M 177.75 132.515625 C 175.816406 131.820312 156.238281 121.707031 152.734375 124.300781 C 151.164062 125.460938 149.101562 124.222656 147.375 122.96875 C 145.257812 121.445312 143.652344 119.921875 144.097656 122.832031 C 144.90625 128.101562 133.378906 129.613281 131.242188 128.113281 C 129.113281 126.621094 116.222656 118.566406 118.507812 132.117188 C 120.808594 145.65625 122.171875 148.386719 126.042969 148.75 C 129.910156 149.125 133.347656 148.476562 134.5625 152.164062 C 135.78125 155.851562 132.617188 154.90625 135.78125 155.851562 C 138.945312 156.804688 145.609375 156.785156 145.714844 154.835938 C 145.804688 152.902344 147.726562 149.832031 149.582031 147.410156 C 151.4375 144.984375 150.878906 143.949219 153.324219 142.230469 C 155.757812 140.511719 158.46875 139.410156 159.992188 140.398438 C 161.527344 141.378906 159.398438 146.703125 159.398438 146.703125 C 159.398438 146.703125 166.160156 147.351562 167.339844 145.191406 C 168.523438 143.015625 169.765625 140.207031 171.527344 138.75 C 173.292969 137.292969 175.886719 136.234375 177.511719 135.085938 C 179.128906 133.9375 179.765625 133.230469 177.75 132.515625 " fill-opacity="1" fill-rule="nonzero"/><path fill="#db9715" d="M 118.894531 164.109375 L 118.929688 163.894531 C 119.113281 162.4375 118.644531 160.96875 117.644531 159.890625 C 116.222656 158.351562 114.082031 156.191406 112.09375 154.859375 C 108.738281 152.585938 107.507812 155.222656 106.335938 150.492188 C 105.152344 145.746094 103.378906 143.949219 102.617188 141.605469 C 101.863281 139.261719 101.785156 136.65625 100.328125 134.882812 C 98.871094 133.128906 95.59375 129.886719 95.039062 132.433594 C 94.46875 134.984375 95.492188 134.4375 93.933594 137.214844 C 92.375 139.988281 90.636719 141.128906 89.871094 142.355469 C 89.109375 143.574219 88.859375 146.15625 86.902344 146.304688 C 85.515625 146.394531 83.523438 146.28125 82.453125 146.191406 C 82.011719 146.15625 81.578125 146.066406 81.144531 145.917969 C 79.996094 145.519531 77.597656 144.984375 79.566406 148.203125 C 80.371094 149.511719 81.132812 150.492188 81.804688 151.21875 C 83.171875 152.699219 83.582031 154.828125 82.761719 156.667969 L 82.558594 157.238281 L 82.363281 157.898438 C 81.910156 159.378906 82.179688 160.992188 83.089844 162.246094 C 83.738281 163.121094 84.457031 163.949219 84.902344 163.984375 C 85.867188 164.085938 85.300781 166.625 88.449219 164.328125 C 91.589844 162.015625 92.125 159.796875 92.125 159.796875 C 92.125 159.796875 94.945312 150.640625 96.847656 151.140625 C 98.746094 151.640625 100.328125 152.117188 101.148438 153.824219 C 101.476562 154.519531 101.75 155.203125 101.964844 155.78125 C 102.308594 156.714844 102.363281 157.714844 102.125 158.683594 C 101.820312 159.902344 101.316406 161.527344 100.667969 162.234375 C 100.273438 162.675781 99.828125 162.085938 99.496094 161.480469 C 98.953125 160.480469 98.734375 159.46875 99.589844 163.425781 C 100.941406 169.730469 100.886719 166.808594 100.941406 169.730469 C 100.988281 172.667969 101.214844 173.65625 103.148438 173.839844 C 105.085938 174.019531 104.082031 174.257812 105.265625 172.097656 C 106.449219 169.925781 105.480469 169.832031 106.632812 167.988281 C 107.78125 166.148438 107.609375 164.507812 108.863281 164.953125 C 110.125 165.394531 110.796875 165.132812 110.875 167.75 C 110.953125 170.355469 108.851562 168.523438 110.953125 170.355469 C 113.058594 172.175781 111.113281 175.566406 114.675781 172.335938 L 114.777344 172.234375 C 117.085938 170.117188 118.507812 167.214844 118.894531 164.109375 " fill-opacity="1" fill-rule="nonzero"/><path fill="#db9715" d="M 80.144531 157.863281 C 79.699219 156.851562 71.875 151.117188 69.039062 149.070312 C 68.390625 148.601562 67.960938 147.929688 67.8125 147.179688 L 66.195312 138.988281 C 66.105469 138.523438 65.910156 138.101562 65.617188 137.726562 C 64.808594 136.691406 62.976562 134.359375 60.847656 131.515625 C 57.957031 127.644531 56.707031 127.226562 55.261719 125.300781 C 53.816406 123.367188 54.136719 123.402344 52.746094 120.875 L 51.882812 119.285156 C 51.507812 118.613281 50.882812 118.089844 50.121094 117.792969 C 49.097656 117.417969 47.777344 117.121094 47.503906 117.984375 C 47.34375 118.476562 47.128906 118.417969 46.933594 118.351562 C 46.570312 118.226562 46.308594 118.101562 46.785156 122.105469 C 47.515625 128.15625 47.878906 124.300781 47.285156 130.523438 C 46.855469 135.144531 47.058594 138.671875 47.183594 140.183594 C 47.230469 140.671875 47.402344 141.152344 47.683594 141.558594 C 48.4375 142.640625 49.972656 145.144531 50.199219 147.851562 C 50.507812 151.46875 48.835938 148.625 53.53125 153.859375 C 58.242188 159.082031 58.628906 164.347656 60.984375 160.617188 C 63.328125 156.875 64.988281 155.542969 61.746094 152.539062 C 58.492188 149.535156 57.527344 149.445312 57.832031 146.179688 C 58.140625 142.925781 64.261719 150.378906 65.070312 152.253906 C 65.867188 154.121094 65.785156 155.007812 67.925781 156.40625 C 70.066406 157.808594 67.867188 157.011719 70.066406 157.808594 C 71.417969 158.308594 72.28125 159.535156 72.191406 160.867188 C 72.136719 161.6875 72.03125 162.539062 71.851562 163.039062 C 71.417969 164.222656 68.425781 164.839844 70.222656 166.5 C 72.019531 168.160156 72.875 169.445312 73.945312 168.34375 C 75.023438 167.25 74.34375 164.144531 74.753906 163.3125 C 75.148438 162.484375 75.148438 162.484375 75.148438 162.484375 L 77.972656 159.160156 C 78.277344 158.796875 78.6875 158.5 79.144531 158.296875 L 80.144531 157.863281 " fill-opacity="1" fill-rule="nonzero"/><path fill="#db9715" d="M 57.71875 67.9375 C 57.855469 66.800781 57.5625 65.660156 56.832031 64.761719 C 55.96875 63.691406 54.648438 62.863281 53.167969 64.761719 C 51.472656 66.9375 50.414062 69.722656 49.890625 71.394531 C 49.609375 72.292969 49.621094 73.273438 49.9375 74.160156 L 50.859375 76.730469 C 51.28125 77.878906 51.179688 79.144531 50.597656 80.222656 C 49.753906 81.792969 48.59375 84.242188 48.195312 86.402344 C 47.539062 89.90625 47.582031 86.015625 47.492188 93.808594 C 47.410156 101.601562 44.066406 102.59375 46.421875 105.085938 C 48.789062 107.585938 50.550781 106.132812 52.316406 104.664062 C 54.078125 103.207031 53.785156 106.4375 57.527344 108.085938 C 61.269531 109.738281 59.777344 108.292969 63.113281 110.886719 C 66.445312 113.480469 67.378906 113.890625 70.28125 114.164062 C 73.183594 114.449219 70.828125 113.570312 75.378906 112.695312 C 79.929688 111.832031 81.53125 111.980469 82.828125 112.105469 C 84.117188 112.230469 85.753906 112.058594 83.136719 108.882812 C 80.507812 105.710938 78.359375 107.78125 78.644531 101.308594 C 78.9375 94.832031 74.570312 92.796875 73.851562 96.949219 C 73.136719 101.113281 76.742188 100.792969 73.136719 101.113281 C 69.53125 101.421875 68.164062 105.1875 65.523438 102.34375 C 62.886719 99.488281 62.488281 96.847656 62.488281 96.847656 C 62.488281 96.847656 60.804688 94.09375 59.972656 95.960938 C 59.390625 97.269531 58.210938 98.199219 56.796875 98.449219 C 55.46875 98.691406 54.035156 98.703125 53.953125 97.675781 C 53.816406 95.710938 50.996094 91.203125 52.917969 87.984375 C 54.851562 84.753906 50.949219 84.707031 54.851562 84.753906 C 58.742188 84.796875 58.367188 85.414062 60.324219 85.277344 C 61.054688 85.21875 61.542969 85.8125 61.953125 86.414062 C 62.644531 87.425781 63.113281 88.425781 64.136719 86.277344 C 65.765625 82.851562 69.3125 79.621094 65.445312 79.257812 C 64.148438 79.132812 63.089844 79.132812 62.269531 79.199219 C 61.132812 79.304688 60.175781 79.941406 59.484375 80.839844 C 59.234375 81.167969 58.8125 81.328125 58.152344 80.839844 C 56.628906 79.710938 55.34375 79.597656 55.933594 76.730469 C 56.535156 73.851562 56.652344 72.566406 57.09375 71.304688 C 57.355469 70.578125 57.582031 69.074219 57.71875 67.9375 " fill-opacity="1" fill-rule="nonzero"/><path fill="#db9715" d="M 68.4375 191.507812 C 70.042969 191.667969 71.441406 190.722656 72.292969 189.34375 L 72.488281 189.105469 C 73.582031 187.910156 74.582031 187.671875 72.828125 185.558594 C 71.078125 183.441406 71.132812 182.804688 67.710938 181.175781 C 64.296875 179.550781 64.113281 177.910156 62.429688 181.984375 C 60.746094 186.046875 58.699219 186.171875 56.832031 189.253906 C 54.957031 192.328125 62.304688 191.394531 65.023438 191.324219 C 66.027344 191.300781 67.265625 191.382812 68.4375 191.507812 " fill-opacity="1" fill-rule="nonzero"/><path fill="#db9715" d="M 87.5625 81.214844 C 87.5625 81.214844 86.515625 78.519531 85.308594 81.007812 C 84.09375 83.488281 82.535156 86.265625 81.910156 89.464844 C 81.28125 92.648438 79.699219 92.183594 82 95.324219 C 84.308594 98.460938 82.558594 96.359375 85.832031 99.589844 C 87.222656 100.964844 87.585938 100.828125 87.800781 100.691406 C 88.074219 100.511719 88.0625 100.339844 89.851562 103.867188 C 91.875 107.859375 94.730469 110.285156 96.484375 111.5 C 97.632812 112.285156 98.734375 113.128906 99.78125 114.039062 C 101.683594 115.675781 104.640625 117.929688 106.074219 117.429688 C 108.269531 116.65625 110.773438 114.300781 107.792969 111.410156 C 104.8125 108.53125 101.683594 107.257812 100.226562 105.492188 C 98.769531 103.730469 95.527344 100.113281 97.917969 98.917969 C 100.304688 97.699219 98.554688 97.859375 99.507812 96.972656 C 100.464844 96.097656 101.054688 93.21875 98.394531 93.945312 C 95.71875 94.664062 95.480469 97.1875 94.058594 98.542969 C 92.625 99.90625 92.296875 100.839844 90.246094 99.679688 C 88.199219 98.507812 85.320312 94.664062 85.527344 92.410156 C 85.742188 90.15625 85.925781 88.222656 87.8125 85.46875 C 89.703125 82.726562 87.5625 81.214844 87.5625 81.214844 " fill-opacity="1" fill-rule="nonzero"/><path fill="#f0ba30" d="M 114.730469 151.140625 C 114.390625 151.140625 114.003906 151.070312 113.605469 150.933594 C 113.320312 150.433594 112.808594 150.082031 112.195312 150.023438 C 112.125 150.011719 112.082031 150.011719 112.023438 150.011719 C 111.933594 150.011719 111.863281 150.011719 111.785156 150.023438 C 110.238281 149.023438 108.828125 147.5 108.554688 146.226562 C 107.871094 143.015625 108.15625 144.347656 105.734375 137.589844 C 103.308594 130.84375 103.367188 134.1875 94.058594 124.152344 C 90.78125 120.625 90.191406 119.464844 90.875 119.464844 C 92.136719 119.464844 97.722656 123.378906 98.839844 123.6875 C 100.566406 124.152344 104.800781 127.167969 106.972656 127.816406 C 109.15625 128.464844 110.945312 130.046875 112.707031 132.183594 C 114.46875 134.324219 111.957031 136.257812 112.023438 139.601562 C 112.082031 142.949219 112.933594 143.882812 113.707031 145.953125 C 114.480469 148.023438 116.210938 148.488281 116.210938 148.488281 C 116.507812 150.410156 115.8125 151.140625 114.730469 151.140625 " fill-opacity="1" fill-rule="nonzero"/><path fill="#f0ba30" d="M 76.425781 140.296875 C 74.136719 140.296875 70.097656 131.957031 68.621094 128.136719 C 66.789062 123.414062 66.480469 126.632812 64.957031 121.207031 C 64.957031 121.207031 69.6875 123.6875 72.988281 126.597656 C 76.289062 129.511719 77.230469 129.921875 79.210938 133.039062 C 81.191406 136.144531 78.800781 134.574219 77.699219 138.75 C 77.402344 139.832031 76.96875 140.296875 76.425781 140.296875 " fill-opacity="1" fill-rule="nonzero"/><path fill="#f0ba30" d="M 91.011719 179.628906 C 89.578125 179.628906 89.988281 178.820312 87.675781 175.019531 C 86.367188 172.859375 86.378906 172.507812 86.972656 172.507812 C 87.121094 172.507812 87.289062 172.53125 87.496094 172.550781 C 87.699219 172.5625 87.925781 172.585938 88.164062 172.585938 C 88.597656 172.585938 89.074219 172.519531 89.542969 172.277344 C 91.589844 171.164062 90.042969 170.367188 91.941406 167.464844 C 92.582031 166.5 93.308594 166.078125 94.035156 166.078125 C 95.492188 166.078125 96.949219 167.761719 97.539062 170.105469 C 98.019531 171.949219 93.410156 179.457031 91.441406 179.605469 C 91.285156 179.617188 91.136719 179.628906 91.011719 179.628906 " fill-opacity="1" fill-rule="nonzero"/><path fill="#f0ba30" d="M 118.476562 109.953125 C 116.949219 109.953125 112.46875 107.722656 112.285156 107.394531 C 112.136719 107.132812 110.316406 107.097656 109.519531 107.097656 C 109.304688 107.097656 109.167969 107.097656 109.167969 107.097656 L 104.96875 106.699219 C 104.96875 106.699219 100.863281 101.113281 103.058594 100.667969 C 104.59375 100.363281 103.355469 99.953125 103.652344 99.953125 C 103.777344 99.953125 104.195312 100.03125 105.265625 100.226562 C 108.769531 100.886719 107.542969 100.125 109.648438 101.945312 C 111.207031 103.296875 110.5 104.070312 110.851562 104.070312 C 110.976562 104.070312 111.226562 103.96875 111.75 103.765625 C 111.863281 103.730469 111.992188 103.707031 112.125 103.707031 C 114.4375 103.707031 119.898438 109.761719 118.644531 109.941406 C 118.601562 109.953125 118.53125 109.953125 118.476562 109.953125 " fill-opacity="1" fill-rule="nonzero"/><path fill="#f0ba30" d="M 75.117188 89.621094 L 72.214844 89.335938 C 72.214844 89.335938 72.648438 84.832031 72.214844 82.511719 C 71.78125 80.203125 72.578125 78.644531 72.578125 78.644531 C 72.578125 78.644531 76.378906 79.65625 77.871094 81.101562 C 79.359375 82.546875 77.871094 81.101562 77.503906 84.96875 C 77.140625 88.824219 75.117188 89.621094 75.117188 89.621094 " fill-opacity="1" fill-rule="nonzero"/><path fill="#f0ba30" d="M 65.433594 178.398438 C 64.433594 178.398438 63.363281 177.957031 63.363281 177.957031 C 63.363281 177.957031 63.273438 176.488281 61.109375 176.148438 C 60.984375 176.136719 60.859375 176.125 60.722656 176.125 C 59.644531 176.125 58.164062 176.695312 56.671875 177.25 C 55.195312 177.820312 53.714844 178.390625 52.621094 178.390625 C 52.53125 178.390625 52.441406 178.390625 52.359375 178.378906 C 50.109375 178.160156 50.972656 172.394531 50.972656 169.789062 C 50.960938 167.195312 55.832031 165.703125 59.097656 162.109375 C 59.1875 162.015625 59.265625 161.925781 59.359375 161.847656 C 59.425781 161.867188 59.496094 161.878906 59.5625 161.878906 C 59.949219 161.878906 60.359375 161.550781 60.847656 160.820312 C 61.179688 160.695312 61.496094 160.640625 61.792969 160.640625 C 63.625 160.640625 64.808594 162.652344 64.808594 162.652344 C 67.324219 169.390625 67.082031 173.917969 67.152344 176.714844 C 67.175781 178.046875 66.332031 178.398438 65.433594 178.398438 " fill-opacity="1" fill-rule="nonzero"/><path fill="#ebb331" d="M 59.5625 161.878906 C 59.496094 161.878906 59.425781 161.867188 59.359375 161.847656 C 59.882812 161.324219 60.382812 161.003906 60.847656 160.820312 C 60.359375 161.550781 59.949219 161.878906 59.5625 161.878906 " fill-opacity="1" fill-rule="nonzero"/><path fill="#f0ba30" d="M 140.707031 124.664062 C 138.964844 124.664062 134.003906 121.707031 131.09375 119.25 C 128.03125 116.667969 131.378906 115.894531 133.605469 115.894531 C 134.222656 115.894531 134.757812 115.949219 135.039062 116.050781 C 136.359375 116.496094 140.105469 121.09375 141.160156 123.449219 C 141.539062 124.3125 141.320312 124.664062 140.707031 124.664062 " fill-opacity="1" fill-rule="nonzero"/><path fill="#ac6e1e" d="M 149.46875 134.390625 C 149.34375 134.390625 149.21875 134.382812 149.082031 134.371094 C 146.851562 134.152344 145.210938 132.175781 145.417969 129.933594 C 145.621094 127.839844 147.398438 126.257812 149.46875 126.257812 C 149.59375 126.257812 149.71875 126.257812 149.855469 126.28125 C 152.085938 126.484375 153.722656 128.464844 153.519531 130.707031 C 153.3125 132.8125 151.550781 134.390625 149.46875 134.390625 " fill-opacity="1" fill-rule="nonzero"/><path fill="#b5781d" d="M 82.148438 122.171875 C 82.066406 122.171875 81.988281 122.171875 81.910156 122.160156 C 80.578125 122.046875 79.597656 120.851562 79.722656 119.523438 C 79.835938 118.269531 80.894531 117.328125 82.136719 117.328125 C 82.214844 117.328125 82.285156 117.328125 82.363281 117.335938 C 83.695312 117.460938 84.671875 118.644531 84.546875 119.976562 C 84.433594 121.238281 83.375 122.171875 82.148438 122.171875 " fill-opacity="1" fill-rule="nonzero"/><path fill="#b5781d" d="M 73.761719 98.109375 C 72.054688 97.917969 70.804688 96.390625 70.976562 94.675781 C 71.121094 93.046875 72.5 91.816406 74.101562 91.816406 C 74.207031 91.816406 74.308594 91.828125 74.410156 91.839844 C 76.152344 92 77.425781 93.535156 77.253906 95.277344 C 77.242188 95.402344 77.222656 95.539062 77.199219 95.664062 C 76.699219 95.082031 76.140625 94.789062 75.617188 94.789062 C 74.820312 94.789062 74.113281 95.480469 73.851562 96.949219 C 73.785156 97.382812 73.75 97.769531 73.761719 98.109375 " fill-opacity="1" fill-rule="nonzero"/><path fill="#ac6e1e" d="M 74.113281 98.132812 C 74.023438 98.132812 73.921875 98.132812 73.820312 98.121094 C 73.796875 98.121094 73.773438 98.109375 73.761719 98.109375 C 73.75 97.769531 73.785156 97.382812 73.851562 96.949219 C 74.113281 95.480469 74.820312 94.789062 75.617188 94.789062 C 76.140625 94.789062 76.699219 95.082031 77.199219 95.664062 C 76.878906 97.097656 75.59375 98.132812 74.113281 98.132812 " fill-opacity="1" fill-rule="nonzero"/><path fill="#b5781d" d="M 112.023438 153.65625 C 111.96875 153.65625 111.910156 153.65625 111.855469 153.644531 C 110.839844 153.550781 110.113281 152.664062 110.203125 151.664062 C 110.285156 150.796875 110.953125 150.140625 111.785156 150.023438 C 112.386719 150.421875 113.015625 150.742188 113.605469 150.933594 C 113.777344 151.253906 113.867188 151.617188 113.832031 152.003906 C 113.742188 152.949219 112.945312 153.65625 112.023438 153.65625 " fill-opacity="1" fill-rule="nonzero"/><path fill="#b8802f" d="M 113.605469 150.933594 C 113.015625 150.742188 112.386719 150.421875 111.785156 150.023438 C 111.863281 150.011719 111.933594 150.011719 112.023438 150.011719 C 112.082031 150.011719 112.125 150.011719 112.195312 150.023438 C 112.808594 150.082031 113.320312 150.433594 113.605469 150.933594 " fill-opacity="1" fill-rule="nonzero"/><path fill="#b5781d" d="M 64.089844 159.730469 C 64.011719 159.730469 63.933594 159.730469 63.851562 159.71875 C 63.160156 159.648438 62.554688 159.320312 62.144531 158.832031 C 63.226562 157.179688 63.875 156.03125 63.398438 154.722656 C 63.625 154.667969 63.851562 154.632812 64.089844 154.632812 C 64.171875 154.632812 64.25 154.632812 64.332031 154.644531 C 65.730469 154.78125 66.765625 156.019531 66.628906 157.421875 C 66.503906 158.738281 65.386719 159.730469 64.089844 159.730469 " fill-opacity="1" fill-rule="nonzero"/><path fill="#ac6e1e" d="M 62.144531 158.832031 C 61.714844 158.320312 61.484375 157.648438 61.554688 156.941406 C 61.65625 155.863281 62.417969 155.007812 63.398438 154.722656 C 63.875 156.03125 63.226562 157.179688 62.144531 158.832031 " fill-opacity="1" fill-rule="nonzero"/><path fill="#f4c242" d="M 175.054688 168.261719 C 162.074219 196.898438 149.21875 225.59375 136.542969 254.367188 C 129.25 270.945312 121.898438 287.511719 115.152344 304.304688 C 112.878906 309.957031 107.269531 318.332031 115.800781 320.4375 C 122.128906 321.996094 129.976562 320.503906 136.328125 319.902344 C 146.78125 318.910156 157.203125 317.476562 167.601562 315.941406 C 191.984375 312.359375 216.289062 308.101562 240.441406 303.199219 C 250.28125 301.195312 263.8125 302.472656 259.089844 289.863281 C 253.515625 274.984375 244.367188 260.964844 236.242188 247.394531 C 224.171875 227.253906 211.542969 207.308594 197.765625 188.277344 C 194.988281 184.441406 182.792969 163.53125 175.921875 167.398438 C 173.222656 168.910156 175.648438 173.0625 178.34375 171.539062 C 177.070312 172.257812 178.808594 172.371094 180.085938 173.859375 C 181.550781 175.566406 183.144531 177.148438 184.578125 178.878906 C 189.277344 184.5 193.53125 190.496094 197.730469 196.492188 C 208.050781 211.210938 217.777344 226.367188 227.175781 241.703125 C 235.605469 255.480469 244.015625 269.398438 251.148438 283.914062 C 252.136719 285.941406 256.9375 293.289062 255.878906 295.632812 C 256.289062 294.710938 250.613281 296.15625 249.121094 296.476562 C 244.800781 297.417969 240.476562 298.308594 236.152344 299.171875 C 215.421875 303.3125 194.589844 306.988281 173.691406 310.195312 C 156.394531 312.871094 137.898438 316.75 120.296875 315.988281 C 119.976562 315.964844 119.578125 315.976562 119.148438 315.988281 C 117.816406 316.011719 116.144531 316.03125 115.277344 315.40625 C 116.5625 316.339844 115.574219 316.726562 116.460938 314.269531 C 118.042969 309.878906 119.773438 305.554688 121.546875 301.230469 C 128.113281 285.3125 135.0625 269.554688 142.015625 253.796875 C 154.257812 226.027344 166.671875 198.320312 179.207031 170.6875 C 180.472656 167.886719 176.328125 165.441406 175.054688 168.261719 " fill-opacity="1" fill-rule="nonzero"/><path fill="#e8ab10" d="M 176.933594 169.46875 C 176.933594 169.46875 112.070312 312.515625 113.164062 316.726562 C 115.109375 324.179688 225.695312 304.632812 257.53125 296.988281 C 265.621094 295.042969 183.738281 163.960938 176.933594 169.46875 " fill-opacity="1" fill-rule="nonzero"/><path fill="#db9715" d="M 175.976562 177.445312 C 175.464844 179.4375 167.238281 199.890625 170.152344 203.125 C 173.0625 206.367188 164.328125 213.160156 169.503906 211.863281 C 174.679688 210.574219 177.273438 221.894531 175.976562 224.171875 C 174.679688 226.4375 167.886719 240.03125 181.152344 236.460938 C 194.429688 232.910156 197.015625 231.292969 197.015625 227.402344 C 197.015625 223.523438 196.046875 220.15625 199.609375 218.597656 C 201.121094 217.9375 201.871094 218.140625 202.292969 218.347656 C 202.851562 218.632812 202.792969 218.902344 203.167969 217.050781 C 203.816406 213.808594 203.167969 207.175781 201.222656 207.253906 C 199.277344 207.332031 196.046875 205.71875 193.453125 204.101562 C 190.871094 202.488281 189.890625 203.125 187.957031 200.871094 C 186.011719 198.59375 184.65625 196.011719 185.5 194.386719 C 186.339844 192.769531 191.835938 194.386719 191.835938 194.386719 C 191.835938 194.386719 191.835938 187.59375 189.574219 186.625 C 187.308594 185.648438 184.394531 184.679688 182.78125 183.066406 C 181.152344 181.4375 179.855469 178.957031 178.570312 177.445312 C 177.273438 175.941406 176.511719 175.375 175.976562 177.445312 " fill-opacity="1" fill-rule="nonzero"/><path fill="#db9715" d="M 212.976562 233.070312 L 212.761719 233.070312 C 211.28125 233.011719 209.871094 233.625 208.890625 234.71875 C 207.492188 236.277344 205.546875 238.609375 204.398438 240.714844 C 202.464844 244.277344 205.207031 245.242188 200.597656 246.859375 C 195.988281 248.484375 194.363281 250.417969 192.097656 251.398438 C 189.835938 252.363281 187.253906 252.683594 185.625 254.308594 C 184.007812 255.925781 181.097656 259.488281 183.691406 259.804688 C 184.636719 259.929688 185.148438 259.875 185.558594 259.816406 C 186.273438 259.726562 186.695312 259.636719 188.539062 260.453125 C 191.449219 261.75 192.746094 263.367188 194.042969 264.015625 C 195.339844 264.664062 197.925781 264.664062 198.253906 266.609375 C 198.480469 267.964844 198.550781 269.964844 198.5625 271.035156 C 198.574219 271.492188 198.515625 271.921875 198.414062 272.367188 C 198.128906 273.550781 197.820312 275.996094 200.835938 273.730469 C 202.066406 272.808594 202.976562 271.945312 203.636719 271.207031 C 204.976562 269.714844 207.058594 269.113281 208.960938 269.738281 L 209.5625 269.910156 L 210.222656 270.035156 C 211.746094 270.339844 213.316406 269.921875 214.476562 268.886719 C 215.296875 268.167969 216.046875 267.371094 216.046875 266.929688 C 216.046875 265.960938 218.640625 266.28125 216.046875 263.367188 C 213.464844 260.453125 211.203125 260.136719 211.203125 260.136719 C 211.203125 260.136719 201.816406 258.191406 202.132812 256.257812 C 202.464844 254.308594 202.78125 252.683594 204.398438 251.714844 C 205.058594 251.316406 205.71875 250.976562 206.273438 250.714844 C 207.175781 250.28125 208.164062 250.136719 209.152344 250.28125 C 210.394531 250.476562 212.054688 250.816406 212.816406 251.398438 C 214.113281 252.363281 207.957031 254.308594 214.113281 252.363281 C 220.257812 250.417969 217.34375 250.75 220.257812 250.417969 C 223.171875 250.101562 224.148438 249.769531 224.148438 247.835938 C 224.148438 245.890625 224.46875 246.859375 222.203125 245.890625 C 219.9375 244.925781 219.9375 245.890625 217.992188 244.925781 C 216.046875 243.945312 214.433594 244.277344 214.761719 242.980469 C 215.082031 241.679688 214.761719 241.03125 217.34375 240.714844 C 218.289062 240.601562 218.675781 240.816406 218.859375 241.042969 C 219.1875 241.441406 218.902344 241.828125 219.9375 240.394531 C 221.554688 238.121094 225.117188 239.734375 221.554688 236.503906 L 221.453125 236.414062 C 219.121094 234.308594 216.105469 233.160156 212.976562 233.070312 " fill-opacity="1" fill-rule="nonzero"/><path fill="#db9715" d="M 210.40625 272.242188 C 209.425781 272.777344 204.464844 281.117188 202.691406 284.121094 C 202.28125 284.8125 201.65625 285.3125 200.925781 285.53125 L 192.917969 287.90625 C 192.472656 288.03125 192.066406 288.273438 191.710938 288.601562 C 190.769531 289.511719 188.617188 291.546875 185.988281 293.925781 C 182.40625 297.167969 182.109375 298.464844 180.324219 300.082031 C 178.535156 301.699219 178.535156 301.378906 176.160156 302.996094 L 174.65625 304.007812 C 174.019531 304.449219 173.554688 305.109375 173.335938 305.894531 C 173.054688 306.953125 172.882812 308.296875 173.769531 308.5 C 175.261719 308.820312 171.984375 310.117188 177.945312 308.820312 C 183.894531 307.523438 180.027344 307.523438 186.285156 307.523438 C 190.914062 307.523438 194.410156 306.988281 195.898438 306.714844 C 196.386719 306.625 196.84375 306.40625 197.230469 306.089844 C 198.230469 305.234375 200.574219 303.472656 203.261719 302.996094 C 204.203125 302.824219 204.714844 302.835938 205.046875 302.847656 C 205.933594 302.871094 205.421875 302.902344 208.914062 299.101562 C 213.683594 293.925781 218.882812 293.039062 214.945312 291.058594 C 210.996094 289.070312 209.507812 287.542969 206.832031 291.058594 C 204.148438 294.574219 204.148438 295.554688 200.871094 295.554688 C 197.59375 295.554688 204.441406 288.75 206.230469 287.78125 C 208.015625 286.816406 208.914062 286.816406 210.109375 284.539062 C 211.292969 282.277344 210.699219 284.539062 211.292969 282.277344 C 211.65625 280.886719 212.804688 279.910156 214.136719 279.875 C 214.96875 279.851562 215.832031 279.875 216.332031 280.011719 C 217.550781 280.332031 218.449219 283.242188 219.9375 281.308594 C 221.429688 279.363281 222.613281 278.398438 221.429688 277.417969 C 220.714844 276.835938 219.335938 276.964844 218.164062 277.078125 C 217.378906 277.15625 216.683594 277.226562 216.332031 277.097656 C 215.46875 276.78125 215.46875 276.78125 215.46875 276.78125 L 211.894531 274.277344 C 211.496094 274.003906 211.167969 273.628906 210.929688 273.195312 L 210.40625 272.242188 " fill-opacity="1" fill-rule="nonzero"/><path fill="#db9715" d="M 122.992188 303.027344 C 121.84375 302.996094 120.726562 303.402344 119.910156 304.199219 C 118.929688 305.167969 118.226562 306.566406 120.25 307.863281 C 122.570312 309.34375 125.449219 310.128906 127.167969 310.503906 C 128.089844 310.695312 129.054688 310.59375 129.910156 310.183594 L 132.378906 309.023438 C 133.492188 308.5 134.757812 308.488281 135.894531 308.957031 C 137.53125 309.648438 140.082031 310.570312 142.265625 310.777344 C 145.816406 311.09375 141.9375 311.425781 149.707031 310.777344 C 152.8125 310.515625 154.882812 310.878906 156.394531 311.242188 C 158.660156 311.789062 159.671875 312.324219 161.039062 310.777344 C 163.300781 308.183594 161.675781 306.566406 160.058594 304.953125 C 158.445312 303.335938 161.675781 303.335938 162.972656 299.445312 C 164.269531 295.566406 162.972656 297.179688 165.238281 293.621094 C 167.5 290.058594 167.832031 289.089844 167.832031 286.179688 C 167.832031 283.265625 167.183594 285.6875 165.886719 281.242188 C 164.589844 276.792969 164.589844 275.175781 164.589844 273.878906 C 164.589844 272.582031 164.269531 270.96875 161.355469 273.878906 C 158.445312 276.792969 160.707031 278.726562 154.234375 279.054688 C 147.761719 279.375 146.144531 283.914062 150.355469 284.234375 C 151.835938 284.347656 152.710938 283.984375 153.257812 283.605469 C 154.269531 282.9375 154.144531 282.253906 154.554688 284.550781 C 155.203125 288.113281 159.09375 289.125 156.5 292.015625 C 153.917969 294.917969 151.320312 295.566406 151.320312 295.566406 C 151.320312 295.566406 148.726562 297.511719 150.671875 298.148438 C 152.027344 298.601562 153.074219 299.695312 153.449219 301.070312 C 153.8125 302.378906 153.960938 303.800781 152.9375 303.972656 C 151.003906 304.304688 146.78125 307.535156 143.390625 305.917969 C 141.980469 305.246094 141.207031 305.519531 140.773438 305.792969 C 140.148438 306.191406 140.183594 306.578125 139.988281 304.304688 C 139.671875 300.421875 140.320312 300.742188 139.988281 298.796875 C 139.671875 296.851562 144.199219 296.214844 140.636719 294.917969 C 137.078125 293.621094 133.527344 290.386719 133.527344 294.269531 C 133.527344 295.578125 133.628906 296.625 133.777344 297.441406 C 133.972656 298.558594 134.699219 299.445312 135.667969 300.058594 C 136.019531 300.285156 136.210938 300.671875 135.792969 301.390625 C 134.8125 303.007812 134.8125 304.304688 131.902344 303.972656 C 128.988281 303.65625 127.691406 303.65625 126.40625 303.335938 C 125.644531 303.140625 124.128906 303.0625 122.992188 303.027344 " fill-opacity="1" fill-rule="nonzero"/><path fill="#db9715" d="M 244.992188 280.730469 C 245.003906 279.113281 243.933594 277.816406 242.488281 277.089844 L 242.226562 276.929688 C 240.929688 275.949219 240.613281 274.984375 238.667969 276.929688 C 236.722656 278.863281 236.074219 278.863281 234.777344 282.425781 C 233.488281 285.984375 231.863281 286.304688 236.074219 287.601562 C 240.28125 288.898438 240.613281 290.921875 243.84375 292.503906 C 247.085938 294.074219 245.457031 286.851562 245.140625 284.152344 C 245.015625 283.152344 244.992188 281.914062 244.992188 280.730469 " fill-opacity="1" fill-rule="nonzero"/><path fill="#db9715" d="M 133.402344 272.070312 C 133.402344 272.070312 130.808594 273.367188 133.402344 274.335938 C 135.984375 275.300781 138.898438 276.597656 142.140625 276.929688 C 145.371094 277.246094 145.054688 278.863281 147.964844 276.28125 C 150.878906 273.6875 148.933594 275.632812 151.84375 272.070312 C 154.757812 268.507812 149.910156 271.34375 155.738281 267.65625 C 159.523438 265.265625 161.664062 262.195312 162.699219 260.339844 C 163.382812 259.125 164.109375 257.941406 164.917969 256.8125 C 166.375 254.777344 168.34375 251.601562 167.707031 250.238281 C 166.738281 248.121094 164.144531 245.855469 161.5625 249.089844 C 158.96875 252.320312 158 255.5625 156.375 257.175781 C 154.757812 258.804688 151.46875 262.355469 150.035156 260.089844 C 148.613281 257.824219 148.933594 259.554688 147.964844 258.691406 C 147 257.824219 144.085938 257.507812 145.054688 260.089844 C 146.019531 262.683594 148.558594 262.683594 150.035156 263.96875 C 151.527344 265.265625 152.492188 265.515625 151.527344 267.65625 C 150.546875 269.804688 147 273.039062 144.722656 273.039062 C 142.460938 273.039062 140.523438 273.039062 137.613281 271.421875 C 134.699219 269.804688 133.402344 272.070312 133.402344 272.070312 " fill-opacity="1" fill-rule="nonzero"/><path fill="#f0ba30" d="M 171.367188 265.402344 C 170.1875 265.402344 174.394531 258.121094 174.621094 256.847656 C 174.917969 255.085938 177.523438 250.589844 177.96875 248.359375 C 178.398438 246.117188 179.800781 244.195312 181.769531 242.238281 C 182.371094 241.648438 182.984375 241.453125 183.644531 241.453125 C 184.316406 241.453125 185.035156 241.660156 185.828125 241.863281 C 186.625 242.070312 187.492188 242.273438 188.46875 242.273438 C 188.707031 242.273438 188.957031 242.261719 189.21875 242.226562 C 192.542969 241.851562 193.394531 240.90625 195.386719 239.941406 C 197.378906 238.984375 197.683594 237.222656 197.683594 237.222656 C 198.128906 237.109375 198.503906 237.0625 198.835938 237.0625 C 200.335938 237.0625 200.675781 238.175781 200.359375 239.578125 C 199.890625 239.90625 199.585938 240.453125 199.585938 241.078125 C 199.585938 241.214844 199.597656 241.351562 199.628906 241.476562 C 198.765625 243.113281 197.378906 244.652344 196.136719 245.050781 C 193.007812 246.039062 194.304688 245.628906 187.808594 248.679688 C 181.324219 251.726562 184.648438 251.339844 175.535156 261.558594 C 173.03125 264.367188 171.8125 265.402344 171.367188 265.402344 " fill-opacity="1" fill-rule="nonzero"/><path fill="#f0ba30" d="M 175.328125 290.820312 C 175.328125 290.820312 177.363281 285.871094 179.949219 282.300781 C 182.542969 278.75 182.859375 277.769531 185.773438 275.507812 C 186.636719 274.835938 187.125 274.585938 187.503906 274.585938 C 188.378906 274.585938 188.605469 275.984375 191.597656 276.472656 C 197.421875 277.453125 186.421875 284.246094 181.894531 286.507812 C 177.363281 288.785156 180.597656 288.785156 175.328125 290.820312 " fill-opacity="1" fill-rule="nonzero"/><path fill="#f0ba30" d="M 224.605469 264.425781 C 223.988281 264.425781 224.742188 262.84375 223.863281 261.535156 C 222.566406 259.589844 221.917969 261.207031 218.847656 259.589844 C 215.773438 257.972656 217.550781 254.992188 220.953125 253.765625 C 221.089844 253.71875 221.257812 253.695312 221.453125 253.695312 C 223.898438 253.695312 230.679688 257.144531 230.988281 258.941406 C 231.304688 260.886719 230.65625 260.238281 226.777344 263.128906 C 225.515625 264.0625 224.898438 264.425781 224.605469 264.425781 " fill-opacity="1" fill-rule="nonzero"/><path fill="#f0ba30" d="M 152.097656 255.378906 C 151.71875 255.378906 151.4375 255.210938 151.3125 254.8125 C 151.140625 254.230469 150.980469 254.058594 150.855469 254.058594 C 150.789062 254.058594 150.71875 254.128906 150.664062 254.195312 C 150.617188 254.265625 150.570312 254.332031 150.558594 254.332031 C 150.503906 254.332031 150.535156 254.015625 150.664062 252.660156 C 150.980469 249.101562 150.332031 250.398438 151.960938 248.132812 C 153.574219 245.867188 154.542969 247.800781 153.574219 245.867188 C 152.6875 244.082031 157.75 238.257812 158.875 238.257812 C 158.980469 238.257812 159.046875 238.300781 159.070312 238.417969 C 159.398438 239.714844 157.453125 244.777344 157.136719 244.992188 C 156.804688 245.21875 157.136719 248.132812 157.136719 248.132812 L 157.136719 252.332031 C 157.136719 252.332031 153.722656 255.378906 152.097656 255.378906 " fill-opacity="1" fill-rule="nonzero"/><path fill="#f0ba30" d="M 134.121094 287.519531 C 132.96875 287.519531 132.253906 287.226562 132.253906 287.226562 C 132.253906 287.226562 132.890625 283.34375 134.1875 281.730469 C 134.621094 281.183594 134.769531 281.011719 134.914062 281.011719 C 135.199219 281.011719 135.484375 281.730469 138.078125 281.730469 C 141.957031 281.730469 142.925781 283.675781 142.925781 283.675781 L 142.925781 286.589844 C 142.925781 286.589844 138.398438 286.589844 136.132812 287.226562 C 135.382812 287.441406 134.699219 287.519531 134.121094 287.519531 " fill-opacity="1" fill-rule="nonzero"/><path fill="#f0ba30" d="M 224.820312 300.171875 C 222.328125 300.171875 220.394531 295.632812 216.605469 292.800781 C 216.503906 292.71875 216.414062 292.640625 216.320312 292.5625 C 216.414062 292.105469 216.082031 291.675781 215.160156 291.171875 C 214.046875 288.921875 216.605469 287.054688 216.605469 287.054688 C 223.078125 283.925781 227.617188 283.734375 230.40625 283.402344 C 230.507812 283.390625 230.613281 283.390625 230.714844 283.390625 C 233.089844 283.390625 231.988281 287.054688 231.988281 287.054688 C 231.988281 287.054688 230.53125 287.292969 230.40625 289.464844 C 230.269531 291.652344 233.445312 295.714844 233.445312 297.964844 C 233.445312 300.242188 227.617188 299.910156 225.023438 300.160156 C 224.957031 300.171875 224.886719 300.171875 224.820312 300.171875 " fill-opacity="1" fill-rule="nonzero"/><path fill="#ebb331" d="M 216.320312 292.5625 C 215.753906 292.09375 215.386719 291.628906 215.160156 291.171875 C 216.082031 291.675781 216.414062 292.105469 216.320312 292.5625 " fill-opacity="1" fill-rule="nonzero"/><path fill="#f0ba30" d="M 165.40625 226.550781 C 163.859375 226.550781 163.359375 222.554688 163.609375 221.519531 C 163.929688 220.167969 168.148438 216.015625 170.402344 214.738281 C 170.710938 214.558594 170.960938 214.476562 171.152344 214.476562 C 172.894531 214.476562 169.800781 221.351562 167.171875 225.148438 C 166.476562 226.152344 165.886719 226.550781 165.40625 226.550781 " fill-opacity="1" fill-rule="nonzero"/><path fill="#ac6e1e" d="M 176.453125 209.882812 C 174.214844 209.882812 172.394531 208.0625 172.394531 205.820312 C 172.394531 203.578125 174.214844 201.757812 176.453125 201.757812 C 178.707031 201.757812 180.527344 203.578125 180.527344 205.820312 C 180.527344 208.0625 178.707031 209.882812 176.453125 209.882812 " fill-opacity="1" fill-rule="nonzero"/><path fill="#b5781d" d="M 172.269531 276.269531 C 170.9375 276.269531 169.84375 275.1875 169.84375 273.84375 C 169.84375 272.503906 170.9375 271.421875 172.269531 271.421875 C 173.609375 271.421875 174.703125 272.503906 174.703125 273.84375 C 174.703125 275.1875 173.609375 276.269531 172.269531 276.269531 " fill-opacity="1" fill-rule="nonzero"/><path fill="#b5781d" d="M 148.363281 287.316406 C 146.625 287.316406 145.210938 285.90625 145.210938 284.164062 C 145.210938 282.425781 146.625 281.011719 148.363281 281.011719 C 148.488281 281.011719 148.625 281.011719 148.75 281.035156 C 147.417969 282.414062 147.886719 284.050781 150.355469 284.234375 C 150.535156 284.257812 150.71875 284.257812 150.878906 284.257812 C 151.105469 284.257812 151.320312 284.246094 151.515625 284.222656 C 151.480469 285.941406 150.082031 287.316406 148.363281 287.316406 " fill-opacity="1" fill-rule="nonzero"/><path fill="#ac6e1e" d="M 150.878906 284.257812 C 150.71875 284.257812 150.535156 284.257812 150.355469 284.234375 C 147.886719 284.050781 147.417969 282.414062 148.75 281.035156 C 150.308594 281.230469 151.515625 282.550781 151.515625 284.164062 C 151.515625 284.1875 151.515625 284.199219 151.515625 284.222656 C 151.320312 284.246094 151.105469 284.257812 150.878906 284.257812 " fill-opacity="1" fill-rule="nonzero"/><path fill="#b5781d" d="M 201.40625 242.898438 C 200.539062 242.898438 199.8125 242.285156 199.628906 241.476562 C 199.960938 240.839844 200.222656 240.179688 200.359375 239.578125 C 200.65625 239.371094 201.019531 239.257812 201.40625 239.257812 C 202.40625 239.257812 203.226562 240.066406 203.226562 241.078125 C 203.226562 242.078125 202.40625 242.898438 201.40625 242.898438 " fill-opacity="1" fill-rule="nonzero"/><path fill="#b8802f" d="M 199.628906 241.476562 C 199.597656 241.351562 199.585938 241.214844 199.585938 241.078125 C 199.585938 240.453125 199.890625 239.90625 200.359375 239.578125 C 200.222656 240.179688 199.960938 240.839844 199.628906 241.476562 " fill-opacity="1" fill-rule="nonzero"/><path fill="#b5781d" d="M 213.054688 290.070312 C 211.816406 289.421875 210.847656 288.953125 209.949219 288.953125 C 209.574219 288.953125 209.222656 289.035156 208.859375 289.203125 C 208.742188 288.921875 208.6875 288.613281 208.6875 288.292969 C 208.6875 286.882812 209.824219 285.746094 211.234375 285.746094 C 212.636719 285.746094 213.785156 286.882812 213.785156 288.292969 C 213.785156 288.988281 213.5 289.613281 213.054688 290.070312 " fill-opacity="1" fill-rule="nonzero"/><path fill="#ac6e1e" d="M 211.234375 290.84375 C 210.144531 290.84375 209.222656 290.160156 208.859375 289.203125 C 209.222656 289.035156 209.574219 288.953125 209.949219 288.953125 C 210.847656 288.953125 211.816406 289.421875 213.054688 290.070312 C 212.589844 290.546875 211.953125 290.84375 211.234375 290.84375 " fill-opacity="1" fill-rule="nonzero"/><path fill="#f4c242" d="M 179.699219 70.132812 C 190.769531 99.566406 201.964844 128.953125 213.351562 158.261719 C 219.917969 175.125 226.425781 192.042969 233.535156 208.699219 C 235.949219 214.320312 237.882812 224.183594 245.425781 219.597656 C 250.988281 216.21875 255.472656 209.632812 259.53125 204.726562 C 266.210938 196.628906 272.570312 188.253906 278.828125 179.832031 C 293.527344 160.058594 307.714844 139.863281 321.324219 119.316406 C 326.851562 110.953125 337.34375 102.261719 325.125 96.6875 C 310.664062 90.089844 294.28125 86.652344 278.941406 82.808594 C 256.152344 77.097656 233.136719 71.917969 209.9375 68.210938 C 205.25 67.46875 181.8125 61.292969 179.699219 68.859375 C 178.867188 71.839844 183.496094 73.113281 184.328125 70.132812 C 184.078125 71.007812 184.613281 70.828125 185.535156 70.644531 C 186.011719 70.554688 186.582031 70.460938 187.21875 70.519531 C 189.449219 70.679688 191.6875 70.679688 193.929688 70.882812 C 201.210938 71.53125 208.460938 72.761719 215.648438 74.023438 C 233.363281 77.140625 250.964844 80.976562 268.453125 85.183594 C 284.152344 88.949219 299.945312 92.851562 315.238281 98.074219 C 317.386719 98.804688 325.976562 100.613281 326.875 103.003906 C 326.535156 102.09375 323.609375 107.019531 322.734375 108.382812 C 320.355469 112.09375 317.921875 115.777344 315.476562 119.441406 C 303.746094 137.03125 291.605469 154.359375 279.113281 171.414062 C 268.75 185.546875 258.429688 201.359375 245.425781 213.285156 C 244.445312 214.171875 242.832031 216.230469 241.441406 216.433594 C 241.863281 216.367188 242.136719 216.390625 242.308594 216.402344 C 242.773438 216.433594 242.285156 216.46875 241.488281 214.75 C 239.394531 210.269531 237.449219 205.742188 235.558594 201.179688 C 229.074219 185.523438 222.929688 169.71875 216.800781 153.925781 C 205.820312 125.632812 195.011719 97.269531 184.328125 68.859375 C 183.246094 65.992188 178.605469 67.230469 179.699219 70.132812 " fill-opacity="1" fill-rule="nonzero"/><path fill="#e8ab10" d="M 181.871094 69.632812 C 181.871094 69.632812 237.152344 216.652344 240.90625 218.859375 C 247.539062 222.75 311.925781 130.730469 329.027344 102.820312 C 333.382812 95.71875 182.792969 60.941406 181.871094 69.632812 " fill-opacity="1" fill-rule="nonzero"/><path fill="#db9715" d="M 186.84375 75.957031 C 187.890625 77.722656 196.535156 98.007812 200.882812 98.234375 C 205.226562 98.460938 203.851562 109.441406 206.605469 104.867188 C 209.347656 100.292969 219.1875 106.472656 219.871094 108.988281 C 220.566406 111.5 225.367188 125.917969 232.226562 114.027344 C 239.097656 102.113281 239.78125 99.144531 237.039062 96.402344 C 234.285156 93.648438 231.226562 91.964844 232.648438 88.347656 C 234.058594 84.730469 235.890625 87.472656 234.058594 84.730469 C 232.226562 81.988281 227.085938 77.746094 225.765625 79.179688 C 224.457031 80.613281 221.019531 81.75 218.039062 82.441406 C 215.070312 83.125 214.84375 84.261719 211.863281 84.046875 C 208.890625 83.808594 206.105469 82.945312 205.546875 81.203125 C 205 79.460938 210.03125 76.71875 210.03125 76.71875 C 210.03125 76.71875 205.226562 71.90625 202.941406 72.828125 C 200.65625 73.738281 197.902344 75.117188 195.613281 75.117188 C 193.328125 75.117188 190.652344 74.273438 188.675781 74.125 C 186.695312 73.976562 185.75 74.113281 186.84375 75.957031 " fill-opacity="1" fill-rule="nonzero"/><path fill="#db9715" d="M 252.332031 89.121094 L 252.171875 89.269531 C 251.101562 90.28125 250.523438 91.703125 250.601562 93.183594 C 250.714844 95.265625 251 98.292969 251.671875 100.589844 C 252.820312 104.480469 255.449219 103.230469 253.332031 107.632812 C 251.214844 112.035156 251.445312 114.550781 250.535156 116.835938 C 249.613281 119.125 248.007812 121.183594 248.007812 123.480469 C 248.007812 125.769531 248.460938 130.34375 250.535156 128.738281 C 252.59375 127.132812 251.445312 126.90625 254.425781 125.769531 C 257.394531 124.621094 259.453125 124.847656 260.828125 124.390625 C 262.195312 123.9375 264.027344 122.105469 265.632812 123.242188 C 266.757812 124.050781 268.214844 125.414062 268.988281 126.15625 C 269.316406 126.460938 269.578125 126.828125 269.816406 127.203125 C 270.457031 128.25 271.96875 130.195312 272.503906 126.449219 C 272.71875 124.9375 272.753906 123.6875 272.695312 122.695312 C 272.582031 120.683594 273.628906 118.792969 275.425781 117.894531 L 275.960938 117.578125 L 276.519531 117.199219 C 277.816406 116.347656 278.636719 114.9375 278.726562 113.390625 C 278.792969 112.296875 278.761719 111.207031 278.453125 110.886719 C 277.757812 110.203125 279.820312 108.601562 275.925781 108.371094 C 272.035156 108.144531 270.214844 109.519531 270.214844 109.519531 C 270.214844 109.519531 262.195312 114.777344 261.058594 113.171875 C 259.910156 111.570312 258.996094 110.203125 259.453125 108.371094 C 259.648438 107.621094 259.863281 106.914062 260.066406 106.335938 C 260.398438 105.390625 261 104.59375 261.796875 104.003906 C 262.808594 103.265625 264.230469 102.332031 265.175781 102.195312 C 265.722656 102.113281 265.734375 102.730469 265.632812 103.34375 C 265.4375 104.539062 264.824219 105.722656 266.78125 101.964844 C 269.75 96.242188 267.917969 98.53125 269.75 96.242188 C 271.582031 93.945312 272.035156 93.035156 270.671875 91.671875 C 269.292969 90.292969 270.214844 90.75 267.917969 91.671875 C 265.632812 92.582031 266.3125 93.261719 264.265625 93.945312 C 262.195312 94.640625 261.285156 96.015625 260.601562 94.867188 C 259.910156 93.71875 259.226562 93.503906 260.828125 91.429688 C 261.570312 90.476562 262.070312 90.554688 262.34375 90.644531 C 262.648438 90.75 262.671875 90.839844 262.433594 89.371094 C 261.96875 86.628906 265.632812 85.253906 260.828125 85.480469 L 260.683594 85.492188 C 257.554688 85.652344 254.617188 86.972656 252.332031 89.121094 " fill-opacity="1" fill-rule="nonzero"/><path fill="#db9715" d="M 278.214844 118.632812 C 277.894531 119.703125 280.285156 129.113281 281.160156 132.492188 C 281.355469 133.265625 281.261719 134.0625 280.898438 134.734375 L 276.917969 142.070312 C 276.703125 142.480469 276.574219 142.949219 276.566406 143.425781 C 276.53125 144.734375 276.449219 147.691406 276.28125 151.242188 C 276.042969 156.054688 276.746094 157.179688 276.621094 159.59375 C 276.507812 161.992188 276.28125 161.777344 275.734375 164.597656 L 275.394531 166.386719 C 275.257812 167.136719 275.394531 167.945312 275.800781 168.648438 C 276.347656 169.59375 277.179688 170.675781 277.941406 170.175781 C 278.363281 169.914062 278.5 170.070312 278.601562 170.230469 C 278.804688 170.574219 278.898438 170.902344 281.117188 167.457031 C 284.414062 162.324219 281.683594 165.066406 286.097656 160.652344 C 289.375 157.363281 291.46875 154.519531 292.332031 153.269531 C 292.605469 152.859375 292.789062 152.390625 292.824219 151.890625 C 292.9375 150.570312 293.347656 147.679688 294.90625 145.441406 C 296.976562 142.460938 296.453125 145.722656 296.15625 138.691406 C 295.859375 131.660156 298.921875 127.351562 294.722656 128.738281 C 290.535156 130.113281 288.398438 130.089844 288.988281 134.472656 C 289.582031 138.851562 290.273438 139.546875 287.953125 141.855469 C 285.632812 144.175781 285.679688 134.527344 286.246094 132.570312 C 286.828125 130.625 287.453125 129.988281 286.703125 127.554688 C 285.941406 125.109375 287.121094 127.132812 285.941406 125.109375 C 285.210938 123.867188 285.335938 122.355469 286.246094 121.398438 C 286.816406 120.796875 287.441406 120.203125 287.898438 119.941406 C 288.285156 119.714844 288.851562 119.75 289.421875 119.785156 C 290.503906 119.839844 291.570312 119.898438 291.355469 118.304688 C 291.035156 115.882812 291.195312 114.355469 289.671875 114.503906 C 288.136719 114.664062 286.679688 117.496094 285.835938 117.882812 C 284.996094 118.269531 284.996094 118.269531 284.996094 118.269531 L 280.707031 119.023438 C 280.238281 119.113281 279.738281 119.078125 279.261719 118.941406 L 278.214844 118.632812 " fill-opacity="1" fill-rule="nonzero"/><path fill="#db9715" d="M 238.164062 202.226562 C 237.335938 203.007812 236.835938 204.089844 236.824219 205.226562 C 236.8125 206.605469 237.300781 208.09375 239.65625 207.570312 C 242.339844 206.980469 244.925781 205.5 246.402344 204.546875 C 247.199219 204.035156 247.800781 203.28125 248.121094 202.382812 L 249.054688 199.824219 C 249.464844 198.675781 250.351562 197.753906 251.488281 197.285156 C 253.136719 196.617188 255.585938 195.464844 257.269531 194.066406 C 260.023438 191.78125 257.507812 194.761719 262.535156 188.8125 C 267.566406 182.859375 270.773438 184.226562 270.546875 180.800781 C 270.320312 177.363281 268.03125 177.363281 265.746094 177.363281 C 263.445312 177.363281 265.746094 175.078125 263.914062 171.414062 C 262.082031 167.75 262.308594 169.808594 261.386719 165.691406 C 260.476562 161.574219 260.023438 160.664062 257.960938 158.605469 C 256.949219 157.589844 256.734375 157.589844 256.300781 157.601562 C 255.859375 157.613281 255.164062 157.613281 253.09375 156.476562 C 249.03125 154.246094 247.894531 153.109375 246.972656 152.1875 C 246.0625 151.277344 244.683594 150.355469 244.683594 154.484375 C 244.683594 158.605469 247.667969 158.363281 243.308594 163.175781 C 238.960938 167.980469 241.023438 172.335938 244.230469 169.582031 C 247.425781 166.839844 244.457031 164.769531 247.425781 166.839844 C 250.40625 168.898438 253.867188 166.863281 254.082031 170.742188 C 254.300781 174.621094 252.921875 176.910156 252.921875 176.910156 C 252.921875 176.910156 252.46875 180.105469 254.300781 179.195312 C 255.574219 178.558594 257.085938 178.59375 258.328125 179.289062 C 259.511719 179.960938 260.625 180.871094 260.023438 181.710938 C 258.871094 183.316406 258.179688 188.582031 254.640625 189.835938 C 251.089844 191.097656 254.070312 193.613281 251.089844 191.097656 C 248.121094 188.570312 248.804688 188.355469 247.199219 187.207031 C 245.59375 186.058594 248.347656 182.394531 244.914062 183.996094 C 241.476562 185.601562 236.675781 185.828125 239.417969 188.570312 C 240.351562 189.503906 241.160156 190.164062 241.839844 190.640625 C 242.773438 191.289062 243.921875 191.40625 245.027344 191.15625 C 245.4375 191.0625 245.855469 191.210938 246.0625 192.007812 C 246.515625 193.839844 247.425781 194.761719 245.140625 196.582031 C 242.851562 198.414062 241.941406 199.335938 240.792969 200.015625 C 240.121094 200.414062 238.996094 201.441406 238.164062 202.226562 " fill-opacity="1" fill-rule="nonzero"/><path fill="#db9715" d="M 308.671875 100.191406 C 307.535156 99.03125 305.863281 98.859375 304.324219 99.371094 L 304.019531 99.453125 C 302.425781 99.679688 301.503906 99.214844 301.503906 101.964844 C 301.503906 104.707031 301.050781 105.164062 302.652344 108.601562 C 304.246094 112.035156 303.335938 113.414062 307.226562 111.351562 C 311.117188 109.292969 312.777344 110.488281 316.179688 109.316406 C 319.582031 108.144531 313.324219 104.175781 311.199219 102.5 C 310.402344 101.875 309.503906 101.023438 308.671875 100.191406 " fill-opacity="1" fill-rule="nonzero"/><path fill="#db9715" d="M 223.636719 172.960938 C 223.636719 172.960938 222.726562 175.714844 225.242188 174.566406 C 227.753906 173.429688 230.738281 172.277344 233.25 170.21875 C 235.765625 168.160156 236.6875 169.539062 236.914062 165.644531 C 237.140625 161.753906 237.140625 164.496094 236.6875 159.921875 C 236.21875 155.351562 234.785156 160.777344 236.3125 154.050781 C 237.300781 149.683594 236.640625 145.996094 236.0625 143.949219 C 235.6875 142.617188 235.367188 141.265625 235.140625 139.898438 C 234.71875 137.417969 233.875 133.789062 232.453125 133.265625 C 230.269531 132.457031 226.84375 132.6875 227.300781 136.804688 C 227.753906 140.921875 229.359375 143.902344 229.359375 146.191406 C 229.359375 148.476562 229.542969 153.324219 226.9375 152.734375 C 224.320312 152.140625 225.777344 153.140625 224.480469 153.210938 C 223.183594 153.277344 220.894531 155.109375 223.410156 156.261719 C 225.925781 157.410156 227.710938 155.613281 229.679688 155.476562 C 231.648438 155.351562 232.5 154.828125 233.332031 157.035156 C 234.160156 159.230469 233.933594 164.042969 232.328125 165.644531 C 230.738281 167.238281 229.359375 168.617188 226.152344 169.539062 C 222.953125 170.449219 223.636719 172.960938 223.636719 172.960938 " fill-opacity="1" fill-rule="nonzero"/><path fill="#f0ba30" d="M 245.640625 141.46875 C 244.730469 141.46875 242.726562 134.0625 242.023438 133.0625 C 240.988281 131.59375 239.644531 126.585938 238.382812 124.6875 C 237.121094 122.800781 236.742188 120.445312 236.753906 117.679688 C 236.753906 114.902344 239.929688 115.003906 242.011719 112.398438 C 244.082031 109.773438 244.023438 108.507812 244.753906 106.425781 C 245.480469 104.332031 244.445312 102.867188 244.445312 102.867188 C 245.082031 101.808594 245.710938 101.375 246.300781 101.375 C 246.9375 101.375 247.53125 101.875 248.019531 102.648438 C 247.917969 103.207031 248.085938 103.820312 248.519531 104.253906 C 248.621094 104.355469 248.722656 104.4375 248.839844 104.503906 C 249.382812 106.265625 249.496094 108.339844 248.894531 109.5 C 247.382812 112.410156 248.007812 111.195312 245.574219 117.953125 C 243.136719 124.699219 245.21875 122.082031 246.003906 135.746094 C 246.242188 139.980469 246.050781 141.46875 245.640625 141.46875 " fill-opacity="1" fill-rule="nonzero"/><path fill="#f0ba30" d="M 266.542969 156.566406 C 266.542969 156.566406 264.480469 151.640625 263.789062 147.28125 C 263.105469 142.949219 262.648438 142.027344 263.105469 138.363281 C 263.558594 134.699219 264.402344 137.441406 267.90625 134.9375 C 268.476562 134.527344 268.929688 134.347656 269.292969 134.347656 C 272.035156 134.347656 269.554688 144.65625 268.132812 148.886719 C 266.542969 153.699219 268.828125 151.414062 266.542969 156.566406 " fill-opacity="1" fill-rule="nonzero"/><path fill="#f0ba30" d="M 274.105469 103.914062 C 271.742188 103.914062 271.25 100.976562 272.605469 98.121094 C 273.289062 96.664062 279.285156 94.421875 282.140625 94.421875 C 282.675781 94.421875 283.105469 94.503906 283.355469 94.683594 C 284.960938 95.835938 284.050781 95.835938 283.347656 100.613281 C 283.0625 102.546875 282.855469 103.148438 282.570312 103.148438 C 282.140625 103.148438 281.523438 101.820312 280.160156 101.546875 C 279.875 101.5 279.648438 101.464844 279.441406 101.464844 C 277.976562 101.464844 278.15625 102.820312 275.234375 103.71875 C 274.824219 103.855469 274.449219 103.914062 274.105469 103.914062 " fill-opacity="1" fill-rule="nonzero"/><path fill="#f0ba30" d="M 223.226562 148.308594 C 223.171875 148.308594 222.941406 148.023438 222.125 147.03125 C 219.835938 144.289062 220.292969 145.667969 219.835938 142.914062 C 219.371094 140.171875 221.429688 140.855469 219.371094 140.171875 C 217.390625 139.511719 216.890625 130.980469 217.878906 130.980469 C 217.914062 130.980469 217.960938 130.992188 218.003906 131.011719 C 219.144531 131.707031 221.351562 136.65625 221.28125 137.042969 C 221.203125 137.417969 223.488281 139.25 223.488281 139.25 L 226.46875 142.230469 C 226.46875 142.230469 226.128906 148.203125 224.5 148.203125 C 224.375 148.203125 224.238281 148.171875 224.09375 148.101562 C 223.738281 147.910156 223.523438 147.839844 223.398438 147.839844 C 223.226562 147.839844 223.191406 147.953125 223.203125 148.066406 C 223.214844 148.183594 223.261719 148.308594 223.226562 148.308594 " fill-opacity="1" fill-rule="nonzero"/><path fill="#f0ba30" d="M 233.546875 184.5 C 233.546875 184.5 231.261719 181.289062 231.019531 179.242188 C 230.792969 177.183594 231.019531 179.242188 233.773438 176.488281 C 235.605469 174.65625 237.128906 174.351562 237.949219 174.351562 C 238.347656 174.351562 238.574219 174.429688 238.574219 174.429688 L 240.636719 176.488281 C 240.636719 176.488281 237.4375 179.699219 236.289062 181.757812 C 235.152344 183.816406 233.546875 184.5 233.546875 184.5 " fill-opacity="1" fill-rule="nonzero"/><path fill="#f0ba30" d="M 305.429688 128.988281 C 304.597656 128.988281 303.664062 128.898438 302.664062 128.804688 C 301.652344 128.714844 300.570312 128.636719 299.457031 128.636719 C 298.695312 128.636719 297.910156 128.667969 297.136719 128.785156 C 297 128.804688 296.886719 128.816406 296.757812 128.828125 C 296.613281 128.601562 296.363281 128.476562 295.984375 128.476562 C 295.714844 128.476562 295.382812 128.53125 294.960938 128.660156 C 292.585938 127.851562 293.074219 124.734375 293.074219 124.734375 C 295.429688 117.929688 298.5 114.597656 300.242188 112.398438 C 300.652344 111.886719 301.058594 111.695312 301.457031 111.695312 C 302.789062 111.695312 303.949219 113.855469 303.949219 113.855469 C 303.949219 113.855469 303.074219 115.050781 304.53125 116.679688 C 305.988281 118.316406 311.09375 118.941406 312.6875 120.546875 C 314.292969 122.148438 309.945312 126.042969 308.296875 128.042969 C 307.695312 128.773438 306.691406 128.988281 305.429688 128.988281 " fill-opacity="1" fill-rule="nonzero"/><path fill="#ebb331" d="M 296.226562 128.851562 C 295.734375 128.851562 295.316406 128.785156 294.960938 128.660156 C 295.382812 128.53125 295.714844 128.476562 295.984375 128.476562 C 296.363281 128.476562 296.613281 128.601562 296.757812 128.828125 C 296.578125 128.839844 296.394531 128.851562 296.226562 128.851562 " fill-opacity="1" fill-rule="nonzero"/><path fill="#f0ba30" d="M 213.339844 118.417969 C 211.964844 118.417969 209.722656 116.609375 209.257812 115.871094 C 208.527344 114.675781 208.5625 108.757812 209.265625 106.257812 C 209.425781 105.675781 209.652344 105.414062 209.925781 105.414062 C 211.246094 105.414062 213.578125 111.730469 214.339844 115.914062 C 214.683594 117.78125 214.160156 118.417969 213.339844 118.417969 " fill-opacity="1" fill-rule="nonzero"/><path fill="#ac6e1e" d="M 207.242188 99.738281 C 206.195312 99.738281 205.160156 99.339844 204.363281 98.554688 C 202.769531 96.960938 202.769531 94.390625 204.363281 92.796875 C 205.160156 92 206.195312 91.601562 207.242188 91.601562 C 208.277344 91.601562 209.324219 92 210.109375 92.796875 C 211.703125 94.390625 211.703125 96.960938 210.109375 98.554688 C 209.324219 99.339844 208.277344 99.738281 207.242188 99.738281 " fill-opacity="1" fill-rule="nonzero"/><path fill="#b5781d" d="M 252.375 149.160156 C 251.761719 149.160156 251.136719 148.921875 250.667969 148.453125 C 249.714844 147.511719 249.714844 145.964844 250.667969 145.019531 C 251.136719 144.542969 251.761719 144.300781 252.375 144.300781 C 253.003906 144.300781 253.628906 144.542969 254.09375 145.019531 C 255.050781 145.964844 255.050781 147.511719 254.09375 148.453125 C 253.628906 148.921875 253.003906 149.160156 252.375 149.160156 " fill-opacity="1" fill-rule="nonzero"/><path fill="#b5781d" d="M 242.773438 174.101562 C 241.964844 174.101562 241.160156 173.792969 240.542969 173.167969 C 239.304688 171.9375 239.304688 169.945312 240.542969 168.707031 C 240.636719 168.617188 240.726562 168.523438 240.828125 168.445312 C 240.851562 169.664062 241.453125 170.4375 242.375 170.4375 C 242.898438 170.4375 243.535156 170.175781 244.230469 169.582031 C 244.558594 169.296875 244.832031 169.015625 245.039062 168.753906 C 246.234375 169.980469 246.222656 171.949219 245.003906 173.167969 C 244.390625 173.792969 243.582031 174.101562 242.773438 174.101562 " fill-opacity="1" fill-rule="nonzero"/><path fill="#ac6e1e" d="M 242.375 170.4375 C 241.453125 170.4375 240.851562 169.664062 240.828125 168.445312 C 241.398438 168 242.078125 167.785156 242.773438 167.785156 C 243.582031 167.785156 244.390625 168.09375 245.003906 168.707031 C 245.015625 168.71875 245.027344 168.730469 245.039062 168.753906 C 244.832031 169.015625 244.558594 169.296875 244.230469 169.582031 C 243.535156 170.175781 242.898438 170.4375 242.375 170.4375 " fill-opacity="1" fill-rule="nonzero"/><path fill="#b5781d" d="M 249.804688 104.789062 C 249.476562 104.789062 249.132812 104.699219 248.839844 104.503906 C 248.621094 103.808594 248.347656 103.171875 248.019531 102.648438 C 248.074219 102.296875 248.246094 101.957031 248.519531 101.683594 C 248.871094 101.328125 249.339844 101.148438 249.804688 101.148438 C 250.273438 101.148438 250.738281 101.328125 251.089844 101.683594 C 251.808594 102.386719 251.808594 103.535156 251.089844 104.253906 C 250.738281 104.605469 250.273438 104.789062 249.804688 104.789062 " fill-opacity="1" fill-rule="nonzero"/><path fill="#b8802f" d="M 248.839844 104.503906 C 248.722656 104.4375 248.621094 104.355469 248.519531 104.253906 C 248.085938 103.820312 247.917969 103.207031 248.019531 102.648438 C 248.347656 103.171875 248.621094 103.808594 248.839844 104.503906 " fill-opacity="1" fill-rule="nonzero"/><path fill="#b5781d" d="M 289.113281 131.730469 C 288.828125 131.605469 288.566406 131.433594 288.339844 131.207031 C 287.351562 130.207031 287.351562 128.589844 288.339844 127.601562 C 288.839844 127.097656 289.488281 126.847656 290.136719 126.847656 C 290.796875 126.847656 291.445312 127.097656 291.945312 127.601562 C 292.4375 128.089844 292.6875 128.726562 292.6875 129.375 C 290.808594 129.957031 289.582031 130.421875 289.113281 131.730469 " fill-opacity="1" fill-rule="nonzero"/><path fill="#ac6e1e" d="M 290.136719 131.945312 C 289.785156 131.945312 289.433594 131.878906 289.113281 131.730469 C 289.582031 130.421875 290.808594 129.957031 292.6875 129.375 C 292.699219 130.035156 292.449219 130.695312 291.945312 131.207031 C 291.445312 131.695312 290.796875 131.945312 290.136719 131.945312 " fill-opacity="1" fill-rule="nonzero"/></svg>